<?xml version="1.0" encoding="UTF-8"?>
<svg id="Layer_1" data-name="Layer 1" xmlns="http://www.w3.org/2000/svg" viewBox="0 0 566.24 432.51">
  <path class="cls-2" d="M221.76,253.03c7.03.88,7.94-3.99,11.57-6.23-2.84-5.58-11.88.16-11.57,6.23ZM563.22,208.39c.22-17.98-4.86-36.35-4.66-54.3.53-49.46,2.02-95.49-4.41-139.67-92-4.37-180.1-.73-270.75,1.19-84.29,1.8-158.76,2.68-238.23,4.61C37.52,12.69,37.32-2.79,19.54.44,18.82,13.11-.8,7.94,1.13,23.08c-5.49,6.46,11.05,2.35,7.71,11.54,8.31,47.71,5.17,91.46,4.19,132.28-.38,14.97,2.65,28.68,4.33,44.03,6.83,63-6.21,131.61,6.19,197-4.72,5.66-3.92,13.92-.75,22.06,13.71,4.93,23.98,1.26,39.74.23,154.88-9.97,316.77,1.48,476.59-6.2,8.14-.44,15.79,3.42,23.53-.76,7.68-14.87.7-31.23-.04-47.11-.86-18.69,2.58-37.93,2.6-57.46.06-36.25-2.5-72.7-2-110.32ZM511.65,20.24c9.95-.12,22.84-2.97,29.61,4.9.9,5.53-16.13-2.06-17.5,4.98-67.61-4.99-144.19-3.58-207.65-5.2,52.65-5.88,131.6-4.17,195.55-4.68ZM129.19,24.95c-1.91,3.39-10.2.87-14.64,1.9,2-6.58,8.66-.22,14.64-1.9ZM107.38,32.94c129.34-3.16,279.36-4.31,423.86,1.35-12.75,21.1-34.13,37.07-52.72,54.63-18.54,17.55-34.74,38.48-54.2,54.73-43.56,36.38-83.83,76.33-122.9,115.69-16.82-8.6-52.97-38.27-59.87-43.81-40.58-32.39-81.31-64.33-121.18-97.63-27.1-22.65-54.99-44.07-73.06-77.12,12.56-9.91,45.26,1.23,60.09-7.84ZM22.02,312.34c2.33-4.31,1.41,7.42,1.8,10.22-2.31,4.34-1.41-7.47-1.8-10.22ZM19.31,132.87c6.28,40.17,1.68,82.28,5.04,113.16-7.74-37.66-7.7-77.15-5.04-113.16ZM33.06,335.55c-6.58-35.88-7.09-72.43-6.43-110.19,9.01,32.96,7.34,75.37,6.43,110.19ZM544.03,392.93c-62.39-40.89-117.03-103.26-176.96-151.83-1.05,10.9,11.67,15.48,18.33,21.49,8.59,7.73,17.01,14.86,25.74,22.76,3.91,3.48,8.26,6.25,12.08,9.87,7.16,6.86,8.67,12.32,16.81,20.1,8.06,7.69,19.97,15.61,28.75,24.1,3.8,3.7,5.56,9.5,9.21,12.97,22.17,20.67,49,35.81,65.22,61.19-111.41-.83-237.64-10.17-362.06-1.78-44.15,2.94-86.19,2.42-127.91,4.02,11.11-26.2,38.67-36.92,52.54-60.53,38.04-26.57,69.89-58.93,104.63-88.68-56.53,32.85-113.09,84.39-168.16,127.48-2.15-17.42-1.71-33.79-1.68-52.96.09-38.16-5.97-78.37-8.16-118.9-1.45-26.85.27-54.55.38-80.97.08-22.68-9.68-44.81-.61-66.17,25.68,11.11,44.57,33.27,67.79,49.36,69.57,48.2,134.72,106.62,200.77,159.93,5.42,4.03,30.97-31.47,34.65-35.2,10.62-10.78,22.24-20.52,33.61-30.48,17.57-15.37,33.4-31.32,51.31-46.61,20.84-17.78,42.33-34.8,62.05-53.83,1.55-1.5,4.18-2.86,5.74-4.61,11.82-13.31,30.88-30.06,48.77-39.8,14.39,18.06,8.86,55.85,8.62,86.59-.58,74.38-.39,158.16-1.48,232.48ZM553.18,402.98c-6.42-1.88.18-8.25-1.94-14.66,1.21-1.99,4.3,12.68,1.94,14.66ZM551.26,155.8c2.85,3.3,2.51,15.61.61,19.09-1.16-4.76-1.06-11.91-.61-19.09ZM555.6,199.79c.3,29.41,1.78,81.24,3.94,124.98-6.32-32.59-9.48-89.62-3.94-124.98Z"/>
  <path class="cls-1" d="M263.43,201.85c-84.96-26.27-22.38-160.57,50.95-153.53,34.61,3.46,68.54,31.82,61.7,68.95-3.11,16.84-11.74,36.43-26.22,46.56-13.74,9.61-40.14,9.35-37.45-13.64-8.4,11.96-23,26.13-39.14,21.14-15.62-4.83-16.68-24.1-13.12-37.23,6.37-23.51,43.42-69.83,66.22-35.05,1.38-3.98,3.3-10.44,9.12-8.64,10.14,3.14.65,22.7-1.45,28-4.09,10.27-12.01,24.02-8.19,35.42,4.45,13.31,21.91-5.16,25.67-10.32,16.2-22.2,19.85-51.14-3.59-69.79-22.32-17.79-55.13-17.8-77.69-.63-20.86,15.86-37.33,48.58-34.68,75.11,2.72,27.25,26.57,45.65,53.3,43.55,10.71-.84,22.68-3.99,31.65-10.12,7.16-4.9,23.88-2.61,13.41,7.74-15.14,14.93-51.35,18.41-70.48,12.49-26.08-8.07,2.69.83,0,0ZM310.22,101.07c-23.55-7.28-56.05,51.13-32.3,58.48,20.51,6.34,50-53.01,32.3-58.48-1.89-.59,2.09.65,0,0Z"/>
</svg>