<svg xmlns="http://www.w3.org/2000/svg" width="676" height="274" viewBox="0 0 676 274" fill="none">
<path d="M6.9999 0.5C6.5999 0.5 6.0999 0.5 5.6999 0.5C4.5999 0.8 3.5999 1.4 2.8999 2.2C3.9999 1.2 5.4999 0.6 6.9999 0.5Z" fill="#504126"/>
<path d="M1.1999 15.0004C1.2999 14.6004 1.2999 14.8004 1.3999 14.3004L0.999902 9.90039L0.799902 7.70039C0.699902 7.10039 0.599902 5.80039 0.899902 4.90039C0.599902 5.60039 0.399902 6.30039 0.399902 6.90039C0.399902 7.40039 0.399902 7.80039 0.399902 8.30039C0.499902 9.20039 0.599902 10.0004 0.799902 10.8004C1.0999 12.3004 1.3999 13.7004 1.1999 15.0004Z" fill="#504126"/>
<path d="M1.09992 17.5997C0.899919 20.9997 1.29992 22.4997 1.49992 23.2997C1.09992 22.0997 1.49992 16.8997 1.09992 17.5997Z" fill="#504126"/>
<path d="M132.3 271.3L133.1 271C118.4 271.6 101.7 271 86.1997 271.2L87.2997 271.1C67.4997 271 48.4997 271.1 29.5997 271.3C24.8997 271.3 20.0997 271.4 15.3997 271.4C12.9997 271.4 10.5997 271.4 8.29971 271.5C7.69971 271.5 7.09971 271.5 6.49971 271.5C5.89971 271.4 5.29971 271.2 4.79971 270.9C3.79971 270.3 2.99971 269.3 2.69971 268.1C2.59971 267.5 2.59971 266.9 2.59971 266.3V264.5V260.9C2.59971 258.5 2.59971 256.1 2.49971 253.7C2.49971 248.9 2.39971 244 2.39971 239.1C2.39971 239.7 2.49971 239.9 2.59971 240.6C2.49971 238.7 2.29971 236.6 2.29971 234.5C2.39971 233.9 2.49971 235.1 2.49971 235.8C3.09971 227.5 2.19971 211.5 2.59971 206.3C2.49971 204 2.29971 202.9 2.09971 204.2C1.99971 173.5 1.89971 140.6 1.39971 109.4C1.49971 107.9 1.59971 107.6 1.79971 108C0.899707 81.2999 1.29971 53.1999 1.39971 25.8999C1.19971 24.8999 1.19971 28.6999 0.899707 25.9999C0.599707 34.7999 1.49971 42.0999 0.999707 50.0999L0.799707 49.0999C0.699707 54.8999 1.39971 50.2999 1.09971 56.2999C0.899707 58.6999 0.799707 55.6999 0.799707 56.7999C0.899707 69.0999 0.699707 81.9999 1.19971 93.5999C0.699707 96.4999 1.19971 106.9 0.699707 111.4C0.899707 114.6 0.799707 117.8 1.19971 119C0.899707 162.2 1.39971 206.3 1.39971 250.5C1.59971 255.7 1.69971 261.1 1.79971 266.7C1.79971 267 1.79971 267.4 1.89971 267.9C1.99971 268.3 2.09971 268.7 2.19971 269.1C2.49971 269.9 2.99971 270.6 3.59971 271.2C4.19971 271.8 4.99971 272.2 5.79971 272.4C6.19971 272.5 6.59971 272.6 7.09971 272.6H8.19971C11.0997 272.6 13.9997 272.6 16.9997 272.7C28.8997 272.8 41.1997 273 53.4997 272.9C53.6997 272.9 53.5997 273 53.4997 273C61.4997 272.8 73.1997 272.7 82.6997 272.8L90.7997 272.4C148.3 273.2 207.1 272.6 265.5 273C331.9 273.2 390 273.9 454.7 272.7C454.6 272.8 455.1 272.8 453.5 272.9C472.2 272.7 489.2 273.1 506.7 272.9L506.6 273C550.2 272.2 597.3 273.1 639.4 272.3C645.8 272.3 652.3 272.3 658.9 272.3C662.2 272.3 665.5 272.3 668.8 272.3H670.1C670.5 272.3 671 272.3 671.4 272.1C672.3 271.9 673.1 271.4 673.7 270.7C674.3 270 674.7 269.2 674.9 268.3C675.1 267.4 675 266.6 675 265.7C675 252.2 675 238.5 675 224.7C674.9 197.1 674.8 169.1 674.8 142L675 142.1C674.6 98.7999 675.6 56.8999 675.3 13.6999C675.3 12.2999 675.3 10.8999 675.3 9.49989V7.39989C675.3 6.59989 675.1 5.79989 674.8 5.09989C674.1 3.69989 672.7 2.59989 671.1 2.29989C670.7 2.19989 670.3 2.19989 669.9 2.19989H668.8H666.7C661.1 2.19989 655.4 2.19989 649.7 2.29989C638.3 2.39989 626.9 2.49989 615.4 2.59989C592.5 2.89989 569.5 3.09989 547.1 2.79989C519.4 1.89989 482.9 3.89989 456.8 2.89989C403.3 1.49989 351.3 2.39989 297.8 3.29989C248.4 2.79989 199.1 4.09989 151.3 3.09989C128.7 3.29989 103.7 1.79989 78.3997 1.99989L79.2997 2.19989C70.1997 1.49989 59.0997 3.19989 53.4997 2.09989H54.4997C49.6997 1.59989 43.3997 3.39989 40.4997 2.69989L39.6997 2.99989C33.8997 3.09989 38.9997 2.69989 34.4997 2.59989C32.7997 2.59989 33.8997 3.09989 30.2997 2.89989C29.4997 1.79989 16.0997 3.09989 15.6997 1.89989C18.8997 1.89989 10.6997 1.39989 17.8997 1.19989C15.8997 1.09989 6.09971 1.19989 6.99971 1.69989C6.19971 2.19989 2.39971 2.69989 8.29971 3.09989L9.49971 2.69989C11.4997 3.09989 10.9997 2.89989 11.6997 3.19989C19.3997 3.29989 20.4997 3.79989 25.9997 4.09989C25.8997 4.09989 25.8997 4.09989 25.9997 4.09989C29.7997 3.59989 34.9997 3.89989 37.9997 3.99989L39.1997 4.19989C40.9997 4.59989 47.9997 3.29989 45.5997 4.09989C61.2997 3.89989 79.2997 3.89989 96.7997 3.89989C99.2997 3.59989 110.2 3.89989 106.4 3.29989C110.8 3.99989 123.8 4.09989 128.7 4.09989C128.5 4.19989 128.3 4.19989 127.6 4.19989C137 5.09989 138.7 3.39989 147.6 4.49989C149 3.79989 163.6 4.69989 168.6 3.89989C169.7 4.09989 170.1 4.19989 169.7 4.29989C185.6 4.29989 203.1 4.59989 216.5 4.59989C227.9 3.99989 244.2 4.89989 254 3.99989C262.2 4.19989 275.4 4.59989 286.8 4.19989L285.7 4.29989C298.6 4.19989 314.6 4.19989 323.5 3.59989C327.3 4.49989 332.9 4.29989 338.4 4.59989C347 4.19989 364.3 4.29989 377.5 3.99989C379.5 4.39989 388.3 3.79989 389 4.39989C425.7 3.29989 471.2 3.69989 510.4 4.49989H509.8C514.9 4.19989 520.8 3.49989 525.9 3.09989C526.4 3.19989 526.4 3.19989 525.3 3.19989C532.5 3.09989 539.2 3.69989 546.3 3.59989C546.2 3.69989 546.2 3.69989 545.1 3.79989C551.8 3.49989 559 4.29989 566.9 3.79989L567.3 3.99989L572.3 3.79989C572.2 3.99989 572 4.29989 569.3 4.19989C600.1 4.29989 631.3 4.09989 662.8 3.89989H668.7H669.4C669.6 3.89989 669.9 3.89989 670.1 3.89989C670.4 3.89989 670.8 3.99989 671.1 4.09989C671.7 4.39989 672.3 4.79989 672.7 5.39989C672.9 5.69989 673 5.99989 673.1 6.39989C673.2 6.69989 673.2 7.09989 673.2 7.59989V10.5999V16.4999C673.2 24.3999 673.3 32.2999 673.3 40.1999C673.4 55.9999 673.4 71.7999 673.4 87.5999L673.2 85.2999L673.5 97.4999C673.4 97.3999 673.4 96.8999 673.3 96.2999C673 111.9 673.5 128.1 673.4 143.3C673.3 143.2 673.1 140.9 673 143.1C673.5 154.4 672.3 161.2 673.4 166.8C673.3 167.3 673.1 167.7 673 166.5C673.4 197.8 673.3 230 673.2 261.5C673.3 263.1 673.3 264.8 673.4 266.5V267.1C673.4 267.3 673.4 267.4 673.4 267.6C673.4 267.9 673.3 268.3 673.2 268.6C672.9 269.2 672.5 269.8 672 270.2C671.4 270.6 670.8 270.9 670.1 270.9C669.3 270.9 668.4 270.9 667.6 270.9C665.9 270.9 664.2 270.9 662.5 271C655.6 271.1 648.6 271.1 641.6 271.1C627.6 271.1 613.4 271.1 599.8 271.5L599.9 271.3C564.6 272 527.1 271.3 490.5 271.4C475.3 271.3 465 271.6 449.7 271.6L449.3 271.4C423.6 272.3 395.2 270.6 368.4 271.6L370.3 271.3C366.1 271.8 354.1 271.1 355.7 272L351 271.7C332.8 272.9 317.8 271.2 295.5 271.9L297 271.7C291.1 271.9 284.1 272 279.7 271.8C280.4 271.8 280.1 271.7 281.5 271.7C262.9 270.9 242.2 271.8 222.6 271.8L224.8 271.4C215.3 271.9 197.9 271.4 185.4 271.6L186.2 271.4L179.9 271.7L179.7 271.3C163.4 270.9 148.1 271.2 132.3 271.3Z" fill="#504126"/>
<path d="M28 4.19961C27.3 4.19961 26.6 4.09961 26 4.09961C26.1 4.19961 27.3 4.19961 28 4.19961Z" fill="#504126"/>
<script xmlns=""/></svg>