<?xml version="1.0" encoding="iso-8859-1"?>
<!-- Generator: Adobe Illustrator 27.5.0, SVG Export Plug-In . SVG Version: 6.00 Build 0)  -->
<svg version="1.1" id="A." xmlns="http://www.w3.org/2000/svg" xmlns:xlink="http://www.w3.org/1999/xlink" x="0px" y="0px"
	 viewBox="0 0 1000 750" style="enable-background:new 0 0 1000 750;" xml:space="preserve">
<path style="fill:#070808;" d="M570.404,411.922c-0.013-0.028-0.031-0.064-0.053-0.107c-0.556-1.084-1.373-1.706-1.762-1.996
	c-1.07-0.798-2.165-1.1-2.787-1.224c0.308-0.399,0.726-1.023,1.035-1.859c0.783-2.121,0.292-4.052,0.013-5.09
	c-1.344-5.002-6.664-10.677-11.362-9.926c-0.541,0.086-0.962,0.24-1.2,0.338c-0.167,0.108-0.654,0.429-1.206,0.861
	c-0.387,0.302-1.051,0.843-1.599,1.522c-0.395,0.49-1.035,1.436-1.358,2.934c-0.462-0.905-0.948-1.563-1.283-1.976
	c-0.682-0.839-2.544-3.067-4.998-3.116c-0.2-0.004-0.394,0.016-0.585,0.046c-0.191-1.15-0.634-2.196-1.497-2.833
	c-0.018-0.013-0.041-0.03-0.069-0.05c-0.697-0.488-1.398-0.608-1.733-0.662c-0.92-0.147-1.694,0.021-2.118,0.146
	c0.062-0.351,0.117-0.87,0.038-1.483c-0.208-1.61-1.187-2.662-1.639-3.148c-2.19-2.354-8.454-4.778-10.915-2.028
	c-0.27,0.301-1.4,1.678-0.798,4.802c-0.279-0.312-0.727-0.738-1.375-1.069c-1.002-0.513-2.283-0.698-3.368-0.43
	c-0.712-1.983-1.421-3.966-2.136-5.948c-2.978-8.251-5.672-16.605-8.832-24.791c-3.135-8.12-6.59-16.129-9.89-24.184
	c-1.665-4.064-3.33-8.127-4.994-12.191c1.557-1.275,3.33-3.093,4.771-5.614c4.138-7.244,2.302-14.632,1.843-16.299
	c-1.484,0.859-8.003,4.836-10.47,12.499c-0.811-1.98-1.622-3.96-2.434-5.94c-0.61-1.489-1.22-2.978-1.83-4.467
	c-0.288-0.702-2.099-3.844-1.83-4.467c1.137-2.635,1.353-4.915,1.377-6.286c0,0,0.086-5.048-2.902-9.739
	c-1.14-1.791-2.009-2.564-3.739-4.105c-1.441-1.284-3.415-3.041-6.683-6.366c-2.019-2.054-2.823-2.979-3.606-4.414
	c-1.256-2.302-1.657-4.504-1.897-5.819c-0.21-1.15-0.348-1.91-1.131-1.899c-0.167,0.004-0.403,0.054-0.625,0.287
	c-0.06,0.063-0.114,0.171-0.17,0.266c-0.284-0.684-0.608-1.349-0.971-1.989c-1.107-1.953-2.981-4.286-3.898-4.508
	c-0.233-0.057-0.464-0.02-0.65,0.101c-0.604,0.393-0.313,1.048-0.004,1.743c0.326,0.734,0.872,1.963,1.18,3.656
	c0.54,2.969,0.173,5.892-0.216,8.986c-0.156,1.235-0.316,2.513-0.41,3.778c-0.74,9.936,1.231,18.651,5.548,24.541
	c1.133,1.545,2.316,2.781,3.616,3.778c0.478,0.367,0.978,0.706,1.486,1.01c0.864,0.515,1.806,0.931,2.784,1.275
	c0,0,0.49,1.309,1.292,3.448c-3.285-1.723-5.749-3.558-7.448-4.994c-1.383-1.169-2.442-2.253-3.19-3.013
	c-2.071-2.106-3.658-4.021-4.779-5.467c0.274-0.916,1.89-6.649-1.512-11.906c-1.895-2.928-4.473-4.358-5.764-4.961
	c-0.288,1.31-0.543,3.216-0.284,5.48c0.384,3.35,1.705,5.812,2.551,7.134c-0.781-0.946-1.995-2.283-3.682-3.661
	c-1.702-1.39-3.613-2.979-6.523-3.804c-2.502-0.709-4.677-0.623-6.059-0.449c1.941,1.808,3.485,3.317,4.519,4.342
	c3.895,3.863,5.153,5.432,7.797,6.646c1.642,0.754,3.129,1.053,4.117,1.188c0.547,0.283,1.095,0.567,1.642,0.85
	c3.308,2.983,6.616,5.966,9.924,8.949c-3.784,0.126-8.131-0.062-12.87-0.879c-1.503-0.259-2.937-0.563-4.299-0.898
	c-1.068-1.211-3.292-3.385-6.803-4.583c-6.092-2.079-11.396,0.37-12.567,0.945c1.247,1.328,4.447,4.373,9.614,5.657
	c4.211,1.047,7.73,0.427,9.49-0.011c3.213,0.491,6.733,0.835,10.523,0.92c1.244,0.028,2.455,0.026,3.633,0
	c-1.358,0.245-3.334,0.786-5.387,2.079c-3.914,2.465-5.569,6.063-6.142,7.512c1.609,0.094,5.345,0.096,9.354-2.031
	c4.418-2.344,6.561-5.891,7.313-7.293c0.478,0.402,1.004,0.805,1.58,1.199c2.096,1.43,4.168,2.252,5.881,2.74
	c0.049,0.13,0.097,0.26,0.147,0.393c0.019,0.066,0.036,0.125,0.056,0.194c0.009,0.005,0.015,0.014,0.023,0.019
	c2.874,7.674,7.934,21.183,10.79,28.81c-0.097,0.59-0.194,1.181-0.28,1.789c-1.118,7.873-0.892,14.719-0.323,19.957
	c-0.191-0.427-2.117-4.704-3.762-6.729c-0.454-0.559-0.883-0.996-0.883-0.996c-0.619-0.608-1.219-1.012-2.331-1.936
	c-0.351-0.291-0.929-0.794-2.07-1.819c-2.19-1.968-4.499-4.134-5.526-5.101c0.144,2.15,0.663,5.044,2.385,7.875
	c1.806,2.969,4.37,4.933,4.188,5.14c-0.186,0.211-2.526-2.238-6.419-3.35c-1.312-0.375-2.456-0.499-3.263-0.542
	c0.467,1.719,1.695,5.286,4.964,8.408c4.934,4.714,10.948,5.003,12.472,5.031c3.568,11.236,7.511,19.341,9.841,22.59
	c1.743,2.43,3.899,4.982,3.899,4.982c1.257,1.488,2.376,2.706,3.233,3.609c-1.882-0.09-4.44-0.466-7.186-1.678
	c-0.614-0.271-2.348-1.074-4.3-2.582c-1.671-1.292-2.882-2.623-3.715-3.677c0.269-1.359,1.007-5.98-1.63-10.63
	c-1.56-2.751-3.651-4.364-4.89-5.173c-0.184,2.654-0.135,5.749,0.425,9.142c0.156,0.944,0.341,1.846,0.546,2.704
	c-1.118-1.295-2.688-2.84-4.798-4.263c-3.681-2.482-7.27-3.42-9.525-3.813c0.416,1.473,1.505,4.528,4.352,7.143
	c4.595,4.222,10.251,4.068,11.444,4.008c1.143,1.417,2.737,3.126,4.87,4.788c2.342,1.824,4.591,3.013,6.359,3.786
	c-1.063-0.02-2.718-0.106-4.705-0.448c-4.925-0.849-6.817-2.401-10.571-3.091c-1.866-0.343-4.65-0.558-8.266,0.265
	c0.908,1.146,2.385,2.748,4.564,4.173c1.018,0.666,4.12,2.555,8.562,3.038c5.644,0.615,9.987-1.419,11.691-2.335
	c2.352,0.292,4.705,0.584,7.057,0.875c2.346,1.159,4.693,2.317,7.039,3.476c0.295,0.097,0.589,0.194,0.884,0.291
	c4.33,11.32,8.712,22.62,13.198,33.88c6.22,15.615,12.661,31.323,19.217,46.921c-0.634,1.804-1.185,3.633-1.566,5.511
	c-0.45,2.217-0.711,4.472-0.777,6.733c0.879-1.603,1.342-3.394,1.844-5.152c0.454-1.589,0.956-3.164,1.487-4.729
	c2.497,5.925,5.008,11.833,7.535,17.709l0.157,0.242c1.068,1.155,2.698,1.638,4.175,1.243c0.027-0.007,0.055-0.015,0.082-0.023
	c1.743-0.507,2.951-2.099,3.005-3.963c-0.015-0.101-0.031-0.201-0.046-0.302c-3.127-9.092-6.294-18.232-9.474-27.375
	c0.15-0.171,0.289-0.325,0.402-0.443c2.257-1.195,5.026-3.041,7.583-5.882c7.387-8.208,7.37-18.455,7.257-21.429
	c-1.676,0.722-4.005,1.974-6.265,4.137c-4.017,3.846-5.441,8.298-5.962,10.394c0.258-2.881,0.322-6.343-0.118-10.219
	c-0.778-6.856-2.828-12.344-4.62-16.12c0.046-1.347,0.093-2.694,0.139-4.041c0.505,0.322,5.598,3.532,8.454,3.371
	c0.416-0.023,0.844-0.088,0.844-0.088c0.931-0.139,2.533-0.379,3.805-1.498c1.034-0.909,1.47-2.066,1.663-2.823
	c0.677,0.036,1.948,0.005,3.253-0.693c0.698-0.373,1.251-0.812,1.759-1.443C569.302,419.46,571.935,415.07,570.404,411.922z
	 M457.672,287.709c-0.718-0.786-1.447-1.707-2.127-2.776c-2.759-4.341-3.231-8.796-3.259-11.464
	c0.746,0.473,5.471,3.576,6.047,9.165C458.554,284.764,458.098,286.546,457.672,287.709z M441.147,297.123
	c-4.352-0.638-7.359-2.769-8.75-3.907c1.385-0.409,5.686-1.48,10.252,0.567c2.086,0.935,3.547,2.216,4.464,3.185
	C445.664,297.255,443.585,297.481,441.147,297.123z M478.159,357.327c-5.003-2.204-7.328-6.49-8.065-8.016
	c2.143,0.597,5.511,1.843,8.839,4.567c1.983,1.623,3.401,3.32,4.383,4.71C481.934,358.492,480.114,358.188,478.159,357.327z
	 M473.689,379.673c-2.6-1.8-3.668-4.223-4.034-5.186c1.823,0.38,4.609,1.203,7.506,3.131c1.968,1.31,3.403,2.74,4.394,3.898
	C480.679,381.635,477.087,382.025,473.689,379.673z M485.639,383.006c-0.837-0.669-2.001-1.79-2.883-3.479
	c-1.915-3.668-1.082-7.295-0.805-8.33c0.838,0.835,2.398,2.61,3.278,5.361C486.141,379.407,485.855,381.837,485.639,383.006z
	 M550.978,400.246c0.008-0.237,0.034-0.782,0.133-1.384c0.373-2.264,2.097-5.852,4.635-6.167c1.252-0.155,2.282,0.544,4.342,1.942
	c0.866,0.588,2.042,1.432,3.278,2.872c0.716,0.834,3.702,4.496,2.7,7.846c-0.018,0.059-0.032,0.106-0.032,0.106
	c-0.369,1.138-1.527,1.706-2.108,1.991c-1.264,0.62-4.035,1.015-7.626,0.693c3.432-1.067,4.183-1.435,4.153-1.559
	c-0.029-0.118-0.766,0.001-2.627-0.054c-1.625-0.048-1.818-0.167-1.897-0.288c-0.233-0.357,0.532-0.873,1.396-2.306
	c0.109-0.181,1.095-1.815,0.855-2.026c-0.172-0.151-1.056,0.358-4.364,3.508c0.095-0.307,0.191-0.614,0.286-0.921
	c0.146-0.592,0.327-1.463,0.417-2.532c0.024-0.284,0.197-2.33-0.107-2.39c-0.183-0.037-0.441,0.673-0.871,1.682
	c-0.389,0.912-0.961,2.164-1.757,3.641C551.388,403.884,550.909,402.261,550.978,400.246z M550.271,409.059
	c-0.149,0.431-0.399,1.117-0.756,1.937c-0.923,2.119-2.641,6.062-5.386,6.803c-0.778,0.21-1.557,0.146-1.557,0.146
	c-1.054-0.087-1.833-0.533-2.237-0.808c-0.101-0.141-0.203-0.282-0.306-0.422c-0.751-1.025-1.603-2.06-2.503-3.076
	c-0.003-0.015-0.006-0.036-0.01-0.062c-0.332-2.267,3.048-5.208,6.424-5.982c0.838-0.192,2.321-0.398,4.233,0.069
	c-3.112,1.419-3.688,1.954-3.617,2.176c0.14,0.44,2.905-0.038,3.101-0.073C548.772,409.57,549.668,409.282,550.271,409.059z
	 M530.629,421.59c-1.782-1.915-3.12-3.846-4.127-5.585c3.331,1.584,6.031,3.04,7.975,4.135c4.872,2.747,6.204,3.92,6.889,4.568
	c2.277,2.158,3.626,4.419,4.394,5.946C542.204,429.651,535.944,427.302,530.629,421.59z M525.121,396.574
	c0.095,0.1,0.696-0.281,1.892-1.048c0.654-0.42,1.186-0.779,1.548-1.026c-0.439,1.907-0.398,3.359-0.259,4.378
	c0.099,0.72,0.333,1.846-0.308,2.606c-0.235,0.279-0.521,0.43-0.73,0.515c-0.001-0.002-0.001-0.004-0.002-0.006
	c-0.002,0.003-0.006,0.006-0.008,0.009c-0.222,0.082-0.466,0.15-0.736,0.22c-0.511,0.131-1.622,0.423-2.902,0.033
	c-0.399-0.121-1.151-0.387-1.634-1.095c-0.872-1.279-0.141-2.995,0.015-3.361c0.61-1.432,1.79-2.163,2.62-2.677
	c0.886-0.549,1.713-0.836,2.291-0.992C525.281,395.99,525.033,396.481,525.121,396.574z M526.11,403.215
	c0.395-0.073,0.27-0.106,1.3-0.399c0.492-0.14,0.9-0.242,1.173-0.308c0.269,0.435,0.758,1.099,1.565,1.659
	c0.964,0.669,1.877,0.882,2.63,0.976c1.203,0.15,2.389,0.161,3.512-0.087c0.059,0.451,0.22,1.233,0.731,2.06
	c0.452,0.731,0.99,1.194,1.342,1.453c-0.797,1.127-1.594,2.254-2.391,3.381c-1.07-1.275-2.491-2.755-4.324-4.214
	c-1.831-1.458-3.586-2.501-5.093-3.268C526.406,404.049,526.258,403.632,526.11,403.215
	C526.11,403.215,526.11,403.215,526.11,403.215z M531.587,395.544c-0.178-0.344-0.411-0.857-0.605-1.53
	c1.642,0.216,2.767,0.719,3.492,1.139c0.155,0.09,0.341,0.186,2.411,1.608c0.609,0.418,1.037,0.704,1.349,0.915
	c-0.874,1.917-1.361,3.68-1.441,3.979c-0.163,0.61-0.384,1.439-0.474,2.307c-1.174,0.384-2.211,0.296-2.487,0.269
	c-0.417-0.043-1.688-0.186-2.838-1.068c-1.442-1.104-1.722-2.636-1.815-3.156c-0.223-1.254-0.054-2.255,0.084-2.887
	c0.239-1.09,0.663-1.918,0.982-2.442c0.122,0.819,0.429,1.358,0.638,1.657c0.57,0.813,1.587,1.531,1.783,1.378
	c0.002-0.002,0.005-0.004,0.007-0.007C532.847,397.476,532.112,396.56,531.587,395.544z M529.802,409.161
	c0.938,0.642,4.94,3.534,9.726,9.915c2.012,2.682,3.384,5.083,3.19,5.228c-0.208,0.156-1.809-2.608-5.316-4.696
	c-1.659-0.988-2.635-1.313-4.658-2.156c-0.554-0.231-1.175-0.502-1.849-0.812c-1.039-2.923-2.082-5.844-3.124-8.766
	C528.34,408.208,529.032,408.634,529.802,409.161z M544.907,424.494c-0.558-1.124-1.087-2.006-1.451-2.582
	c0,0-0.001-0.002-0.001-0.002c-1.22-2.034-2.04-2.669-1.865-2.951c0.114-0.183,0.682-0.053,1.817,0.209
	c0.893,0.206,1.34,0.309,1.598,0.513c0.613,0.484,0.617,1.277,0.726,2.762c0.221,3.037,0.536,4.265,0.325,4.312
	C545.886,426.794,545.658,426.006,544.907,424.494z M544.038,393.727c1.772-0.203,3.407,1.702,3.966,2.353
	c0.205,0.238,0.816,0.985,1.278,2.142c0.929,2.324,0.535,4.51,0.27,5.543c-0.08-0.26-0.528-1.632-1.766-2.062
	c-0.924-0.32-1.984-0.01-2.006,0.228c-0.016,0.176,0.539,0.225,1.203,0.804c0.059,0.052,0.896,0.79,0.733,1.107
	c-0.137,0.268-0.838-0.06-2.02,0.07c-0.967,0.106-1.868,0.477-1.844,0.647c0.021,0.149,0.745,0.069,1.577,0.204
	c0.95,0.155,1.958,0.578,2.987,1.427c-2.122-0.21-3.77,0.009-4.892,0.251c-2.014,0.436-3.342,1.167-4.423,0.463
	c-0.655-0.427-0.894-1.168-1.042-1.627c-0.366-1.133-0.123-2.167,0.244-3.49c0.126-0.457,0.294-1.018,0.582-1.663
	c0.266-0.596,0.533-1.035,0.705-1.308C541.658,395.526,542.693,393.881,544.038,393.727z M538.001,389.866
	c0.889-0.223,1.622-0.371,2.429-0.054c0.838,0.329,1.212,1.006,1.518,1.589c0.208,0.397,0.34,0.796,0.428,1.189
	c-1.637,0.718-2.926,2.601-3.852,4.474c-0.097-0.078-0.2-0.158-0.309-0.242c-1.094-0.838-3.374-2.195-3.374-2.195
	c-0.467-0.278-1.03-0.611-1.672-0.986c0.428-0.018,1.034-0.07,1.747-0.219c0.66-0.138,1.185-0.249,1.187-0.378
	c0.001-0.143-0.64-0.353-3.655-0.632c1.099-0.475,1.979-0.904,2.584-1.21C536.477,390.469,536.969,390.124,538.001,389.866z
	 M526.485,382.364c1.264-0.911,3.276-0.37,5.096,0.12c0.371,0.1,0.717,0.194,1.168,0.388c0.603,0.259,2.257,0.971,3.207,2.683
	c0.155,0.279,1.351,2.434,0.421,3.922c-0.34,0.544-0.844,0.796-1.852,1.301c-1.069,0.535-2.03,0.806-2.699,0.951
	c1.774-1.77,2.12-2.24,2.06-2.307c-0.066-0.074-0.604,0.375-1.64,0.817c-0.511,0.218-0.954,0.353-1.265,0.436
	c0.053-0.454,0.11-1.099,0.117-1.876c0.006-0.674-0.025-1.517-0.128-1.528c-0.085-0.009-0.177,0.38-0.371,1.057
	c-0.014,0.049-0.022,0.074-0.036,0.121c-0.095,0.325-0.359,0.961-1.036,2.27c-0.08-0.177-0.159-0.354-0.239-0.531
	c0.001,0-0.332-1.077-0.562-1.699c-0.237-0.646-0.67-1.471-0.839-1.442c-0.121,0.021-0.07,0.497,0.006,1.321
	c0.062,0.668,0.148,1.627,0.243,2.809c-0.575-0.425-1.938-1.555-2.519-3.504C525.169,386.169,524.971,383.455,526.485,382.364z
	 M522.799,386.96c0.203,0.081,0.823,0.344,1.483,0.909c1.326,1.135,1.79,2.613,1.96,3.336c-0.134-0.135-0.854-0.838-1.758-0.702
	c-0.662,0.099-1.231,0.619-1.165,0.79c0.049,0.129,0.432-0.009,1.003,0.107c0.517,0.106,0.909,0.363,1.17,0.579
	c-0.41,0.048-1.002,0.179-1.584,0.564c-0.545,0.361-1.005,0.894-0.93,0.996c0.064,0.087,0.477-0.197,1.04-0.384
	c0.637-0.212,1.397-0.277,2.307-0.085c-1.378,0.557-2.326,1.225-2.94,1.738c-1.103,0.921-1.686,1.802-2.582,1.717
	c-0.542-0.052-0.93-0.432-1.17-0.668c-0.593-0.582-0.777-1.298-0.979-2.234c-0.07-0.323-0.148-0.724-0.178-1.216
	c-0.028-0.454-0.006-0.812,0.012-1.036c0.213-2.702,0.32-4.052,1.101-4.583C520.617,386.091,522.243,386.738,522.799,386.96z
	 M499.223,335.894l0.555,1.356c-1.049,1.158-2.736,2.573-5.173,3.328c-1.223,0.38-2.497,0.535-3.793,0.489l-0.687-1.835
	c0.389-0.012,0.776-0.038,1.159-0.079c1.293-0.139,2.569-0.443,3.796-0.904C496.582,337.685,497.967,336.886,499.223,335.894z
	 M498.562,334.278c-1.218,1.031-2.581,1.847-4.071,2.407c-1.605,0.603-3.284,0.883-4.996,0.867l-1.719-4.588
	c0.99-4.866,2.399-9.199,3.912-12.89c0.254-0.158,0.539-0.347,0.838-0.553L498.562,334.278z M492.185,309.444
	c1.917-5.281,5.352-8.436,7.016-9.78c0.209,1.576,0.272,3.484-0.071,5.598c-1.185,7.313-6.358,11.788-8.22,13.252
	C490.777,316.519,490.821,313.202,492.185,309.444z M471,296.002c-0.462-0.276-0.917-0.584-1.353-0.919
	c-1.195-0.917-2.288-2.061-3.342-3.499c-5.562-7.586-5.697-18.053-5.283-23.617c0.091-1.231,0.25-2.49,0.403-3.708
	c0.385-3.062,0.783-6.228,0.205-9.407c-0.143-0.784-0.33-1.473-0.526-2.067c0.436,0.573,0.899,1.254,1.326,2.008
	c0.646,1.139,1.154,2.363,1.522,3.635c-0.213,1.391-0.309,3.088-0.258,4.585c0.135,3.97,1.196,7.89,3.153,11.653
	c0.177,0.34,0.596,0.472,0.935,0.295c0.34-0.177,0.472-0.596,0.295-0.935c-1.861-3.578-2.87-7.299-2.997-11.061
	c-0.06-1.76,0.073-3.306,0.25-4.418c0.28,1.402,0.769,3.337,1.883,5.378c0.912,1.672,1.869,2.722,3.833,4.721
	c3.301,3.358,5.294,5.133,6.75,6.429c1.686,1.5,2.455,2.185,3.492,3.814c0.975,1.53,3.003,4.715,2.688,8.889
	c-0.165,2.191-0.976,4.37-2.331,6.318c-0.328,0.194-0.656,0.387-0.991,0.568c0.306-1.885,0.374-3.778,0.171-5.644
	c-0.806-7.424-5.388-12.443-8.047-14.774c-0.289-0.253-0.727-0.223-0.979,0.064c-0.253,0.288-0.224,0.727,0.064,0.979
	c2.508,2.198,6.827,6.924,7.582,13.881c0.225,2.069,0.107,4.177-0.338,6.268c-0.214,0.096-0.43,0.189-0.646,0.281
	c-0.04-0.54-0.102-1.078-0.212-1.604c-0.347-1.659-1.033-3.221-2.038-4.643c-0.221-0.313-0.655-0.385-0.967-0.166
	c-0.313,0.221-0.387,0.654-0.166,0.967c0.895,1.267,1.506,2.655,1.813,4.127c0.128,0.609,0.194,1.234,0.215,1.862
	c-1.001,0.372-2.022,0.69-3.059,0.949c-0.058-0.019-0.115-0.041-0.174-0.047c-0.081-0.008-0.162,0.016-0.242,0.032
	C472.703,296.88,471.814,296.488,471,296.002z M475.259,299.54l-0.413-1.101c1.726-0.461,3.415-1.065,5.026-1.819
	c0.854-0.399,1.685-0.858,2.501-1.339c0.056-0.023,0.107-0.052,0.157-0.089c0.012-0.007,0.024-0.014,0.036-0.021l0.472,1.154
	c-1.056,0.928-2.239,1.686-3.54,2.233C478.145,299.128,476.72,299.448,475.259,299.54z M475.767,300.899
	c0.07-0.007,0.141-0.006,0.211-0.013c1.396-0.15,2.755-0.501,4.058-1.049c1.292-0.544,2.482-1.27,3.558-2.155l5.801,14.182
	c-0.485,2.969-0.215,5.561,0.163,7.412c-1.067,3.006-2.118,6.553-2.95,10.567L475.767,300.899z M491.072,372.865
	c-0.597-1.461-1.009-2.687-1.25-3.413c-0.905-2.728-1.429-4.973-1.824-6.694c-0.214-0.931-0.689-3.316-1.063-6.657
	c-0.981-8.765-0.206-16.326-0.206-16.326c0.125-1.228,0.289-2.418,0.471-3.591c0.587,1.566,0.934,2.494,0.935,2.495
	c2.228,5.947,4.441,11.9,6.653,17.852c-0.212,0.522-0.428,1.039-0.618,1.598c-3.387,9.969-0.441,18.956,0.878,22.346
	C493.118,377.475,491.873,374.826,491.072,372.865z M505.247,392.583c-1.871-1.504-2.991-2.97-4.096-4.417
	c-1.022-1.338-2.176-3.053-3.262-5.162c1.125-2.31,2.415-5.578,3.173-9.611c1.789,4.794,3.583,9.585,5.392,14.372
	c0.923,2.443,1.871,4.877,2.802,7.317C507.984,394.484,506.609,393.678,505.247,392.583z M538.731,464.667
	c-0.965-2.329-6.931-16.752-13.603-33.487c-8.983-22.533-17.169-44.047-23.579-61.223c0.837-9.054-1.848-16.153-3.412-19.552
	c-0.798,1.121-1.61,2.452-2.368,3.953c-0.36-0.98-0.713-1.94-1.053-2.865l-3.273-8.738c0.4-0.007,0.798-0.029,1.191-0.071
	c0.832-0.09,1.661-0.261,2.464-0.509c2.4-0.743,4.16-2.044,5.37-3.235l5.099,12.467c4.246,11.613,8.476,23.306,12.699,35.036
	c-1.805,1.936-0.894,6.18-0.589,7.588c0.54,2.492,1.483,3.095,1.908,3.299c0.505,0.242,1.002,0.267,1.347,0.249
	c-0.094,0.149-1.065,1.736-0.382,3.324c0.627,1.458,2.244,1.989,2.679,2.125c0.119,0.037,0.208,0.062,0.255,0.075
	c0.271,0.076,0.549,0.124,0.829,0.159c1.466,4.1,2.932,8.204,4.396,12.316c-1.369-0.701-2.886-1.541-4.529-2.562
	c0.398,1.512,1.12,3.659,2.499,5.973c1.665,2.793,3.625,4.715,5.438,6.179c0.609,1.712,1.218,3.423,1.826,5.141
	c4.419,12.495,8.784,24.947,13.106,37.362c-0.241,0.666-0.486,1.329-0.737,1.988c-0.859,2.25-1.806,4.48-2.68,6.734
	C541.994,472.488,540.353,468.583,538.731,464.667z M555.224,498.63c-0.839,0.24-1.782-0.007-2.434-0.642
	c-2.75-6.396-5.478-12.833-8.192-19.285c0.457-1.246,0.929-2.486,1.431-3.714c0.374-0.916,0.713-2.746,1.929-4.705
	c3.033,8.723,6.049,17.432,9.034,26.116C556.903,497.443,556.193,498.348,555.224,498.63z M550.43,449.316
	c-0.25,0.021-0.443,0.009-0.517,0.002c-0.213-0.021-0.836-0.077-1.329-0.5c-0.377-0.323-0.515-0.721-0.61-1.007
	c-0.396-1.191-0.013-2.347,0.178-2.826c0.123,0.291,0.269,0.498,0.38,0.635c0.286,0.351,0.74,0.711,0.835,0.645
	c0.001-0.001,0.002-0.002,0.003-0.003c0.078-0.11-0.261-0.53-0.51-1.012c-0.083-0.162-0.193-0.402-0.283-0.716
	c0.215,0.013,0.489,0.05,0.796,0.142c0.283,0.085,0.516,0.194,0.694,0.293C550.153,445.654,550.227,446.367,550.43,449.316z
	 M550.03,444.647c-0.307-0.132-0.615-0.265-0.922-0.397c0.289-0.017,0.579-0.034,0.868-0.051
	C549.994,444.348,550.012,444.498,550.03,444.647z M549.908,443.627c0.005,0.039,0.007,0.066,0.009,0.089
	c0.005,0.057,0.015,0.141,0.036,0.248c-0.127-0.003-0.277-0.015-0.442-0.045c-0.161-0.03-0.302-0.07-0.421-0.112
	c0.262-0.117,0.525-0.233,0.787-0.35C549.886,443.495,549.899,443.554,549.908,443.627z M549.851,443.205
	c-0.293,0.085-0.585,0.171-0.878,0.256c0.264-0.296,0.529-0.592,0.793-0.888C549.795,442.778,549.823,442.99,549.851,443.205z
	 M549.752,442.462c-0.168,0.101-0.362,0.204-0.582,0.301c-0.266,0.118-0.515,0.202-0.735,0.264c0.074-0.204,0.171-0.529,0.198-0.938
	c0.023-0.362-0.014-0.711-0.06-0.716c-0.04-0.004-0.083,0.178-0.174,0.495c-0.007,0.026-0.011,0.038-0.019,0.062
	c-0.045,0.152-0.167,0.448-0.483,1.058c-0.037-0.083-0.075-0.166-0.112-0.249c0,0-0.156-0.504-0.263-0.796
	c-0.111-0.303-0.314-0.689-0.393-0.675c-0.025,0.004-0.061,0.061,0.003,0.618c0.037,0.324,0.102,0.761,0.222,1.281
	c-0.664-0.362-0.892-0.636-0.972-0.827c-0.01-0.023-0.047-0.129-0.145-0.36c-0.084-0.199-0.12-0.264-0.171-0.42
	c-0.235-0.711-0.28-2.011,0.406-2.487c0.339-0.235,0.742-0.188,1.55-0.096c0.29,0.033,0.678,0.093,1.142,0.25
	C549.374,440.141,549.573,441.208,549.752,442.462z M545.458,443.308c0.171,0.047,0.297,0.137,0.38,0.209
	c-0.146,0.06-0.354,0.16-0.574,0.326c-0.229,0.174-0.47,0.419-0.435,0.467c0.029,0.04,0.226-0.093,0.487-0.18
	c0.297-0.099,0.653-0.13,1.08-0.04c-0.646,0.261-1.089,0.574-1.377,0.814c-0.517,0.431-0.79,0.844-1.209,0.804
	c-0.254-0.024-0.436-0.203-0.548-0.313c-0.278-0.273-0.364-0.608-0.458-1.047c-0.033-0.151-0.069-0.339-0.083-0.569
	c-0.013-0.213-0.003-0.38,0.005-0.485c0.1-1.265,0.15-1.898,0.516-2.146c0.482-0.327,1.244-0.024,1.504,0.08
	c0.095,0.038,0.385,0.161,0.694,0.426c0.621,0.532,0.838,1.224,0.918,1.563c-0.062-0.063-0.4-0.392-0.823-0.329
	c-0.316,0.047-0.576,0.298-0.546,0.37C545.012,443.313,545.196,443.235,545.458,443.308z M544.367,446.463
	c0.453-1.27,1.839-1.791,2.183-1.91c-0.68,0.893-0.767,1.13-0.717,1.178c0.026,0.024,0.104,0.015,0.886-0.491
	c0.306-0.198,0.555-0.365,0.725-0.481c0.023,0.248,0.055,0.638,0.069,1.12c0.05,1.686-0.185,2.004-0.335,2.151
	c-0.194,0.19-0.408,0.273-0.691,0.346c-0.239,0.061-0.76,0.198-1.359,0.015c-0.235-0.072-0.559-0.195-0.765-0.513
	C544.039,447.381,544.268,446.738,544.367,446.463z M547.602,434.452c0.844,1.612,1.24,3.119,1.437,4.257
	c-0.315-0.117-1.785-0.627-2.789,0.123c-0.143,0.107-0.242,0.215-0.296,0.28c-0.137,0.195-0.367,0.577-0.45,1.114
	c-0.071,0.458-0.005,0.834,0.052,1.055c-0.154-0.113-0.379-0.257-0.671-0.377c-0.164-0.067-1.211-0.496-1.918-0.144
	c-1.299,0.648-0.671,3.548-0.619,3.78c0.241,1.071,0.674,1.411,0.893,1.545c0.228,0.139,0.452,0.193,0.608,0.217
	c-0.052,0.088-0.443,0.771-0.157,1.457c0.284,0.681,1.053,0.932,1.254,0.995c0.056,0.017,0.098,0.029,0.12,0.035
	c0.432,0.121,0.829,0.1,1.062,0.07c0.073-0.009,0.124-0.018,0.194-0.031c0.27-0.049,0.657-0.139,1.132-0.318
	c0.253,0.409,0.548,0.649,0.733,0.777c0.459,0.318,0.902,0.416,1.232,0.457c0.347,0.043,0.691,0.058,1.027,0.038
	c0.042,1.545-0.001,3.2-0.197,5.092c-0.357,3.454-1.219,6.857-2.305,10.187c-4.114-11.809-8.255-23.613-12.393-35.321
	c-0.322-0.912-0.647-1.823-0.971-2.733c0.002,0.001,0.004,0.003,0.006,0.004c4.168,2.94,8.346,4.494,11.67,5.338
	C546.7,432.926,547.169,433.625,547.602,434.452z M559.536,425.218c-1.017,1.25-2.789,1.454-3.71,1.539
	c-2.733,0.253-4.853-1.1-5.3-1.393c-0.5-0.332-2.02-1.359-2.895-3.246c-1.097-2.363-0.434-4.495-0.205-5.216
	c0.551-1.741,1.432-2.901,2.029-3.612c1.029-1.225,2.118-1.995,2.873-2.448c-0.39,1.122-0.358,2.01-0.292,2.529
	c0.18,1.403,0.982,2.995,1.348,2.937c0.004-0.001,0.009-0.002,0.014-0.004c0.375-0.174,0.045-1.801,0.056-3.47
	c0.004-0.558,0.049-1.364,0.25-2.346c1.144,0.998,2.771,2.641,4.127,5.042C558.594,416.884,561.758,422.487,559.536,425.218z
	 M566.487,420.606c-1.028,1.091-2.329,2.471-3.447,2.145c-0.822-0.24-0.755-1.171-2.015-3.883c-0.67-1.442-1.389-2.639-2.826-5.034
	c-0.594-0.989-1.105-1.801-1.468-2.366c0.68,0.065,1.62,0.221,2.673,0.623c0.848,0.324,1.39,0.662,1.452,0.571
	c0.094-0.138-1.033-1.087-1.916-1.744c-0.915-0.681-1.728-1.17-2.305-1.491c4.07-0.277,7.002,0.117,8.746,0.462
	c1.118,0.221,2.266,0.561,3.122,1.548c0.845,0.975,0.87,2.084,0.872,3.028C569.379,417.508,567.391,419.648,566.487,420.606z"/>
</svg>
