<?xml version="1.0" encoding="iso-8859-1"?>
<!-- Generator: Adobe Illustrator 27.5.0, SVG Export Plug-In . SVG Version: 6.00 Build 0)  -->
<svg version="1.1" id="A." xmlns="http://www.w3.org/2000/svg" xmlns:xlink="http://www.w3.org/1999/xlink" x="0px" y="0px"
	 viewBox="0 0 1000 750" style="enable-background:new 0 0 1000 750;" xml:space="preserve">
<path d="M568.47,476.09c-2.387-0.994-4.44-1.595-5.925-1.967c-3.968-0.993-7.593-1.9-11.591-0.609
	c-1.682,0.543-2.967,1.326-3.817,1.935c-0.14,0.1-0.325,0.077-0.434-0.056c-0.173-0.213-0.407-0.471-0.708-0.736
	c-0.75-0.66-1.11-0.65-1.154-0.949c-0.091-0.61,1.33-0.986,2.231-2.41c0.776-1.227,0.327-1.657,1.099-2.917
	c0.825-1.348,1.976-1.496,2.355-2.483c0.113-0.294,0.194-0.766-0.056-1.484c-0.054-0.156,0.007-0.329,0.151-0.409
	c2.339-1.296,3.912-2.684,4.911-3.701c2.348-2.391,2.98-4.223,5.892-8.163c1.262-1.708,2.402-3.068,3.22-4.002
	c0.151-0.173,0.078-0.448-0.138-0.526c-1.692-0.61-3.198-0.86-4.405-0.954c-5.663-0.436-12.248,2.018-15.514,7.18
	c-0.606,0.958-1.008,1.867-1.273,2.592c-0.103,0.283-0.506,0.285-0.612,0.003c-0.155-0.412-0.376-0.908-0.726-1.535
	c-1.019-1.825-1.38-1.618-1.728-2.664c-0.841-2.529,0.938-4.736,0.164-5.31c-0.547-0.406-1.401,0.721-3.256,0.604l-0.08-0.005
	c-0.485-1.598-0.501-1.651-0.986-3.248c0.299-0.231,0.598-0.463,0.896-0.694c0.048-0.021,0.091-0.041,0.139-0.062
	c2.165-0.387,5.692-1.305,9.389-3.709c2.926-1.902,4.927-4.064,6.193-5.69c0.163-0.209,0.029-0.515-0.236-0.531
	c-2.385-0.141-9.853-0.144-14.286,5.233c-1.089,1.321-1.805,2.736-2.275,4.085c0.167-1.337,0.34-2.621,0.516-3.849
	c0.107-0.747,0.242-1.616,0.497-2.761c0.022-0.1,0.06-0.263,0.105-0.445c0.177-0.714,0.479-1.732,1.013-2.992
	c0.021-0.032,0.04-0.062,0.061-0.094c1.24-1.298,3.322-3.83,4.511-7.622c1.395-4.449,0.827-8.29,0.377-10.244
	c-0.052-0.224-0.308-0.327-0.498-0.197c-0.935,0.638-2.311,1.786-3.341,3.638c-0.679,1.22-0.996,2.365-1.153,3.208
	c-0.157-0.866-0.373-1.553-0.549-2.034c-0.451-1.236-1.062-2.295-1.527-3.107c-0.014-0.054-0.026-0.102-0.04-0.156
	c0.025-4.918,0.077-9.836,0.047-14.752c-0.043-7.051-1.168-14.252-5.2-20.2c-0.839-1.238-1.737-2.434-2.643-3.623
	c-0.026-0.034-0.093-0.114-0.183-0.221c0.43-0.56,2.338-3.175,1.972-6.904c-0.189-1.925-0.915-3.442-1.648-4.525
	c-0.81-1.195-2.173-1.894-3.616-1.899c-2.786-0.01-5.572-0.02-8.358-0.029l10.945-42.587c0-0.001,0-0.001,0-0.002l8.057-31.349
	c0.756-0.35,1.472-0.762,2.117-1.248c0.358-0.269,0.706-0.564,1.036-0.879c0.897-0.855,1.687-1.879,2.414-3.132
	c2.771-4.775,3.55-11.485,2.193-18.895c-0.173-0.944-0.396-1.891-0.613-2.807c-0.541-2.295-1.053-4.462-0.886-6.738
	c0.095-1.298,0.406-2.266,0.593-2.844c0.176-0.547,0.342-1.063-0.143-1.31c-0.15-0.076-0.326-0.086-0.497-0.024
	c-0.672,0.241-1.892,2.146-2.567,3.703c-0.22,0.507-0.409,1.028-0.566,1.56c-0.05-0.069-0.101-0.13-0.152-0.173
	c-0.186-0.158-0.368-0.176-0.493-0.166c-0.589,0.055-0.632,0.637-0.697,1.519c-0.074,1.008-0.198,2.695-0.957,4.527
	c-0.473,1.141-1.003,1.902-2.355,3.608c-2.189,2.763-3.531,4.243-4.511,5.324c-1.177,1.298-1.767,1.949-2.48,3.387
	c-0.66,1.331-2.033,4.099-1.396,7.555c0.272,1.479,0.898,2.909,1.819,4.198c-0.01,0.016-0.025,0.026-0.034,0.043
	c-0.007,0.015-0.007,0.031-0.013,0.047c-0.006,0.015-0.018,0.027-0.022,0.043l-19.39,67.061l5.974-64.814
	c0.504-0.287,0.774-0.869,0.639-1.442c-0.04-0.169-0.113-0.323-0.211-0.457c0.443-1.117,0.893-2.44,1.253-4.006
	c0.536-2.335,0.596-4.22,0.694-7.894c0.153-5.752-0.238-8.336-1.1-8.516c-0.475-0.099-1.131,0.523-1.497,0.216
	c-0.283-0.237-0.064-0.768-0.298-0.886c-0.343-0.171-0.971,0.879-1.539,0.708c-0.287-0.086-0.261-0.394-0.583-0.473
	c-0.405-0.099-0.612,0.345-1.017,0.269c-0.421-0.079-0.489-0.612-0.787-0.617c-0.369-0.007-0.66,0.802-0.694,0.897
	c-2.175,6.043-3.715,7.161-3.999,12.139c-0.172,3.014,0.224,5.642,0.771,7.785c-0.164,0.183-0.275,0.408-0.308,0.665
	c-0.036,0.311,0.039,0.623,0.218,0.902c0.051,0.079,0.118,0.144,0.186,0.21l-2.693,24.611c0,0.001,0,0.003,0,0.004l-4.697,42.923
	l0.127-78.153c0.106-0.072,0.205-0.155,0.288-0.254c0.234-0.282,0.36-0.615,0.363-0.982c-0.002-0.411-0.191-0.798-0.518-1.063
	c-0.043-0.035-0.093-0.059-0.139-0.088c1.783-2.719,2.51-5.28,2.135-7.614c-0.176-1.101-0.541-1.862-1.002-2.826
	c-0.327-0.684-0.698-1.46-1.109-2.567c-0.742-1.997-1.239-4.088-1.487-6.216c0.22-0.63,0.424-1.346,0.594-2.221
	c0.316-1.623,0.707-4.373-0.224-4.556c-0.503-0.098-0.687,0.345-0.902,0.858c-0.147,0.351-0.349,0.833-0.665,1.386
	c-0.603,1.056-1.249,1.723-1.676,2.164l-0.12,0.124c-1.936,2.018-3.596,4.902-4.062,5.744c-0.911,1.646-3.044,5.501-2.122,10.085
	c0.363,1.805,1.156,3.495,2.352,5.036c-0.27,0.164-0.492,0.409-0.609,0.722c-0.259,0.694,0.05,1.475,0.737,1.827
	c0.002,0.001,0.003,0.001,0.005,0.002l-2.46,85.838c-1.027-0.004-2.055-0.007-3.082-0.011l-11.847-86.239
	c-0.004-0.03-0.02-0.054-0.029-0.082c0.129-0.139,0.263-0.347,0.259-0.64c-0.007-0.46-0.36-0.855-0.84-0.938l-0.091-0.016
	l-0.089,0.029c-0.486,0.158-0.98,0.29-1.477,0.409c0.095-0.607,0.143-1.097,0.167-1.395c0.092-1.174,0.081-3.241-1.339-10.444
	c-0.962-4.799-1.52-7.586-2.468-11.384c-0.826-3.277-1.637-6.558-2.453-9.838c-0.143-0.574-1.278-6.636-1.907-6.563
	c-1.001,0.115-0.147,5.819-0.103,6.478c0.127,1.929,0.231,3.864,0.274,5.8c0.057,2.613,0,5.228-0.272,7.829
	c-0.613,7.063-1.081,13.37,2.329,18.405c0.475,0.701,0.934,1.243,1.289,1.631c-0.351,0-0.703,0.004-1.053-0.014
	c-0.518-0.023-0.977,0.31-1.072,0.787c-0.023,0.113-0.026,0.227-0.009,0.339c0.037,0.243,0.157,0.416,0.273,0.538
	c-0.004,0.038-0.014,0.074-0.009,0.113l9.202,76.875l-9.537-29.922c0.04-0.166,0.007-0.347-0.119-0.481
	c-0.013-0.014-0.03-0.019-0.044-0.031l-0.555-1.74c0.034-0.153,0.007-0.317-0.1-0.446c-0.016-0.02-0.039-0.029-0.057-0.046
	l-9.464-29.694c-0.005-0.017-0.018-0.028-0.024-0.044c0.108-0.184,0.181-0.414,0.132-0.667c-0.04-0.204-0.157-0.376-0.308-0.512
	c0.429-1.341,0.714-2.726,0.845-4.116c0.171-1.816-0.002-3.008-0.263-4.814c-0.092-0.634-0.195-1.347-0.299-2.196
	c-0.15-1.227-0.28-2.403-0.398-3.48c-0.545-4.957-0.707-6.128-1.584-6.14c-0.053-0.001-0.099,0.004-0.144,0.013
	c-0.044-0.019-0.088-0.04-0.138-0.045c-0.334-0.039-0.646-0.134-0.926-0.28c-0.258-0.134-0.386-0.258-0.51-0.377
	c-0.154-0.148-0.345-0.332-0.677-0.405c-0.622-0.133-1.036,0.248-1.368,0.556c-0.266,0.246-0.541,0.501-0.977,0.649
	c-0.393,0.135-0.64,0.085-0.952,0.025c-0.375-0.073-0.842-0.164-1.491,0.095c-0.613,0.245-0.885,0.596-1.104,0.878
	c-0.181,0.234-0.282,0.363-0.569,0.448c-0.33,0.097-0.58,0.033-0.897-0.048c-0.401-0.103-0.9-0.232-1.495,0.066
	c-0.45,0.225-0.615,0.527-0.735,0.747c-0.086,0.157-0.129,0.236-0.279,0.321c-0.294,0.166-0.592,0.104-1.055-0.012
	c-0.499-0.125-1.119-0.282-1.748,0.094c-0.42,0.251-0.562,0.572-0.676,0.831c-0.094,0.213-0.168,0.381-0.423,0.578
	c-0.295,0.228-0.552,0.272-0.876,0.328c-0.229,0.039-0.49,0.084-0.772,0.198c-1.005,0.408-1.732,1.487-2.162,3.208l-0.049,0.195
	l0.094,0.178c0.782,1.478,1.619,2.941,2.487,4.35c1.293,2.099,2.794,4.057,3.956,5.529c0.83,1.05,1.771,2.241,2.786,3.361
	c0.099,0.109,0.202,0.226,0.308,0.347c0.793,0.905,1.78,2.031,3.127,2.112c0.047,0.003,0.095,0.004,0.142,0.004
	c0.007,0,0.014-0.002,0.021-0.002c0.008,0.042,0.006,0.085,0.019,0.125c0.128,0.377,0.431,0.55,0.576,0.616
	c-0.004,0.062-0.001,0.125,0.019,0.188l0.423,1.371c0.008,0.064,0.026,0.124,0.055,0.179l20.417,66.165
	c-3.995-0.014-7.991-0.028-11.986-0.042c-2.269-0.008-4.367,1.33-5.2,3.441c-0.395,1.002-0.671,2.197-0.64,3.56
	c0.067,2.921,1.507,4.963,2.205,5.802c0.028,0.204,0.058,0.422,0.085,0.626c-0.53,1.137-0.977,1.931-1.055,2.05
	c-4.892,7.353-6.665,15.459-6.95,24.288c-0.638,19.803-1.64,39.588,1.379,59.286c1.725,11.26,6.34,20.539,15.523,26.218
	c0.104,0.064,0.161,0.178,0.151,0.299c-0.022,0.264-0.028,0.546-0.006,0.848c0.023,0.331,0.076,0.639,0.141,0.952
	c-1.097-1.05-2.933-2.534-5.56-3.572c-3.72-1.469-7.072-1.269-8.893-1.002c-0.23,0.034-0.352,0.29-0.233,0.49
	c1.111,1.875,3.14,4.664,6.55,6.889c1.246,0.813,2.457,1.407,3.549,1.846c0.305,0.122,0.254,0.562-0.068,0.626
	c-0.432,0.086-0.881,0.193-1.344,0.324c-2.298,0.652-4.104,1.677-5.406,2.597c-0.19,0.134-0.178,0.422,0.02,0.544
	c1.477,0.91,5.09,2.772,9.54,1.997c1.973-0.344,3.515-1.102,4.564-1.752c0.057,0.086,0.113,0.17,0.17,0.251
	c0.197,0.284,0.221,0.307,0.309,0.47c0.363,0.669,0.444,1.15,0.623,1.81c0.421,1.546,0.731,2.685,1.562,3.556
	c0.094,0.099,0.764,0.518,2.1,1.354c1.047,0.655,1.578,0.986,1.94,1.182c1.367,0.743,2.05,1.114,2.629,1.158
	c0.508,0.039,1.02-0.033,1.422,0.341c0.22,0.205,0.219,0.368,0.471,0.68c0.282,0.35,0.602,0.54,1.066,0.774
	c1.188,0.599,1.783,0.899,2.555,1.076c0.632,0.145,2.374,0.521,4.243-0.204c1.333-0.517,1.141-0.979,2.588-1.599
	c1.773-0.759,2.13-0.097,3.763-0.864c0.538-0.252,1.946-0.913,2.815-2.31c0.281-0.451,0.412-0.829,0.913-1.43
	c0.648-0.776,0.857-0.657,1.384-1.308c0.643-0.796,1.005-1.81,1.169-2.266c0.192-0.538,0.251-0.853,0.573-1.118
	c0.409-0.337,0.841-0.262,1.198-0.333c1.211-0.239,2.004-2.241,2.255-3.465c0.097-0.473,0.105-0.957,0.086-1.445
	c0.385,0.704,1.026,1.56,2.12,3.017c1.344,1.789,1.714,1.995,2.036,2.105c1.112,0.382,2.257-0.158,4.152-1.052
	c1.906-0.899,1.74-1.199,2.665-1.384c1.853-0.37,2.441,0.849,4.524,0.647c1.262-0.122,2.151-0.653,3.106-1.241
	c0.09-0.056,0.172-0.113,0.258-0.17c0.567,0.902,1.39,2.072,2.528,3.309c2.38,2.589,4.833,4.054,6.196,4.77
	c2.86,1.503,5.505,2.115,7.345,2.382c0.222,0.032,0.406-0.163,0.367-0.383c-0.571-3.2-2.398-10.45-8.615-14.389
	c-0.684-0.434-1.456-0.849-2.323-1.216c-0.187-0.079-0.26-0.303-0.155-0.477c0.152-0.253,0.283-0.505,0.4-0.774
	c0.774-1.774,0.713-3.145,1.167-3.18c0.446-0.034,0.439,1.569,1.727,2.643c1.61,1.342,4.291,1.01,5.609,0.846
	c0.426-0.053,0.787-0.121,1.057-0.18c0.096-0.021,0.186,0.002,0.262,0.064c0.359,0.298,0.851,0.659,1.479,0.991
	c0,0,0.622,0.352,1.31,0.561c0.384,0.117,3.956,1.152,7.035-0.468c1.186-0.624,2.171-1.191,2.814-1.738
	c0.944-0.803,1.594-1.634,2.021-2.278c0.059-0.09,0.152-0.139,0.26-0.141c0.691-0.014,1.936-0.148,3.14-0.936
	c0.954-0.625,1.718-1.563,1.914-2.325c0.056-0.22,0.116-0.581-0.227-1.538c-0.071-0.198,0.062-0.412,0.27-0.441
	c2.467-0.345,4.602-0.861,6.369-1.392c1.594-0.479,2.955-0.895,4.578-1.72c1.447-0.736,3.33-1.915,5.242-3.82
	C568.748,476.475,568.688,476.181,568.47,476.09z M542.243,436.5c3.86-2.432,7.75-2.074,8.886-1.927
	c-1.206,1.356-3.135,3.21-5.913,4.794c-3.136,1.789-6.05,2.49-7.943,2.792C537.802,441.027,539.214,438.408,542.243,436.5z
	 M538.767,424.461c0.328-3.941,2.39-6.677,3.369-7.817c0.186,1.288,0.332,3.445-0.309,5.988c-0.69,2.736-1.976,4.666-2.796,5.718
	C538.806,427.319,538.64,425.99,538.767,424.461z M545.316,455.858c0,0,1.622-2.776,4.483-4.792
	c5.157-3.634,11.59-2.815,12.812-2.639c-0.538,0.425-1.329,1.093-2.193,2.002c-1.273,1.34-1.757,2.207-3.204,4.367
	c-3.241,4.839-4.511,6.012-5.38,6.713c-0.85,0.686-1.614,1.162-2.124,1.455c-0.528-0.499-1.167-1.031-1.928-1.544
	c-1.466-0.989-2.876-1.565-3.982-1.911C544.049,458.572,544.492,457.269,545.316,455.858z M535.599,450.712
	c-0.187,1.046-0.14,2.118,0.035,2.152c0.225,0.044,0.333-1.685,1.678-2.955c0.53-0.501,1.547-1.209,2.008-0.909
	c0.738,0.48-1.089,2.813-0.07,4.787c0.589,1.141,1.563,1.068,2.445,2.746c0.349,0.664,0.791,1.506,0.459,2.038
	c-0.524,0.837-2.258-0.242-4.221,0.668c-0.471,0.218-0.674,0.421-2.433,2.294c-1.49,1.587-2.581,2.76-2.836,3.032
	c-2.533,2.709-2.82,2.446-4.312,4.164c-2.393,2.756-3.275,5.298-3.467,5.207c-0.16-0.076,0.576-1.792,1.558-4.757
	c0.421-1.273,1.747-5.276,1.451-5.396c-0.221-0.09-1.322,2.002-2.025,3.56c-0.889,1.971-1.081,2.956-1.227,2.925
	c-0.277-0.057-0.232-3.732,1.241-7.579c1.162-3.037,2.694-4.823,2.515-4.95c-0.186-0.132-1.953,1.72-3.411,4.104
	c-1.085,1.774-1.403,2.868-1.558,2.818c-0.29-0.094,0.44-4.066,2.176-8.094c1.617-3.751,3.217-5.487,3.857-6.138
	c0.931-0.945,3.176-3.226,5.058-2.663c0.094,0.028,1.112,0.347,1.368,1.137C536.052,449.408,535.779,449.712,535.599,450.712z
	 M479.61,476.391c-0.697,1.222-1.794,1.895-2.987,2.628c-0.3,0.185-0.542,0.313-0.646,0.366c-0.318,0.163-0.735,0.355-1.24,0.54
	c-0.346-0.072-0.697-0.119-1.058-0.121c-0.706-0.005-1.701,0.257-2.06,0.758c-0.017,0.023-0.035,0.042-0.052,0.065
	c-0.427,0.041-0.882,0.06-1.362,0.047c-2.539-0.07-4.566-1.011-5.872-1.807c2.612-0.88,3.874-1.402,4.539-1.724
	c0.194-0.094,0.933-0.443,1.974-0.836c0.212-0.08,0.446-0.161,0.733-0.249c0.439-0.135,1.553-0.464,3.316-0.673
	c2.157-0.255,4.194-0.206,5.193-0.162C479.947,475.747,479.756,476.136,479.61,476.391z M481.05,478.38
	c0.28,0.147,2.351,1.279,3.005,3.634c0.318,1.144,0.284,2.516-0.097,2.634c-0.468,0.144-1.084-1.176-1.324-1.475
	c-0.958-1.185-2.303-1.943-3.819-2.101c-1.12-0.117-2.162-0.589-3.231-0.922c1.035-0.411,2.543-1.112,3.935-2.295
	C480.114,477.984,480.577,478.13,481.05,478.38z M470.748,481.443c-0.476,0.349-1.008,0.579-1.59,0.782
	c-0.265,0.092-0.377,0.128-0.655,0.253c-0.457,0.205-0.528,0.301-0.645,0.267c-0.274-0.078-0.411-0.744-0.337-1.386
	C468.669,481.548,469.761,481.546,470.748,481.443z M467.56,484.2c0.672-0.431,1.42-0.792,2.178-1.014
	c0.873-0.256,1.53-0.594,2.058-1.447c0.164-0.265,0.37-0.443,0.599-0.566c0.305-0.068,0.59-0.142,0.857-0.217
	c0.398-0.019,0.815,0.038,1.207,0.11c0.552,0.102,1.048,0.463,1.586,0.663c0.466,0.174,0.986,0.474,1.431,0.392
	c0.594-0.109,1.136-0.106,1.636-0.016c1.295,0.234,2.491,1.199,3.453,2.247c2.266,2.468,3.261,5.512,2.989,5.669
	c-0.142,0.082-0.708-0.589-1.51-1.542c-0.562-0.667-0.585-0.776-0.878-1.115c-0.909-1.048-1.981-1.45-3.78-2.146
	c-1.03-0.398-1.399-0.437-1.767-0.371c-0.474,0.085-0.584,0.277-1.43,0.542c-0.162,0.051-0.417,0.127-1.319,0.299
	c-0.794,0.151-1.269,0.187-1.804,0.316c-0.328,0.079-2.373,0.601-3.698,2.383c-0.236,0.317-0.929,1.249-1.117,2.453
	c-0.016,0.105-0.046,0.317-0.129,0.873c-0.226,1.512-0.268,1.658-0.401,1.725c-0.406,0.206-1.212-0.542-1.637-1.163
	c-0.073-0.106-0.407-0.38-0.462-0.954c-0.115-1.185-0.23-2.38-0.199-3.571C465.464,486.199,466.288,485.016,467.56,484.2z
	 M478.46,496.582c0.012,0.33,0.052,0.877-0.181,1c-0.239,0.126-0.591-0.252-1.184-0.71c-1.426-1.101-2.008-0.939-2.071-1.381
	c-0.108-0.757,1.938-2.252,3.688-3.258c0.28-0.161,0.463-0.259,0.589-0.182C479.749,492.323,478.369,494.125,478.46,496.582z
	 M470.076,493.935c-0.265,0.184-0.746,0.017-1.004-0.22c-0.553-0.508-0.328-1.564-0.159-2.354c0.074-0.349,0.071-0.18,0.283-0.956
	c0.234-0.854,0.351-1.47,0.782-1.755c0.093-0.061,0.199-0.108,0.199-0.108c0.264-0.1,0.55-0.035,1.664-0.246
	c0.568-0.108,0.909-0.203,1.539-0.245c0.974-0.065,1.081,0.102,1.105,0.165c0.043,0.113-0.039,0.268-0.134,0.352
	c-0.175,0.155-0.405,0.076-0.674,0.071c-0.693-0.012-1.237,0.48-1.349,0.581c-0.066,0.06-0.408,0.377-0.594,0.909
	c-0.243,0.693,0.018,1.068-0.247,1.315c-0.303,0.283-0.749-0.112-1.086,0.124C469.819,491.976,470.622,493.555,470.076,493.935z
	 M476.056,490.081c0.564,0.782,1.251,0.725,1.259,1.061c0.011,0.451-1.208,1.17-2.17,0.82c-0.391-0.142-0.885-0.514-0.887-0.956
	c-0.001-0.238,0.141-0.263,0.729-1.126c0.277-0.406,0.353-0.558,0.493-0.559C475.697,489.319,475.767,489.68,476.056,490.081z
	 M475.906,488.027c0.272-0.25,1.277,0.476,1.664,0.791c0.726,0.591,1.579,1.609,1.353,1.932c-0.2,0.285-1.236,0.018-1.941-0.538
	C476.094,489.512,475.633,488.277,475.906,488.027z M473.904,492.252c-0.133,0.162-0.655,0.019-0.991-0.273
	c-0.5-0.435-0.482-1.119-0.49-1.2c-0.071-0.714,0.818-1.73,1.45-1.74c0.181-0.002,0.487,0.103,0.513,0.217
	c0.05,0.211,0,0.506-0.121,0.694c-0.485,0.754-0.592,0.865-0.635,1.241C473.568,491.753,474.047,492.077,473.904,492.252z
	 M471.111,492.412c0.205-0.15,0.435-0.002,1.246,0.214c0.896,0.239,1.344,0.356,1.852,0.315c0.57-0.046,1.135-0.229,1.7-0.551
	c0.143-0.081,0.413-0.219,0.818-0.393c0.548-0.235,0.822-0.353,0.882-0.278c0.128,0.16-0.472,1.196-1.428,1.664
	c-0.305,0.149-0.543,0.19-0.877,0.465c-0.359,0.296-0.417,0.523-0.639,0.786c-0.422,0.499-1.257,0.911-2.086,0.735
	c-1.057-0.224-1.467-1.266-1.521-1.412C470.881,493.483,470.76,492.668,471.111,492.412z M477.33,487.871
	c-2.263-1.438-5.164-0.325-5.207-0.635c-0.03-0.214,1.351-0.773,2.652-0.976c0.165-0.026,0.329-0.055,0.493-0.087
	c0.672-0.129,0.795-0.163,1.136-0.224c0.891-0.16,1.346-0.235,1.782-0.01c0.196,0.101,0.318,0.222,0.406,0.31
	c0.227,0.228,0.459,0.61,0.664,1.431c0.13,0.519,0.364,1.098,0.736,1.444c0.685,0.637,0.609,0.783,0.725,1.148
	c0.324,1.019-0.318,2.29-0.606,2.261c-0.206-0.021-0.134-0.697-0.394-1.573C479.244,489.369,478.029,488.315,477.33,487.871z
	 M480.426,488.445c-0.061-0.091-0.179-0.345-0.414-0.854c-0.448-0.968-0.67-1.453-0.602-1.526c0.224-0.236,1.788,0.799,3.096,2.046
	c1.103,1.051,2.248,2.467,2.054,2.687c-0.119,0.135-0.586-0.352-2.188-1.105C481.402,489.237,480.848,489.076,480.426,488.445z
	 M467.991,495.171c0.136-0.172,0.726,0.02,3.296,1.055c0.315,0.127,0.375,0.152,0.477,0.209c0.702,0.396,0.758,0.857,1.557,1.921
	c0.484,0.645,0.726,0.967,1.111,1.357c0.332,0.337,0.532,0.489,0.486,0.601c-0.095,0.229-1.116,0.051-1.804-0.146
	c-0.938-0.269-1.574-0.664-2.145-1.024c0,0-1.625-1.026-2.316-2.111c-0.213-0.334-0.344-0.662-0.344-0.662
	c-0.079-0.199-0.109-0.361-0.195-0.624C467.979,495.332,467.937,495.241,467.991,495.171z M474.118,497.45
	c-0.011-0.08-0.112-0.877,0.232-1.054c0.539-0.278,1.845,1.142,1.997,1.308c0.755,0.822,0.841,1.288,1.388,1.387
	c0.238,0.043,0.581-0.046,1.273-0.202c1.3-0.294,1.795-0.674,1.87-0.564c0.129,0.188-1.461,2.516-3.251,2.344
	c-0.59-0.057-1.06-0.44-2.002-1.207C474.898,498.868,474.236,498.313,474.118,497.45z M479.459,497.219
	c-0.256-0.206-0.252-0.666-0.241-1.567c0.011-0.916,0.022-1.382,0.292-1.764c0.314-0.444,0.597-0.331,1.033-0.714
	c0.949-0.835,0.401-2.073,1.101-2.544c0.792-0.533,2.543,0.347,2.527,0.982c-0.005,0.218-0.214,0.248-0.57,0.634
	c-0.576,0.625-0.796,1.375-1.175,2.67c-0.042,0.144-0.155,0.541-0.409,1.008c-0.058,0.108-0.143,0.259-0.273,0.44
	c-0.188,0.262-0.379,0.624-0.788,0.766C480.206,497.391,479.729,497.436,479.459,497.219z M482.527,497.49
	c0.028-0.688,0.117-1.22,0.171-1.53c0.18-1.025,0.269-1.537,0.379-1.767c0.189-0.395,0.498-0.8,1.248-1.463
	c0.493-0.436,0.745-0.656,1.023-0.756c0.188-0.068,0.731-0.264,0.934-0.042c0.25,0.273-0.139,1.04-0.655,2.038
	c-0.261,0.505-0.312,0.54-0.68,1.194c-0.669,1.188-0.843,1.68-1.452,2.543c-0.646,0.916-0.813,0.878-0.851,0.864
	C482.488,498.512,482.501,498.106,482.527,497.49z M486.699,493.679c0.227-0.804,0.521-1.892,0.283-3.221
	c-0.162-0.91-0.415-1.041-0.722-2.314c-0.245-1.018-0.328-1.924-0.273-3.064c0.054-1.123,0.654-2.083,1.562-2.788
	c0.703-0.546,1.359-0.684,1.811-0.43c0.26,0.146,0.36,0.39,0.618,1.411c0.289,1.139,0.631,2.296,0.653,3.504
	c0.031,1.681-0.487,3.413-1.544,4.772c-0.085,0.109-0.171,0.22-0.256,0.336c-0.65,0.878-0.593,2.164-0.792,3.176
	c-0.173,0.88-0.26,1.32-0.573,1.779c-0.011,0.016-0.025,0.036-0.041,0.058c-0.48,0.646-1.11,0.914-1.48,1.078
	c-1.531,0.676-1.843,1.072-1.972,0.942C483.672,498.614,485.799,496.873,486.699,493.679z M488.611,479.442
	c-0.814-0.093-1.561,0.616-1.682,0.735c-0.379,0.374-0.448,0.686-0.695,0.683c-0.337-0.004-0.58-0.586-0.794-0.978
	c-0.688-1.258-1.827-1.94-2.431-2.302c-0.77-0.461-1.601-0.707-2.305-0.84c0.563-0.543,1.13-1.082,1.665-1.653
	c1.008,0.145,2.021,0.225,3.053,0.21c0.631-0.01,1.176,0.221,1.652,0.574c-0.045,1.399,0.84,2.483,1.025,2.71
	c0.763,0.933,1.216,0.663,2.5,1.643c0.787,0.6,1.083,1.056,1.404,1.52c-0.269-0.128-0.539-0.254-0.797-0.4
	C490.307,480.834,489.694,479.567,488.611,479.442z M487.094,402.243c0,0.066-0.001,0.132-0.001,0.198
	c-1.403-4.988-2.808-9.975-4.233-14.958c-0.982-3.434-1.986-6.86-2.999-10.283c1.487,0.011,2.974,0.021,4.46,0.032
	C485.264,385.573,486.187,393.912,487.094,402.243z M486.103,377.245c0.387,0.003,0.774,0.006,1.161,0.008
	c-0.034,3.645-0.062,7.29-0.089,10.935c-0.085-0.901-0.166-1.801-0.252-2.702C486.661,382.737,486.384,379.991,486.103,377.245z
	 M486.845,405.836c0.461,1.529,1.028,3.416,1.771,5.91c2.266,7.613,4.065,13.844,5.272,18.068c-0.107-0.066-0.213-0.132-0.32-0.198
	c-1.222-0.757-2.435-1.518-3.639-2.283c-0.024,2.128,0.219,6.599,2.867,11.327c2.014,3.595,4.581,5.84,6.194,7.044
	c-1.073,0.197-2.336,0.575-3.62,1.307c-0.243,0.139-0.474,0.282-0.691,0.428c-0.895-2.52-1.81-5.131-2.745-7.842
	c-2.976-8.631-3.372-10.077-6.217-18.946c-0.675-2.103-1.507-4.67-3.171-9.805c-1.805-5.57-3.163-9.74-3.64-11.206
	c-1.597-4.909-3.98-12.238-7.307-22.497c2.189,0.016,4.379,0.031,6.568,0.047C482.435,391.217,485.237,400.499,486.845,405.836z
	 M502.424,391.37c-0.643,5.819-1.304,11.598-1.984,17.336c-0.485,4.094-0.425,4.4-0.777,7.786c-0.694,6.665-1.37,12.053-1.841,15.62
	c-0.923-0.544-1.846-1.087-2.768-1.631c-0.583-2.036-1.166-4.072-1.751-6.108c-0.034-0.118-0.067-0.236-0.101-0.353
	c0.214-2.374,0.558-6.185,0.977-10.888c0.641-7.197,1.045-11.834,1.925-21.806c0.307-3.481,0.92-10.398,1.24-13.999
	c2.194,0.016,4.388,0.032,6.581,0.047C503.442,382.016,502.942,386.681,502.424,391.37z M504.068,390.726
	c0.553-4.445,1.071-8.892,1.575-13.34c1.201,0.009,2.401,0.017,3.602,0.026c-2.01,6.784-4.032,13.562-6.063,20.332
	C503.478,395.404,503.776,393.066,504.068,390.726z M523.343,441.014c0.815-0.587,3.624,1.082,4.958,3.613
	c0.371,0.704,1.083,2.054,0.827,3.693c-0.393,2.523-2.588,2.602-4.453,5.919c-0.791,1.407-1.125,2.688-1.785,5.224
	c-0.74,2.841-0.846,4.603-1.245,4.607c-0.367,0.003-0.738-1.485-0.827-2.724c-0.033-0.453-0.028-0.888-0.002-1.296
	c-0.4,1.677-0.976,3.54-1.53,3.53c-0.951-0.017-0.723-5.525-3.614-10.617c-1.809-3.186-2.114-3.608-2.114-3.608
	c-1.348-1.865-2.29-2.536-2.11-3.543c0.131-0.731,0.684-0.7,1.858-2.192c0.783-0.995,1.245-1.91,1.575-2.561
	c1.031-2.038,1.005-2.961,1.789-3.221c0.408-0.135,0.841,0.045,1.707,0.404c0.917,0.38,2.11,0.874,2.848,2.008
	c0.329,0.506,0.451,1.169,0.682,2.475c0.436,2.473,0.398,3.895,0.583,3.904c0.187,0.009,0.47-1.447,0.592-2.754
	C523.271,441.845,522.969,441.284,523.343,441.014z M515.197,463.335c0.218,2.826,0.027,3.37-0.284,3.509
	c-0.156,0.07-0.461,0.091-1.265-0.562c-2.062-1.674-2.734-3.99-2.848-3.947c-0.099,0.037,0.233,1.861,1.26,4.375
	c0.564,1.381,0.953,2.028,0.673,2.347c-0.499,0.568-2.585-0.528-2.822-0.653c-2.499-1.313-3.572-3.242-3.761-3.111
	c-0.178,0.124,0.523,2.008,2.178,3.604c1.59,1.533,3.053,1.828,2.981,2.064c-0.127,0.416-4.727-0.388-9.338-2.417
	c-4.239-1.865-4.796-3.142-4.967-3.741c-0.244-0.86-0.069-1.655-0.72-3.054c-0.402-0.865-0.685-1.026-1.175-2.119
	c-0.372-0.83-0.686-1.531-0.742-2.407c-0.079-1.243,0.454-1.396,0.816-3.286c0.171-0.895,0.194-1.658,0.241-3.183
	c0.063-2.084-0.086-2.641,0.378-3.063c0.735-0.668,2.141-0.211,2.316-0.154c0.953,0.31,1.074,0.811,2.582,1.896
	c0.26,0.187,1.857,1.325,2.076,1.09c0.134-0.144-0.302-0.826-1.179-2.184c-0.632-0.978-0.828-1.199-0.746-1.501
	c0.166-0.618,1.306-0.899,2.136-0.918c1.378-0.031,1.575,0.793,3.311,1.202c1.504,0.354,1.855-0.123,2.971,0.298
	c0.964,0.363,1.542,1.035,2.385,2.168c1.685,2.264,2.642,3.55,3.801,5.973c1.097,2.292,1.719,3.617,1.857,5.564
	c0.122,1.743-0.171,3.51-0.412,3.517c-0.166,0.005-0.218-0.824-0.669-2.282c-0.462-1.495-1.163-3.068-1.364-3.011
	C514.69,459.4,514.994,460.699,515.197,463.335z M510.69,444.139c-1.397-3.297-2.794-6.593-4.19-9.89
	c0.029,1.603,0.172,3.485,0.542,5.565c0.365,2.048,0.871,3.839,1.389,5.336c-1.434-1.709-3.408-4.473-4.774-8.3
	c-0.775-2.171-1.071-3.888-1.155-4.404c-0.763-4.724,0.128-8.938,1.186-11.97c2.52,2.795,4.761,6.099,6.376,9.993
	c0.298,0.718,0.456,1.17,0.49,1.27C511.46,434.346,512.199,438.457,510.69,444.139z M502.838,438.801
	c1.735,2.538,2.388,5.06,2.664,6.69c-1.058-0.974-2.15-1.956-3.277-2.944c-1.231-1.079-2.45-2.118-3.654-3.118
	c0.255,0.669,0.566,1.386,0.949,2.133c0.703,1.372,1.475,2.513,2.195,3.433c-1.417-0.531-3.168-1.402-4.86-2.867
	c-5.128-4.438-5.697-10.837-5.794-12.53c3.467,1.715,6.012,3.593,7.716,5.026C500.348,435.946,501.616,437.013,502.838,438.801z
	 M494.543,391.241c0,0-0.778,9.12-1.708,20.492c-0.036,0.439-0.093,1.133-0.165,2.043c-0.176,2.199-0.341,4.395-0.508,6.592
	c-0.518-1.694-1.021-3.455-1.501-5.281c-0.637-2.424-1.184-4.77-1.652-7.027l-0.396-4.339c0.093-8.819,0.191-17.638,0.291-26.457
	c2.282,0.016,4.563,0.033,6.845,0.049C495.272,382.731,494.867,387.435,494.543,391.241z M493.576,452.105
	c0.162,2.675,0.097,2.878,0,2.908c-0.363,0.113-1.039-2.222-2.536-4.388c0.123-1.925,0.254-3.891,0.396-5.907
	c0.074-1.047,0.142-1.997,0.206-2.873c0.74,2.13,1.489,4.257,2.236,6.384c-0.055,0.078-0.107,0.16-0.156,0.248
	C493.337,449.179,493.432,449.73,493.576,452.105z M490.762,439.295c-0.238,3.363-0.467,6.726-0.694,10.09
	c-1.162-1.323-2.43-2.262-3.506-2.924c-0.097-0.64-0.194-1.283-0.292-1.934c-1.837-12.278-1.645-12.077-4.022-30.224
	C485.047,422.656,487.884,430.984,490.762,439.295z M485.325,445.758c-0.22-0.115-0.42-0.216-0.593-0.303
	c-0.212-0.107-0.416-0.201-0.618-0.293c0.227-0.916,0.457-1.838,0.694-2.778C484.977,443.509,485.151,444.634,485.325,445.758z
	 M484.598,446.994c2.756,1.463,4.301,3.484,5.084,4.531c1.445,1.932,2.256,3.849,2.724,5.334c-1.293-0.774-2.675-1.681-4.103-2.743
	c-1.693-1.259-3.163-2.521-4.426-3.713c0.703,1.326,1.858,3.155,3.691,4.968c1.857,1.837,3.724,2.981,5.07,3.67
	c-1.485,0.102-2.656-0.121-3.417-0.329c-3.646-0.998-5.589-3.773-6.508-5.086c-0.651-0.929-1.218-1.787-1.406-3.009
	c-0.225-1.462-0.111-2.319-0.111-2.319c0.043-0.324,0.102-0.572,0.127-0.761c0.026-0.193-0.016-0.332-0.076-0.406
	c-0.24-0.296-1.447,0.269-2.432,0.803c-0.357-0.385-0.789-0.929-1.168-1.646c-0.484-0.916-0.694-1.761-0.792-2.355
	c2.889,0.916,5.123,1.843,6.696,2.56C484.043,446.717,484.295,446.833,484.598,446.994z M489.377,459.955
	c-0.016,0.241-0.031,0.481-0.047,0.721c-0.103,0.136-0.25,0.28-0.437,0.445c-0.086-0.518-0.173-1.041-0.259-1.567
	C489.023,459.716,489.254,459.816,489.377,459.955z M479.557,450.216c0.56,1.463,1.345,4.074,1.201,7.395
	c-0.145,3.318-1.153,5.85-1.838,7.259c-0.709-0.955-1.546-2.372-1.968-4.227C475.745,455.332,478.976,450.974,479.557,450.216z
	 M481.924,460.571c0.406-2.175,0.464-4.088,0.404-5.585c0.486,0.655,1.193,1.473,2.176,2.268c1.06,0.857,2.085,1.398,2.867,1.739
	c0.159,1.015,0.319,2.029,0.478,3.044c-0.242,0.224-0.504,0.48-0.778,0.777c-1.801,1.942-2.356,3.654-2.486,4.086
	c-0.267,0.882-0.443,1.544-0.272,2.388c0.343,1.693,1.83,2.619,2.259,2.866c-0.862-0.189-2.004-0.531-3.245-1.178
	c-1.321-0.688-2.3-1.485-2.963-2.115c-0.06-0.901-0.12-1.802-0.18-2.702C480.814,464.745,481.497,462.86,481.924,460.571z
	 M487.348,474.105c0.049,0.123,0.06,0.231,0.05,0.336c-0.337-0.264-0.732-0.484-1.228-0.62c-1.096-0.301-1.261,0.194-2.787,0.16
	c0.413-0.437,0.683-0.655,1.125-0.786C485.61,472.871,487.033,473.309,487.348,474.105z M491.178,478.245
	c-1.237-0.909-1.814-1.027-2.054-1.738c-0.262-0.776,0.02-1.832,0.683-2.372c1.357-1.107,3.996,0.208,4.071-0.012
	c0.069-0.201-2.161-1.213-4.761-2.592c-2.07-1.098-2.906-1.651-3.079-2.574c-0.159-0.85,0.295-1.738,0.446-2.033
	c0.438-0.854,0.792-0.803,1.373-1.707c0.746-1.16,0.358-1.549,1.008-2.329c0.562-0.674,1.289-0.908,2.372-1.256
	c1.359-0.437,2.039-0.656,2.625-0.368c1.154,0.565,0.433,2.307,1.578,4.29c0.799,1.384,2.005,2.014,4.285,3.205
	c0.933,0.487,2.042,0.989,4.911,1.935c4.769,1.573,7.124,1.973,7.077,2.438c-0.051,0.512-2.988,0.809-4.011,0.913
	c-1.125,0.114-1.775,0.098-1.793,0.249c-0.028,0.235,1.513,0.725,3.097,0.893c2.065,0.218,3.507-0.186,3.556,0.022
	c0.038,0.162-0.819,0.442-2.441,1.196c-0.281,0.131-2.624,1.221-2.557,1.398c0.061,0.159,1.937-0.742,4.594-0.887
	c2.058-0.112,3.718,0.277,3.715,0.464c-0.003,0.166-1.305,0.029-2.857,0.772c-1.086,0.52-1.938,1.3-1.84,1.48
	c0.123,0.227,1.66-0.688,4.14-0.922c0.729-0.069,2.391-0.225,2.535,0.219c0.177,0.546-1.958,1.946-4.153,2.667
	c-1.13,0.371-2.566,0.519-5.439,0.814c-1.888,0.194-2.167,0.158-3.466,0.36c-2.183,0.339-2.235,0.571-3.638,0.694
	c-1.338,0.118-2.905,0.256-4.491-0.477c-0.544-0.251-1.319-0.944-2.869-2.33C491.968,479.025,492.177,478.979,491.178,478.245z
	 M517.276,476.123c-0.079-0.312-0.032-0.739,0.221-1.049c0.638-0.783,1.857,0.069,2.898-0.645c0.915-0.628,0.731-1.811,1.549-1.977
	c0.455-0.092,0.847,0.202,0.922,0.262c0.736,0.582,0.606,1.937,0.248,2.763c-0.694,1.602-2.549,1.906-2.651,1.921
	C519.206,477.583,517.526,477.113,517.276,476.123z M523.081,469.145c-0.474,1.35-0.389,1.401-0.601,1.656
	c-0.582,0.699-1.201,0.29-1.939,0.969c-0.774,0.712-0.523,1.559-1.111,1.754c-0.644,0.214-1.193-0.718-1.84-0.459
	c-0.373,0.149-0.273,0.491-0.772,1.021c-0.141,0.149-0.844,0.895-1.819,0.832c-0.812-0.052-1.334-0.635-1.476-0.807
	c-0.723-0.881-0.487-1.995-0.463-2.102c0.195-0.852,0.708-0.889,1.098-1.947c0.301-0.817,0.051-0.945,0.279-1.634
	c0.359-1.085,1.276-1.661,2.613-2.5c1.26-0.792,1.902-1.195,2.647-1.016c0.651,0.156,0.579,0.564,1.707,1.373
	c1.229,0.882,1.957,0.859,2.102,1.476C523.558,467.983,523.472,468.029,523.081,469.145z M537.04,422.024
	c1.447,5.075,0.105,9.398-0.519,11.079c-0.903-1.42-2-3.522-2.647-6.24c-1.111-4.669-0.283-8.586,0.285-10.559
	C535.102,417.541,536.307,419.456,537.04,422.024z M528.961,383.679c3.47,4.985,4.089,10.781,4.27,16.545
	c0.146,4.65,0.253,9.302,0.343,13.954c-0.678,1.863-1.421,4.625-1.413,8.009c0.013,5.871,2.279,10.233,3.506,12.248
	c-0.004,0.763-0.046,1.598-0.147,2.491c-0.168,1.479-0.463,2.783-0.786,3.885c-0.32-1.566-1.103-4.155-3.212-6.473
	c-5.202-5.718-13.508-4.324-14.2-4.197c0.751,1.334,1.898,3.072,3.595,4.841c1.755,1.829,3.459,3.026,4.581,3.727
	c3.289,2.054,6.482,2.911,8.721,3.293c0.11,0.887,0.225,1.782,0.347,2.684c0.098,0.725,0.198,1.445,0.301,2.159
	c-0.007-0.001-0.013-0.002-0.019-0.003c-2.305-0.318-3.653,1.406-4.47,0.814c-0.648-0.469,0.186-1.564-0.27-3.084
	c-0.365-1.218-2.134-2.298-5.657-4.406c-2.656-1.59-2.477-1.276-3.697-2.145c-1.006-0.717-1.469-1.173-2.419-1.39
	c-0.278-0.063-1.83-0.418-3.007,0.458c-0.631,0.47-0.649,0.975-1.39,2.419c-0.531,1.036-1.052,1.823-1.39,2.303
	c0.351-2.253,0.546-5.423-0.212-9.061c-1.693-8.124-6.989-13.056-9.061-14.795c-0.977,2.125-2.305,5.756-2.372,10.406
	c-0.044,3.099,0.486,5.685,1.026,7.539c-0.839-1.113-1.823-2.179-2.982-3.151c-0.063-0.053-0.127-0.106-0.19-0.157
	c0.046-0.374,0.2-1.621,0.247-1.995c1.036-8.363,2.093-16.708,3.169-25.037c1.901-5.998,3.794-12.022,5.679-18.073
	c1.046-3.359,2.086-6.713,3.119-10.062c4.575,0.033,9.151,0.066,13.726,0.099C526.126,379.59,527.543,381.642,528.961,383.679z
	 M533.712,440.323c-1.697-0.242-4.328-0.837-7.14-2.449c-3.741-2.145-5.879-4.99-6.893-6.562c1.041-0.113,5.289-0.452,9.254,2.428
	C532.146,436.073,533.338,439.185,533.712,440.323z M518.677,320.168c1.049,0.678,2.184,1.189,3.395,1.502
	c0.954,0.247,1.924,0.37,2.9,0.37c0.339,0,0.679-0.019,1.02-0.049l-0.425,1.653c-1.004,0.152-2.011,0.141-2.997-0.053
	c-1.952-0.382-3.368-1.351-4.258-2.155L518.677,320.168z M527.317,290.287c0.906,0.609,1.889,1.083,2.941,1.398
	c1.023,0.307,2.073,0.462,3.135,0.462c0.09,0,0.181-0.01,0.272-0.012l-7.393,28.764c-1.323,0.163-2.646,0.089-3.938-0.244
	c-1.203-0.31-2.327-0.833-3.352-1.539L527.317,290.287z M527.881,288.336c0.043,0.02,0.087,0.04,0.13,0.06
	c0.035,0.021,0.07,0.038,0.109,0.05c0.657,0.297,1.323,0.575,2.002,0.808c1.306,0.448,2.66,0.771,4.031,0.978l-0.216,0.84
	c-1.144,0.063-2.279-0.062-3.378-0.392c-1.059-0.318-2.041-0.814-2.934-1.459L527.881,288.336z M527.628,276.041
	c0.648-1.308,1.171-1.885,2.318-3.149c0.99-1.092,2.345-2.587,4.556-5.377c1.316-1.661,1.95-2.528,2.501-3.858
	c0.673-1.624,0.884-3.118,0.982-4.195c0.222,0.822,0.447,1.973,0.544,3.301c0.207,2.838-0.251,5.717-1.362,8.556
	c-0.106,0.27,0.027,0.574,0.297,0.679c0.269,0.105,0.574-0.027,0.679-0.297c1.168-2.987,1.65-6.019,1.431-9.014
	c-0.083-1.132-0.291-2.408-0.564-3.438c0.175-0.982,0.46-1.939,0.852-2.844c0.261-0.602,0.554-1.151,0.835-1.617
	c-0.099,0.462-0.184,0.995-0.229,1.596c-0.179,2.436,0.376,4.785,0.912,7.055c0.213,0.904,0.434,1.838,0.602,2.755
	c0.759,4.149,1.501,12.029-2.068,18.18c-0.676,1.166-1.406,2.114-2.23,2.899c-0.3,0.286-0.617,0.555-0.943,0.8
	c-0.614,0.462-1.296,0.855-2.022,1.183c-0.859-0.113-1.71-0.28-2.548-0.493c-0.035-0.474-0.035-0.949,0.012-1.417
	c0.113-1.132,0.459-2.224,1.031-3.249c0.141-0.253,0.05-0.573-0.203-0.713c-0.252-0.14-0.573-0.05-0.713,0.203
	c-0.641,1.15-1.031,2.38-1.158,3.655c-0.041,0.404-0.044,0.814-0.03,1.223c-0.17-0.052-0.34-0.103-0.508-0.16
	c-0.504-1.536-0.762-3.111-0.76-4.684c0.007-5.29,2.873-9.191,4.581-11.046c0.196-0.213,0.183-0.545-0.031-0.741
	c-0.213-0.195-0.545-0.183-0.741,0.031c-1.811,1.967-4.85,6.109-4.858,11.755c-0.002,1.418,0.201,2.836,0.583,4.228
	c-0.267-0.108-0.53-0.224-0.793-0.343c-1.176-1.356-1.958-2.931-2.259-4.566C525.75,279.827,527.019,277.27,527.628,276.041z
	 M517.99,322.542c1,0.819,2.454,1.702,4.377,2.079c0.619,0.121,1.245,0.182,1.873,0.182c0.347,0,0.695-0.024,1.044-0.061
	l-10.114,39.351c-2.799-0.01-5.598-0.02-8.397-0.029l0.369-4.001L517.99,322.542z M513.536,288.437
	c0.064,0.273-0.099,0.563-0.359,0.658c-1.144,0.367-2.326,0.533-3.53,0.488c-1.245-0.046-2.461-0.314-3.613-0.796
	c-0.101-0.042-0.182-0.109-0.235-0.192c-0.086-0.134-0.121-0.272-0.104-0.419c0.024-0.189,0.153-0.294,0.227-0.341
	c0.094-0.058,0.203-0.088,0.312-0.088c0.065,0,0.13,0.011,0.192,0.032c0.639,0.222,1.301,0.386,1.968,0.487
	c1.482,0.222,2.982,0.14,4.462-0.247C513.159,287.959,513.468,288.149,513.536,288.437z M506.355,289.702
	c1.053,0.371,2.146,0.589,3.265,0.63c0.135,0.005,0.269,0.007,0.404,0.007c0.847,0,1.688-0.099,2.518-0.293l-2.235,24.248
	c-1.251,0.306-2.526,0.361-3.789,0.161c-0.967-0.152-1.896-0.457-2.774-0.893L506.355,289.702z M506.355,315.492
	c0.552,0.087,1.106,0.13,1.659,0.13c0.734,0,1.467-0.092,2.193-0.245l-0.086,0.93c-1.086,0.179-2.189,0.213-3.279,0.1
	c-1.141-0.119-2.254-0.404-3.319-0.833l0.099-0.904C504.494,315.065,505.409,315.344,506.355,315.492z M503.405,316.655
	c1.073,0.405,2.187,0.678,3.328,0.797c0.458,0.048,0.918,0.071,1.378,0.071c0.638,0,1.276-0.055,1.91-0.147l-4.303,46.685
	c-2.5-0.009-4.999-0.018-7.499-0.026L503.405,316.655z M505.555,279.064c0.085-0.72,0.422-3.279,1.758-6.225
	c0.646-1.425,1.581-3.064,1.914-2.945c0.393,0.14-0.261,2.647,0.005,2.721c0.313,0.087,1.412-3.341,1.673-3.268
	c0.167,0.047-0.099,1.501-0.536,3.857c-0.922,4.965-1.044,5.722-0.969,5.741c0.14,0.036,0.995-2.529,1.674-5.063
	c0.707-2.639,0.895-4.016,1.085-3.996c0.265,0.028,0.285,2.749,0.119,5.017c-0.126,1.726-0.351,3.075-0.222,3.1
	c0.107,0.021,0.416-0.885,0.983-2.552c0.307-0.9,0.39-1.19,0.493-1.182c0.354,0.028,0.22,3.685,0.446,3.697
	c0.081,0.004,0.186-0.464,0.501-2.556c0.383-2.539,0.402-2.998,0.472-2.998c0.2,0.002,0.754,3.797,0.059,8.02
	c-0.39,2.371-1.119,4.614-1.352,5.326c-0.189,0.576-0.37,1.08-0.533,1.517c-0.141-0.016-0.285-0.016-0.431,0.015l-0.016,0.004
	c-1.383,0.363-2.786,0.44-4.17,0.233c-0.622-0.093-1.238-0.246-1.833-0.453c-0.195-0.068-0.403-0.086-0.607-0.06
	C505.564,284.955,505.184,282.217,505.555,279.064z M490.241,303.896c0.982,0.324,2.015,0.5,3.046,0.5
	c0.168,0,0.336-0.004,0.503-0.013c1.112-0.059,2.187-0.318,3.211-0.747l-0.002,1.067c-1.243,0.374-2.526,0.552-3.819,0.528
	c-1-0.021-1.995-0.172-2.964-0.436L490.241,303.896z M490.385,277.214c-0.192-0.098-0.287-0.326-0.215-0.518
	c0.06-0.161,0.225-0.263,0.398-0.263c0.045,0,0.091,0.007,0.135,0.022c1.154,0.46,2.346,0.717,3.555,0.786
	c0.016,0.001,0.031,0.011,0.047,0.011c0.019,0,0.038-0.007,0.057-0.009c0.264,0.013,0.528,0.028,0.793,0.022
	c0.682-0.016,1.369-0.097,2.042-0.24c0.129-0.027,0.266,0.006,0.368,0.088c0.058,0.047,0.127,0.128,0.127,0.256
	c-0.001,0.106-0.04,0.205-0.12,0.301c-0.044,0.052-0.107,0.091-0.182,0.112c-1.185,0.33-2.407,0.442-3.631,0.334
	C492.582,278.012,491.441,277.705,490.385,277.214z M490.488,260.987c0.447-0.807,2.049-3.592,3.898-5.519l0.116-0.12
	c0.436-0.45,1.165-1.203,1.833-2.374c0.039-0.068,0.076-0.136,0.112-0.202c-0.051,0.529-0.135,1.141-0.262,1.793
	c-0.38,1.953-0.941,3.106-1.482,4.221c-0.383,0.787-0.778,1.601-1.084,2.651c-0.646,2.225-0.643,4.703,0.009,7.364
	c0.069,0.282,0.351,0.457,0.634,0.384c0.281-0.069,0.454-0.353,0.384-0.634c-0.607-2.481-0.614-4.776-0.02-6.822
	c0.28-0.965,0.639-1.703,1.019-2.485c0.064-0.131,0.128-0.264,0.192-0.397c0.291,1.61,0.718,3.192,1.286,4.72
	c0.427,1.151,0.826,1.984,1.146,2.654c0.441,0.922,0.759,1.588,0.912,2.539c0.349,2.171-0.403,4.607-2.219,7.241
	c-0.398,0.084-0.801,0.135-1.205,0.171c0.278-0.287,0.539-0.592,0.772-0.921c0.544-0.769,0.942-1.62,1.181-2.53
	c0.074-0.28-0.094-0.567-0.374-0.641c-0.281-0.076-0.567,0.094-0.641,0.374c-0.207,0.788-0.552,1.525-1.023,2.191
	c-0.425,0.6-0.949,1.114-1.543,1.546c-1.037-0.078-2.059-0.317-3.052-0.715l-0.022-0.008c-0.014-0.005-0.028-0.006-0.042-0.01
	c-0.005-0.007-0.007-0.015-0.012-0.022c-1.312-1.537-2.164-3.243-2.532-5.072C487.626,266.158,489.629,262.539,490.488,260.987z
	 M493.665,279.161c0.333,0.03,0.665,0.044,0.997,0.044c0.799,0,1.594-0.089,2.378-0.259l-0.038,23.548
	c-1.031,0.495-2.13,0.78-3.268,0.841c-1.171,0.063-2.358-0.131-3.461-0.541l0.694-24.22
	C491.838,278.879,492.741,279.079,493.665,279.161z M490.184,305.871c0.975,0.245,1.971,0.387,2.973,0.408
	c0.096,0.002,0.192,0.003,0.288,0.003c1.201,0,2.391-0.172,3.552-0.492l-0.095,58.239c-2.794-0.01-5.589-0.02-8.383-0.029
	L490.184,305.871z M471.535,278.138l0.146,1.065c-0.937,0.422-1.922,0.718-2.937,0.868c-1.205,0.178-2.422,0.147-3.624-0.072
	L465,278.983c0.427,0.034,0.854,0.058,1.282,0.058c0.735,0,1.471-0.051,2.199-0.153
	C469.509,278.745,470.523,278.495,471.535,278.138z M467.125,281.238c0.592,0,1.184-0.044,1.773-0.131
	c1.009-0.149,1.991-0.432,2.931-0.828l3.731,27.156c-0.489,0.26-0.994,0.486-1.514,0.658c-1.723,0.567-3.636,0.638-5.537,0.208
	l-3.259-27.226C465.873,281.174,466.499,281.238,467.125,281.238z M468.639,309.386c0.772,0.151,1.545,0.244,2.308,0.244
	c1.181,0,2.338-0.18,3.428-0.54c0.456-0.15,0.9-0.344,1.336-0.557l0.16,1.165c-0.815,0.504-1.692,0.872-2.616,1.083
	c-1.829,0.417-3.425,0.145-4.47-0.171L468.639,309.386z M464.07,259.745c0.058-2.263,0.191-4.613-0.052-6.866
	c-0.043-0.399-0.497-3.075,0-3.199c0.406-0.074,1.418,3.263,1.92,5.33c0.185,0.762,0.298,1.342,0.401,1.88
	c0.818,4.268,1.246,7.117,1.246,7.117c0.598,3.75,0.897,5.626,0.929,5.893c0.22,1.821,0.421,4.148,0.468,6.876
	c-0.365,0.061-0.731,0.115-1.098,0.155c-0.252,0.028-0.506,0.034-0.76,0.051c-0.622-0.677-1.046-1.283-1.296-1.682
	C462.901,270.627,463.938,264.935,464.07,259.745z M464.4,277.949c0.025-0.125,0.169-0.191,0.297-0.187
	c1.089,0.06,2.188,0.03,3.269-0.088c1.324-0.145,2.639-0.423,3.91-0.828c0.092,0.041,0.145,0.12,0.146,0.188
	c0.001,0.083-0.086,0.157-0.077,0.158c-1.145,0.462-2.346,0.782-3.568,0.953c-1.287,0.179-2.594,0.192-3.887,0.039
	c-0.038-0.034-0.083-0.089-0.093-0.158C464.393,278.003,464.394,277.977,464.4,277.949z M468.92,311.736
	c0.677,0.171,1.503,0.308,2.44,0.308c0.663,0,1.378-0.068,2.128-0.239c0.888-0.203,1.738-0.535,2.537-0.98l7.302,53.157
	c-2.521-0.009-5.043-0.018-7.564-0.027l-1.286-4.035c0.111-0.11,0.178-0.262,0.158-0.429L468.92,311.736z M445.242,294.815
	c1.121-0.138,2.241-0.371,3.326-0.69c1.329-0.391,2.624-0.918,3.85-1.566c0.11,0.025,0.186,0.102,0.201,0.179
	c0.018,0.093-0.064,0.19-0.054,0.19c-1.089,0.684-2.26,1.234-3.48,1.633c-1.288,0.421-2.626,0.676-3.978,0.755
	c-0.047-0.029-0.109-0.079-0.134-0.153c-0.009-0.027-0.014-0.057-0.013-0.089C444.962,294.933,445.105,294.832,445.242,294.815z
	 M445.891,295.997c1.164-0.122,2.313-0.36,3.426-0.725c1.039-0.34,2.043-0.791,3.024-1.351l0.33,1.036
	c-0.884,0.607-1.842,1.093-2.856,1.434c-1.169,0.393-2.382,0.586-3.62,0.592L445.891,295.997z M450.15,297.385
	c1.007-0.338,1.962-0.81,2.853-1.389l8.682,27.239c-0.413,0.314-0.843,0.606-1.295,0.85c-1.611,0.872-3.487,1.295-5.45,1.237
	l-8.423-27.296C447.755,297.988,448.975,297.78,450.15,297.385z M455.267,326.381c0.007,0,0.013,0,0.02,0
	c2.009,0,3.934-0.47,5.603-1.374c0.391-0.212,0.766-0.456,1.132-0.716l0.389,1.222c-0.706,0.609-1.488,1.106-2.338,1.468
	c-1.696,0.721-3.29,0.774-4.415,0.668L455.267,326.381z M441.742,292.472c-0.11-0.125-0.216-0.247-0.319-0.36
	c-0.991-1.093-1.92-2.269-2.74-3.307c-1.145-1.449-2.622-3.377-3.887-5.429c-0.716-1.161-1.403-2.364-2.062-3.577
	c0.496-0.178,0.973-0.293,1.43-0.347c0.805,1.039,1.599,2.101,2.359,3.166c0.773,1.082,1.537,2.199,2.271,3.317
	c0.101,0.154,0.268,0.237,0.439,0.237c0.099,0,0.199-0.028,0.287-0.086c0.242-0.159,0.31-0.484,0.151-0.726
	c-0.741-1.13-1.513-2.258-2.294-3.352c-0.611-0.856-1.247-1.708-1.889-2.551c0.288,0.02,0.642,0.015,1.054-0.12
	c0.518-0.17,0.776-0.436,0.983-0.65c0.132-0.136,0.245-0.254,0.435-0.363c0.372-0.213,0.649-0.176,1.032-0.127
	c0.428,0.055,0.959,0.125,1.553-0.252c0.444-0.281,0.634-0.628,0.786-0.907c0.132-0.242,0.219-0.402,0.465-0.532
	c0.289-0.152,0.656-0.185,1.092-0.1c0.281,0.055,0.56-0.128,0.616-0.412c0.056-0.284-0.128-0.56-0.412-0.616
	c-0.676-0.134-1.276-0.067-1.784,0.2c-0.526,0.277-0.732,0.654-0.897,0.958c-0.123,0.225-0.211,0.387-0.426,0.523
	c-0.262,0.166-0.462,0.149-0.857,0.098c-0.45-0.059-1.01-0.132-1.688,0.257c-0.319,0.183-0.513,0.382-0.668,0.543
	c-0.177,0.184-0.285,0.294-0.556,0.383c-0.328,0.106-0.604,0.079-0.87,0.052l-0.117-0.012c-0.305-0.028-0.621-0.02-0.941,0.005
	c-0.009,0.002-0.018,0-0.027,0.003c-0.533,0.044-1.085,0.161-1.655,0.348c0.332-0.95,0.775-1.546,1.323-1.768
	c0.176-0.072,0.352-0.102,0.555-0.136c0.374-0.064,0.839-0.144,1.34-0.531c0.467-0.361,0.626-0.722,0.742-0.986
	c0.091-0.207,0.127-0.277,0.253-0.352c0.245-0.145,0.51-0.089,0.956,0.022c0.514,0.13,1.155,0.29,1.828-0.094
	c0.409-0.232,0.566-0.519,0.681-0.729c0.091-0.165,0.128-0.234,0.285-0.312c0.234-0.116,0.412-0.079,0.765,0.012
	c0.378,0.097,0.849,0.219,1.456,0.038c0.612-0.181,0.883-0.53,1.1-0.811c0.176-0.227,0.315-0.407,0.665-0.547
	c0.361-0.144,0.575-0.103,0.9-0.039c0.37,0.072,0.832,0.163,1.489-0.06c0.648-0.219,1.055-0.597,1.353-0.873
	c0.259-0.24,0.355-0.319,0.432-0.3c0.035,0.008,0.053,0.02,0.173,0.135c0.152,0.146,0.361,0.347,0.752,0.551
	c0.198,0.103,0.406,0.188,0.622,0.253c-0.095,0.108-0.199,0.226-0.319,0.362c-0.139,0.158-0.423,0.431-0.76,0.47
	c-0.13,0.016-0.26-0.029-0.461-0.104c-0.21-0.078-0.449-0.166-0.739-0.169c-0.005,0-0.01,0-0.014,0
	c-0.599,0-0.944,0.395-1.248,0.743c-0.193,0.221-0.392,0.449-0.673,0.615c-0.262,0.155-0.564,0.241-0.925,0.262
	c-0.303,0.017-0.577,0.169-0.751,0.416c-0.172,0.244-0.222,0.548-0.138,0.833c0.07,0.24,0.129,0.483,0.19,0.737
	c0.164,0.679,0.349,1.449,0.811,2.463c0.346,0.759,0.626,1.575,0.833,2.427c0.068,0.281,0.351,0.453,0.634,0.386
	c0.281-0.068,0.454-0.352,0.386-0.634c-0.223-0.916-0.525-1.795-0.898-2.614c-0.42-0.922-0.585-1.609-0.746-2.274
	c-0.058-0.241-0.114-0.472-0.179-0.7c0.492-0.039,0.935-0.173,1.318-0.401c0.425-0.252,0.704-0.571,0.928-0.827
	c0.24-0.274,0.36-0.38,0.462-0.384c0.109,0.001,0.237,0.048,0.386,0.104c0.25,0.092,0.562,0.207,0.948,0.162
	c0.65-0.077,1.134-0.488,1.425-0.82c0.173-0.196,0.341-0.388,0.484-0.549c0.222,0.904,0.444,2.918,0.66,4.879
	c0.119,1.08,0.249,2.261,0.4,3.492c0.105,0.858,0.21,1.579,0.302,2.219c0.26,1.793,0.417,2.875,0.258,4.565
	c-0.125,1.33-0.399,2.655-0.812,3.937c-0.012,0.037-0.009,0.074-0.013,0.111c-0.165,0.087-0.332,0.169-0.5,0.252
	c-0.005-1.142-0.052-2.291-0.158-3.426c-0.174-1.874-0.489-3.757-0.937-5.594c-0.069-0.281-0.352-0.456-0.634-0.386
	c-0.281,0.068-0.454,0.352-0.386,0.634c0.435,1.788,0.742,3.619,0.912,5.443c0.117,1.258,0.172,2.536,0.162,3.798
	c0,0.002,0.001,0.004,0.001,0.006c-0.261,0.11-0.525,0.213-0.791,0.312c0.008-0.725-0.029-1.454-0.125-2.171
	c-0.145-1.078-0.407-2.145-0.78-3.17c-0.099-0.272-0.401-0.414-0.672-0.314c-0.272,0.099-0.413,0.399-0.314,0.672
	c0.347,0.954,0.591,1.947,0.725,2.951c0.1,0.746,0.14,1.506,0.12,2.259c-0.001,0.044,0.013,0.083,0.022,0.124
	c-0.104,0.033-0.207,0.07-0.312,0.1c-1.047,0.308-2.125,0.532-3.206,0.665c-0.102,0.012-0.194,0.049-0.285,0.086
	c-0.073-0.013-0.149-0.015-0.225,0.009c-0.167,0.051-0.334,0.07-0.497,0.062C443.234,294.174,442.407,293.23,441.742,292.472z
	 M455.99,328.723c0.176,0.009,0.354,0.018,0.545,0.018c1.128,0,2.506-0.182,3.948-0.795c0.815-0.346,1.576-0.798,2.273-1.348
	l11.905,37.353c-2.603-0.009-5.207-0.018-7.811-0.027L455.99,328.723z M452.073,365.65c24.445,0.077,48.89,0.155,73.335,0.232
	c1.035,0.176,1.806,0.995,1.885,1.943c0.095,1.15-0.876,1.876-0.928,1.914c-24.867-0.118-49.734-0.236-74.601-0.354
	c-0.815-0.264-1.368-1.008-1.373-1.82C450.386,366.638,451.096,365.804,452.073,365.65z M451.696,371.102
	c25.048,0.287,50.095,0.573,75.143,0.86c0.184,0.266,0.551,0.878,0.607,1.74c0.07,1.082-0.398,1.868-0.568,2.126
	c-24.993-0.193-49.986-0.387-74.978-0.58c-0.849-0.284-1.451-1.039-1.529-1.915C450.288,372.397,450.82,371.495,451.696,371.102z
	 M449.909,475.559c-3.203-6.121-4.397-12.792-4.722-19.578c-0.551-11.514-1.15-23.042-1.109-34.562
	c0.033-9.023,0.665-18.084,1.719-27.046c0.447-3.801,2.512-7.458,4.115-11.059c0.925-2.078,2.202-4.01,3.587-6.303
	c5.5,0.04,10.999,0.079,16.499,0.119c1.571,4.586,3.115,9.302,4.622,14.146c2.029,6.524,3.872,12.898,5.546,19.105
	c0.068,0.494,0.166,1.205,0.235,1.699c1.285,9.264,2.623,18.486,4.015,27.665c-0.426,1.67-0.85,3.341-1.273,5.012
	c-1.108-0.397-2.252-0.84-3.427-1.336c-2.146-0.905-4.107-1.866-5.882-2.829c0.265,1.297,0.731,2.958,1.585,4.773
	c0.816,1.734,1.748,3.101,2.545,4.11c-0.311,0.555-0.622,1.11-0.933,1.664c0,0-0.68,1.502-1.253,3.509
	c-0.415,1.453-1.056,4.615,0.337,7.991c0.381,0.924,1.158,2.44,2.751,3.931c-0.015,0.59-0.03,1.18-0.046,1.77
	c-0.73-0.748-1.477-1.56-2.23-2.437c-1.043-1.215-1.966-2.403-2.78-3.537c-0.226-0.854-0.638-2.063-1.427-3.357
	c-1.369-2.246-3.088-3.459-4.224-4.243c-4.673-3.225-10.745-4.109-12.568-4.335c0.433,1.376,2.694,8.063,9.401,11.137
	c2.703,1.239,5.233,1.481,6.949,1.477c2.103,2.144,4.206,4.287,6.309,6.431c-0.575,0.103-1.15,0.206-1.724,0.308
	c-1.212-1.32-3.797-3.747-7.823-4.909c-7.568-2.183-13.904,1.929-14.896,2.596c1.825,1.316,5.312,3.46,10.209,4.349
	c5.751,1.043,10.394-0.2,12.583-0.943c0.81-0.075,2.191-0.091,3.755,0.47c0.989,0.355,1.748,0.832,2.275,1.228
	c-0.475,0.529-0.95,1.058-1.426,1.586c-0.667-0.111-1.703-0.248-2.973-0.265c-4.581-0.062-8.466,1.493-9.825,2.051
	c-1.047,0.43-2.082,0.931-3.873,1.454c-1.227,0.358-2.251,0.563-2.9,0.677c1.215,0.889,2.429,1.778,3.644,2.668
	c-0.111,0.021-0.239,0.052-0.431,0.125c-0.518,0.196-0.945,0.488-1.348,0.85c-0.795,0.715-1.368,1.591-1.964,2.553
	c-0.915,1.475-1.458,2.36-1.754,3.054C455.65,484.499,452.434,480.383,449.909,475.559z M472.247,461.796
	c-1.399,0.027-4.853-0.094-8.424-2.284c-3.846-2.358-5.527-5.703-6.086-6.963c1.695,0.081,6.264,0.53,10.346,3.965
	C470.269,458.355,471.539,460.398,472.247,461.796z M474.669,470.037c-2.007,0.501-5.37,1.075-9.467,0.5
	c-3.917-0.55-6.884-1.922-8.66-2.914c1.384-0.767,3.911-1.91,7.233-2.032c1.387-0.051,4.038-0.116,6.94,1.348
	C472.644,467.913,473.929,469.181,474.669,470.037z M453.152,493.983c-3.59-1.984-5.933-5.114-6.797-6.358
	c3.251,0.018,5.759,0.629,7.393,1.16c2.108,0.684,3.016,1.317,3.424,1.627c1.811,1.374,2.685,3.137,3.094,4.174
	c-0.945-0.588-2.346-1.383-4.141-2.124c-1.277-0.527-3.047-1.147-3.124-0.976c-0.071,0.156,1.326,0.874,3.983,2.484
	c1.429,0.866,2.581,1.601,3.335,2.09c-0.706-0.03-1.655-0.118-2.751-0.362C455.406,495.214,453.899,494.396,453.152,493.983z
	 M456.921,501.236c-3.549,0.341-6.213-1.157-7.132-1.732c2.267-1.455,4.279-2.039,5.557-2.301c1.746-0.357,2.625-0.215,3.178-0.066
	c1.399,0.378,2.317,1.235,2.768,1.73c-0.687,0.074-1.717,0.164-2.979,0.188c-1.427,0.027-2.135-0.05-2.146,0.039
	c-0.018,0.138,1.666,0.57,3.496,0.657c0.776,0.037,1.425,0.004,1.877-0.034C460.628,500.258,459.034,501.033,456.921,501.236z
	 M460.83,492.599c-0.145-0.06-0.134-0.372-0.143-0.637c-0.033-0.984-0.345-1.374-0.464-2.025c-0.159-0.87,0.205-1.675,0.932-3.287
	c0.354-0.784,0.753-1.653,1.529-2.631c0.337-0.425,1.795-2.262,2.424-1.956c0.473,0.23,0.372,1.62,0.038,2.582
	c-0.178,0.511-0.09,0.449-0.5,1.008c-0.61,0.833-0.554,2.144-0.803,3.239c-0.088,0.385-0.169,0.567-0.234,0.718
	c-0.373,0.864-0.782,0.987-1.989,2.328C461.239,492.362,460.994,492.667,460.83,492.599z M472.829,508.038
	c-0.349,0.114-1,0.301-1.857,0.196c-1.044-0.128-1.985-0.668-2.863-1.484c-0.458-0.425-1.014-0.805-1.593-1.032
	c-0.905-0.355-1.555-0.914-1.87-1.801c-0.384-1.082-0.543-1.982-0.569-2.175c-0.257-1.898-1.676-2.003-2.242-4.196
	c-0.119-0.459-0.462-1.863,0.146-3.288c0.265-0.621,0.667-1.086,1.488-2.004c0.435-0.486,0.698-0.713,0.824-0.646
	c0.122,0.064,0.005,0.345,0.03,0.893c0.012,0.246,0.042,0.918,0.426,1.463c0.191,0.271,0.446,0.502,0.765,0.685
	c1.202,0.689,1.107,0.874,1.234,1.063c0.259,0.387,0.091,0.411,0.512,1.374c0.209,0.477,0.332,0.658,0.246,0.771
	c-0.184,0.241-0.968-0.317-1.422-0.014c-0.057,0.038-0.288,0.228-0.3,0.951c-0.039,2.398,1.693,4.483,4.086,5.109
	c0.804,0.21,0.839,0.621,1.34,1.086c1.068,0.993,1.193,1.454,2.035,1.863c0.409,0.199,0.718,0.254,0.737,0.442
	C474.018,507.649,472.958,507.995,472.829,508.038z M472.534,504.339c-0.831-0.426-1.708-0.786-2.597-1.073
	c-2.539-0.822-3.362-4.425-2.879-4.818c0.252-0.205,0.77,0.433,2.8,1.464c0.818,0.415,2.15,1.083,3.901,1.51
	c1.48,0.361,2.217,0.518,3.188,0.363c1.378-0.221,2.638-0.953,3.764-2.112c0.15-0.155,0.302-0.31,0.465-0.451
	c0.045-0.039,0.133-0.031,0.202-0.044c0.359,1.316-0.465,2.926-1.845,3.475c-0.53,0.211-1.137,0.228-1.684,0.407
	c-0.455,0.149-0.971,0.311-1.291,0.633C475.312,504.947,474.105,505.145,472.534,504.339z M474.545,505.788
	c0.048-0.096,0.369,0.065,0.985,0.055c0.363-0.006,0.896,0.188,1.371-0.295c1.077-1.096,2.436-1.554,3.791-2.09
	c0.716-0.283,0.945-0.685,1.175-1.002c0.459-0.635,0.455-1.14,0.988-1.517c0.247-0.174,0.333-0.127,0.933-0.307
	c1.364-0.409,2.612-1.162,2.69-1.21c0.561-0.342,0.731-0.514,1.019-0.463c0.594,0.105,0.886,1,0.902,1.051
	c0.115,0.367,0.095,0.676,0.066,0.898c-0.073,0.548-0.306,1.009-0.572,1.528h0c-0.246,0.48-0.664,0.708-1.055,0.941
	c-0.284,0.17-0.555,0.363-0.837,0.537c-1.187,0.731-1.059,1.546-1.931,2.099c-0.598,0.379-0.718,0.033-2.824,0.286
	c-0.919,0.11-1.746,0.278-2.397,0.409c-1.589,0.32-1.775,0.462-2.329,0.372C475.335,506.89,474.458,505.963,474.545,505.788z
	 M490.797,505.424c-0.354,0.363-0.623,0.539-0.975,1.057c-0.396,0.583-0.528,1.055-1.053,1.631
	c-0.152,0.167-0.335,0.339-0.573,0.497c-0.176,0.117-0.323,0.17-0.587,0.3c-1.484,0.729-1.921,0.581-3.268,1.142
	c-1.517,0.632-1.305,0.961-2.552,1.491c-2.125,0.901-4.395,0.646-5.858-0.326c-0.277-0.184-1.014-0.673-0.923-1.171
	c0.077-0.42,0.678-0.487,1.922-1.105c1.564-0.776,1.715-1.218,2.782-1.456c0.18-0.04,0.321-0.097,0.353-0.105
	c0.858-0.232,1.503-0.237,2.008-0.252c1.489-0.043,2.234-0.065,2.69-0.315c0.217-0.119,0.788-0.429,1.183-1.064
	c0.28-0.449,0.316-0.809,0.735-1.269c0.142-0.156,0.257-0.245,0.685-0.542c1.594-1.107,1.827-1.139,2.041-1.559
	c0.126-0.249,0.065-0.277,0.368-1.064c0.157-0.406,0.235-0.609,0.325-0.774c0.351-0.644,1.151-1.389,1.733-1.229
	c0.479,0.132,0.652,0.834,0.719,1.106C492.97,502.111,491.958,504.231,490.797,505.424z M491.647,498.246
	c-0.246,0.133-0.526,0.236-0.805,0.187c-0.66-0.115-0.995-1.037-1.174-1.529c-0.335-0.922-0.355-1.927-0.206-2.899
	c0.105-0.686,0.187-1.412,0.516-2.026c0.394-0.734,0.807-1.459,1.142-2.222c0.622-1.417,0.925-3.051,0.597-4.563
	c-0.304-1.404-0.985-2.127-0.693-2.462c0.299-0.343,1.37,0.007,2.088,0.518c1.252,0.892,2.072,2.767,1.76,4.342
	c-0.151,0.764-0.608,1.408-0.791,2.161c-0.11,0.455-0.128,0.887-0.095,1.311c0.052,0.677,0.232,1.335,0.367,2.037
	c0.119,0.618-0.052,1.29-0.265,1.874C493.65,496.181,492.806,497.618,491.647,498.246z M497.327,490.051
	c-0.372,1.154-0.43,2.571-0.221,3.894c-0.025,0.556,0.042,1.108,0.135,1.664c0.159,0.942,0.085,1.948-0.258,2.851
	c-0.039,0.102-0.078,0.195-0.119,0.283c0,0-0.19,0.418-0.447,0.793c-0.299,0.435-1.472,1.821-1.989,1.565
	c-0.157-0.077-0.12-0.239-0.273-1.007c-0.251-1.264-0.499-1.497-0.399-2.133c0.062-0.394,0.152-0.67,0.32-0.933
	c0.55-0.861,0.859-1.958,1.046-2.949c0.154-0.814,0.12-1.465,0-2.27c-0.13-0.869-0.266-1.79-0.16-2.673
	c0.133-1.108,0.472-2.183,0.796-3.249c0.178-0.586,0.326-1.063,0.462-1.377c0.053,0.015,0.11,0.032,0.16,0.047
	c0.146,0.042,0.288,0.078,0.428,0.112c0.094,0.469,0.193,1.227,0.411,2.265c0.21,0.999,0.399,1.64,0.549,2.102
	C497.597,489.345,497.446,489.682,497.327,490.051z M497.637,484.836c1.981,0.318,3.158-0.074,3.379,0.446
	c0.275,0.644-1.49,1.328-2.76,3.008C497.997,487.154,497.766,485.992,497.637,484.836z M528.297,499.363
	c2.138,2.837,2.805,5.682,3.044,7.15c-1.855-0.219-3.301-0.697-4.277-1.096c0,0-3.69-1.497-6.901-5.153
	c-0.914-1.04-1.609-2.01-2.117-2.788c0.635-0.612,1.262-1.368,2.146-2.439c0.336-0.407,0.625-0.758,0.881-1.077
	C522.474,494.491,525.716,495.938,528.297,499.363z M521.617,489.255c-1.249,3.439-1.873,5.158-3.604,6.702
	c-0.673,0.6-2.471,2.205-5.011,2.401c-2.13,0.165-2.493-0.838-4.432-0.567c-2.642,0.37-3.082,2.387-5.022,2.23
	c-1.677-0.136-2.978-1.987-3.648-3.032c-0.395-0.615-1.918-2.99-1.307-5.823c0.635-2.947,3.17-4.498,5.132-5.699
	c0.912-0.558,2.943-1.801,5.78-2.129c2.814-0.325,3.898,0.543,5.828-0.474c1.342-0.707,2.096-1.795,2.917-1.486
	c0.671,0.252,0.5,1.102,1.315,1.636c1.1,0.72,2.251-0.281,2.945,0.235C523.524,484.003,522.392,487.12,521.617,489.255z
	 M523.044,481.232c-1.541,0.104-3.6-0.117-3.736-0.786c-0.15-0.739,2.245-1.054,4.762-3.225c1.801-1.553,3.073-3.659,5.617-7.87
	c0.481-0.796,1.063-1.796,2.205-2.796c1.168-1.022,1.651-0.932,3.037-1.947c2.108-1.542,1.702-2.27,3.338-3.259
	c0.268-0.162,2.345-1.377,4.916-0.909c1.121,0.204,1.837,0.646,3.268,1.528c1.838,1.133,3.206,1.976,3.174,3.02
	c-0.025,0.814-0.877,0.951-2.167,2.406c-1.541,1.738-1.056,2.368-2.33,3.839c-1.225,1.413-2.694,2.01-4.723,2.835
	c-1.859,0.755-2.229,0.612-4.118,1.243c-1.527,0.51-1.85,0.793-6.443,3.207C525.867,480.609,524.737,481.118,523.044,481.232z
	 M551.364,485.64c-0.281,1.149-2.062,1.732-3.152,1.847c-1.318,0.139-2.323-0.335-2.528-0.435c-1.994-0.978-2.568-3.126-2.871-2.997
	c-0.23,0.098-0.15,1.448,0.606,2.631c0.947,1.482,2.269,1.629,2.219,2.265c-0.049,0.62-1.314,0.616-3.506,1.698
	c-2.159,1.066-2.445,1.817-3.838,1.892c-1.057,0.057-1.9-0.32-2.539-0.607c-0.639-0.286-1.886-0.845-2.636-2.065
	c-0.886-1.441-0.61-3.043-0.806-3.049c-0.23-0.006,0.082,2.225-1.156,3.351c-1.043,0.949-3.03,0.972-4.301,0.114
	c-0.988-0.667-1.266-1.812-1.824-4.101c-0.501-2.06-0.752-3.09-0.262-3.946c0.633-1.107,1.769-0.845,4.107-1.738
	c3.554-1.357,3.299-2.867,6.715-3.979c1.312-0.427,1.007-0.093,4.507-0.903c2.487-0.576,2.948-0.815,3.838-0.6
	c1.624,0.393,2.598,1.8,3.574,3.209c1.189,1.716,0.776,1.969,2.178,4.25C550.883,484.419,551.558,484.847,551.364,485.64z
	 M559.93,480.208c-0.704,0.228-1.144,0.308-7.418,1.733c-0.202,0.046-0.988,0.225-1.188,0.27c-0.181-0.36-0.389-0.757-0.633-1.202
	c-1.223-2.229-1.835-3.344-2.672-4.217c-0.041-0.042-0.079-0.074-0.119-0.115c0.81-0.704,2.045-1.564,3.721-2.028
	c1.632-0.451,3.005-0.36,4.388-0.185c2.076,0.263,5.394,0.853,9.663,2.328C563.44,478.801,561.404,479.731,559.93,480.208z"/>
</svg>
