<svg xmlns="http://www.w3.org/2000/svg" viewBox="0 0 857.83 1325.57"><title>Asset 5</title><g id="Layer_2" data-name="Layer 2"><g id="Layer_1-2" data-name="Layer 1"><path d="M3.12,316.76c.94,7,2,13.88,3.16,20.77,2.2,13.81,5,27.48,7.68,41.14s5.68,27.27,8.75,40.85S29,446.65,32.25,460.2,38.84,487.32,43.07,501a132.66,132.66,0,0,0,8.06,21.12,63.42,63.42,0,0,0,6.45,10.08c2.32,3,4.63,5.64,6.58,8.07a55.22,55.22,0,0,1,4.9,6.84,31.41,31.41,0,0,1,2.92,6.5q.22.77.39,1.5l.08.38,0,.27a3.48,3.48,0,0,1,.12.56,10.92,10.92,0,0,1,.08,2.35,4.76,4.76,0,0,0,0,1.69,3.55,3.55,0,0,0,.34.57.62.62,0,0,1-.11.76L68.46,567a2.66,2.66,0,0,0-.34.51,3.17,3.17,0,0,0-.34,1.4h-.61a17.61,17.61,0,0,0-17.59,17.59v28.8a17.61,17.61,0,0,0,17.59,17.59h4.09c-8.13,11.63-16.51,15.33-26.48,19.72a146.46,146.46,0,0,0-14.18,6.89C7,673,4.36,699,4.34,709.49c-.2,117.18,0,380.31,0,383,0,32.84,28.54,60.53,67.08,68.45-18.26,2.39-33.63,1.32-47.32-3.22l-18.71-6.19,13.2,14.63c31.31,34.7,77,54.65,121.13,54.65a137.68,137.68,0,0,0,33.74-4.11c20.34-5.15,37.85-14.13,54.78-22.81,9.51-4.87,18.78-9.61,28.34-13.63a126.23,126.23,0,0,0-28.75,28.85c-22.88,32.24-31.67,72.47-38.12,107.65l-1.62,8.86,8.48-3c37.51-13.3,73.22-42.36,100.57-81.83,16.37-23.64,24.52-43,35.32-69.26l1.94.22a97.57,97.57,0,0,0,11.17.6,141.18,141.18,0,0,0,18.94-1.38,232,232,0,0,0-6.29,45.73c-.37.14-.74.27-1.1.44a21.37,21.37,0,1,0,16.35-.56h0a21.67,21.67,0,0,0-4.78-1.17,222.69,222.69,0,0,1,7-46.35,189.39,189.39,0,0,0,23.58-6.43A337.23,337.23,0,0,0,421.19,1227a21.36,21.36,0,1,0,21-3.46h0a21.11,21.11,0,0,0-11.57-1,327.45,327.45,0,0,1-20.57-59.82c28.58,20.71,59.26,34.75,82.16,43.42,5.71,2.16,11.33,4.16,16.9,6,14.55,23.67,42.47,40.32,68.78,47.45,18.07,4.91,36.82,6.63,55.32,6.63,20.22,0,40.13-2.06,58.54-4.27l10-1.2-6.69-7.46c-13.29-14.79-30.67-27.9-51-38.76,20.31-5,39.55-16.77,58.22-28.21l3-1.85a14.31,14.31,0,0,0,7.09-12.75,11.57,11.57,0,0,0-6.55-10c6.14.58,12.28,1.07,18.42,1.39,4.55.24,9.3.38,14.2.38,36.46,0,81-7.69,110.76-39.16l8.64-9.16-12.58.37c-25.66.75-51.54-5.09-76.58-10.74-10.19-2.3-20.73-4.68-31.18-6.61h0c-12.34-2.22-28.35-4.52-45.51-4.29,0-.52,0-1,.08-1.57a125.47,125.47,0,0,0,27.41-17.58c30.13-25.61,48.56-62.44,63.48-94.94l3.75-8.18-9,.82c-39.63,3.65-81.4,23-117.63,54.53-2.66,2.32-5.19,4.61-7.62,6.9a85.17,85.17,0,0,0-25.15,1c-3.5-25.09-14.36-49.82-30.24-68.54a30.28,30.28,0,0,0-13.46-9.08c13-16.92,33.17-52.92,47.56-81.43l4.82-9.53-10.48,2.08c-36,7.15-71,26-98.53,53-2.49,2.44-4.82,4.92-7,7.43-1.64-10.19-7.21-20.54-15.77-28.67a60.32,60.32,0,0,0-6.46-5.31A200.89,200.89,0,0,1,519,868.52a21.08,21.08,0,0,0,5.48.9h.62A21.43,21.43,0,1,0,509.84,863a210.08,210.08,0,0,0-21.08,26.61,55.85,55.85,0,0,0-27.41-5.6,198.8,198.8,0,0,1,6.78-40.91,21.37,21.37,0,1,0-23.43-11.33,21.24,21.24,0,0,0,12.37,10.7l.42.12a208.44,208.44,0,0,0-6.66,43c-2.15.5-4.27,1-6.35,1.59a93.66,93.66,0,0,1-12.57,2.68V709.49c0-18.78,0-32.35-26.32-50.07a101.21,101.21,0,0,0-10.94-6c-9.61-4.83-20.14-10.16-26-20.45h.3a17.61,17.61,0,0,0,17.59-17.59v-28.8A17.61,17.61,0,0,0,369,569H355.71l59.53-266.46,2.13-20.15L416.5,202l-6.44-1.07,5.8-25.93-5.07-1.13L404.93,200l-6.29-1L369,271.56l-5.61,19.17L303.91,556.89c1.6-16,3.15-31.56,4.63-46.5,2-19.85,3.81-38.62,5.52-55.95,3.33-34.67,6.11-63.56,8.05-83.78.08-.93.17-1.83.25-2.73a8.43,8.43,0,0,0,1.44-.79,8,8,0,0,0,3.4-6.24,1085.7,1085.7,0,0,1,16.95-148.23,32.47,32.47,0,0,0,6.24-17.57c31-32.41,59.4-66.28,90.8-98.45-38.73-20-77.86-31.07-117.85-32.71-34.43-1.41-59.73.89-100.29,14.78,10.74,39.32,39.08,77.15,66.42,108.74-.14.76-.31,1.5-.42,2.3-1.06,7.93,3.56,16,6.78,21.53,0,47.28-3.18,92.84-7.91,146.57a8,8,0,0,0,2.43,6.5,7.94,7.94,0,0,0,1.71,1.26c-.07.72-.14,1.42-.21,2.16-1.91,20.23-4.64,49.12-7.91,83.79-1.59,17.34-3.31,36.12-5.14,56-1.77,19.53-3.64,40.11-5.58,61.39H249.86L253.2,271a13.37,13.37,0,0,0-.54-3.95c-3.8-12.94-8-32.09-12.92-54.27-2.53-11.48-5.15-23.34-7.93-35.37l-5.73-24.71-4.47,25c-7.11,39.61-17.89,81-20,88.95a13.6,13.6,0,0,0-.44,3.31L198,569H179l-.06-.39c-3.66-23.29-7.2-45.81-10.56-67.17s-6.48-41.55-9.5-60.17c-5-31-9.28-57.66-12.59-78.27l2-.36-20.62-153-11.72-70.15-3-1a38,38,0,0,0-4-1c-8.26-28.3,1-73.18-42.44-137.54-22.9,61.87,1.49,112.1,6.34,144a37.4,37.4,0,0,0-4.69,4.15l-1.78,1.89L77.4,216.35l32.94,153,3-.53c3.34,20.52,7.64,47,12.62,77.7,3,18.62,6.42,38.78,9.93,60.1,3.3,19.86,6.77,40.74,10.35,62.31h-5.82l-76.87-313c-1.16-4.73-5.16-8-9.47-7.76-1,.06-2,.16-3,.24a165.11,165.11,0,0,0-4.26-18.1c-1.08-3.65-2.52-7.34-5.71-9.6-4-2.82-8.29-1.7-10.36-1.16l-8.78,2.28c-1.77.46-6.47,1.68-8.19,6.57-1.08,3.08-.48,6.13.24,9l4.79,19.12c-.26-.16-.51-.33-.79-.47a10.08,10.08,0,0,0-3.65-.94,9.55,9.55,0,0,0-4.67,1A12.44,12.44,0,0,0,5,260.24a18.47,18.47,0,0,0-2.05,3.84,32.26,32.26,0,0,0-1.14,3.19c-.29,1-.53,2.16-.76,3.25-.13.58-.22,1.09-.28,1.57l-.2,1.5c-.94,7.91-.45,15,.21,22.11S2.21,309.79,3.12,316.76Zm421.31,923a11,11,0,1,1,6.42,14.1A10.92,10.92,0,0,1,424.43,1239.74Zm89.68-392a11,11,0,0,1,10.94-10.64h.32a11,11,0,1,1-11.26,10.64ZM130.67,355.15c-2.41-.34-4.86-.75-7-1.18-2.57-.5-5.61-4.06-7.84-8.82L88.56,218.71a3.41,3.41,0,0,1,2.21-3,58.39,58.39,0,0,0,19.28-9.08c-4.07.69-8,2.38-12.07,2.73a12.88,12.88,0,0,1-11.81-5.17c-.12-.16-.21-.34-.32-.5l-8.38-50.06c9.74-8.4,23.31-7,29.28-5.88l10.59,63.42L136.6,354.09ZM14.76,1092.43c0-2.64-.2-265.76,0-382.93,0-10.82,2.77-30.54,21-40.9A138.05,138.05,0,0,1,49,662.18c12.14-5.34,23.69-10.42,34.61-29.25H99L166,911.21c-.34.74-.67,1.49-1,2.24-7.42,17-14,35.45-12.23,55.23.18,2,.47,4,.81,5.94q-6.24-3.86-12.77-7.34C106.14,948.87,68,940.06,30.49,941.81l-6.43.3,1.63,6.23c9.7,36.93,45.38,59.11,73.25,72.86a77.36,77.36,0,0,0-36.73,41.54c-10.44,28.22-4.19,63.15,15,88.63C41.55,1145.48,14.76,1121.3,14.76,1092.43ZM206.88,900.59a51.36,51.36,0,0,0,10.93,4.65c13.1,3.36,24.21-3.49,34-9.52,3.45-2.13,6.72-4.15,10-5.75,22-10.66,53.16-2.19,74,20.13,11.65,12.5,20.22,28.91,25,47.3a205.33,205.33,0,0,0-4.12,36.75,310.57,310.57,0,0,0,1.09,33.25c-1.81,1-3.69,1.89-5.6,2.77-.47-6.2-1.17-12.39-2.15-18.52a239.57,239.57,0,0,0-6.19-28.36A257.94,257.94,0,0,0,334.43,956a131.62,131.62,0,0,0-13.54-25.42c3,9.16,6.09,18.08,8.92,27.1a257.6,257.6,0,0,1,7,27.36c1.78,9.23,3.29,18.49,4.15,27.82q1,10.82,1.32,21.65l-1.78.73c-9.89,4.06-20.1,8.25-28.87,15-1.16.89-2.28,1.83-3.39,2.79-2.39-4.71-4.86-9.38-7.48-14-3.42-5.93-6.82-11.86-10.54-17.59s-7.46-11.45-11.34-17.06a111.7,111.7,0,0,0-13-15.87,187.15,187.15,0,0,0,8.81,18.44q4.77,8.94,9.21,18c2.92,6.08,5.94,12.1,8.72,18.23q3.94,8.57,7.78,17.15c-5.63,5.51-11,10.67-17.57,13.41a31.2,31.2,0,0,1-3.64,1.24,235,235,0,0,1-22.66-19.84A308.4,308.4,0,0,1,233,1028.59c-7.39-9.3-14.33-19-20.94-29S199,979.6,192,969.77a265.57,265.57,0,0,0,15.93,32.44c6,10.46,12.39,20.74,19.31,30.71a273.43,273.43,0,0,0,22.73,28.56q7.14,7.83,15.1,14.94c-3.82-.08-7.76-.38-11.79-.7a150.89,150.89,0,0,0-17.7-.67c-.76,0-1.52.09-2.28.14q-24-22.26-45.94-53.48c-10.95-15.58-22.39-34.18-24.2-54-1.59-17.43,4.54-34.39,11.4-50.11,2.56-5.85,5.17-11.44,9-15.56s8.61-6.13,13.07-5.55C199.88,896.93,203.28,898.7,206.88,900.59ZM205,888.12l2.72-255.19h13.52l-2.83,261.59a58.15,58.15,0,0,1-6.71-3.17C209.54,890.22,207.33,889.07,205,888.12Zm23.83,7.13,2.83-262.32h7.05l-2.92,259.9A32,32,0,0,1,228.84,895.25ZM297.6,632.93h12.19l-55.7,249.34c-2.64,1.44-5.22,3-7.74,4.58l-.06,0,.29-25.55ZM247.14,811l2-178.1h18.32c-.12,1.33-.24,2.64-.36,4-2,22.76-4,45.89-6,69C259,729.42,257,752.91,255,776Zm29.45,64.31c-2.07.2-4.11.49-6.13.89l54.36-243.3h5.93ZM302,809.46c-3.38,20.81-7.53,43.83-11.95,66-.92-.1-1.83-.17-2.74-.24ZM147.8,1076.09a276.74,276.74,0,0,1,28.78,9.91q7.86,3.23,15.54,6.79a71.84,71.84,0,0,0-19.64,28.5,200.81,200.81,0,0,0-27.21,1.18,113.1,113.1,0,0,0-28.31,6.71c9.68-.76,19.17-1.53,28.67-1.8a194.68,194.68,0,0,1,24.64.82l-1.53,5.76,6.25.48a304.54,304.54,0,0,1,59.85,10.74,162,162,0,0,0-56.68,12.06c-3.55,1.47-7.11,3.09-10.55,4.66-12.81,5.85-24.91,11.38-38.14,10.5-12.51-.83-26.11-7.94-37.31-19.51-22.24-23-30.53-58.54-20.18-86.54a67.27,67.27,0,0,1,67.45-43.46c14.71,1,30.43,6.55,48,16.88l.25.15a342.94,342.94,0,0,0,32.76,37.48,70.25,70.25,0,0,0-20.69,9.46c-6.81-2.85-13.72-5.46-20.74-7.68a284,284,0,0,0-30.1-7.87,145.28,145.28,0,0,0-30.83-3.15C128.13,1070.84,138,1073.29,147.8,1076.09Zm-40.16-62.24C82.8,1002,49.36,982.9,37.79,952h1.85c41.79,0,83.58,14,118.12,38,4.17,11.29,10.32,21.82,16.72,31.39-12-5.22-23.36-8.17-34.32-8.93a76.85,76.85,0,0,0-28.27,3.33Q109.76,1014.85,107.64,1013.85Zm89.13-330.32c-2.22-14.45-4.43-28.86-6.62-43.13-.38-2.5-.76-5-1.15-7.47h8.31Zm-7,203.11a27.94,27.94,0,0,0-13.86,8.3,34.32,34.32,0,0,0-2.46,2.95l-63.73-265h17.5C148.75,719.9,170.73,809.11,189.79,886.64Zm33.7,297.93c-16.41,8.41-33.39,17.12-52.59,22-44.18,11.18-95.14-2.74-131.84-34.88,15.62,2,33.17.6,53.72-4.12,11.26,9.09,23.76,14.43,36,15.25,1.17.07,2.33.11,3.49.11,14.41,0,27.24-5.85,39.67-11.53,3.36-1.53,6.83-3.12,10.22-4.52,24.34-10.11,51.74-13.51,78.93-10,5,1.76,9.87,3.7,14.68,5.88C256.66,1167.57,239.86,1176.18,223.49,1184.57Zm65.08,50.22c-24,34.64-54.57,60.82-86.89,74.59,6.13-31.73,14.92-66.5,34.65-94.29,16.63-23.43,45.9-44.49,77.46-44.49a69.33,69.33,0,0,1,7.59.41C311.52,1194.91,303.59,1213.12,288.57,1234.79Zm48.32-91.32a117.5,117.5,0,0,1-21.65-27.55c-2.92-5.17-5.58-10.48-8.58-15.91a55.38,55.38,0,0,0,4.13,18,106.24,106.24,0,0,0,19.52,31.81,95.5,95.5,0,0,0,8,8,85.3,85.3,0,0,1-19.67,2.4c-13.58.3-27.72-5.48-41.38-11.11-2.35-1-4.69-1.94-7-2.87a320.84,320.84,0,0,0-87.87-21.63c8.54-22.39,29.78-38.18,53.62-39.16a141,141,0,0,1,16.46.65c11.52.9,23.43,1.82,34.41-2.75,8.56-3.56,15-9.84,21.19-15.9a113,113,0,0,1,10-9c7.66-5.88,16.8-9.63,26.47-13.6,12.47-5.12,25.36-10.4,35.09-20.7,5.16-5.46,9-11.88,12.65-18.09,2.3-3.88,4.48-7.55,6.95-11,2.77-3.85,9.48-11.86,18.29-13.59-3.55,28-7.47,56.77-15.4,83.64-6.14,20.79-14.21,39.65-23.35,55l-1.54,1.64c-3.51,3.74-7,7.43-10.46,11a.22.22,0,0,0,0-.08,165.53,165.53,0,0,0-1.88-17.4,174.06,174.06,0,0,0-3.69-17,66.87,66.87,0,0,0-6.42-16.16c.2,5.87.92,11.48,1.57,17.09s1.06,11.22,1.28,16.82.26,11.18,0,16.74c-.14,3.26-.37,6.49-.63,9.72q-5,4.73-10.28,9.08A121.18,121.18,0,0,1,336.89,1143.47ZM485,1079.93a223.16,223.16,0,0,0,3.56,27.8,213.05,213.05,0,0,0,5.85,23.38c-6,.65-11.94,1.66-17.82,2.7a200,200,0,0,1-14.69-17.61,145.81,145.81,0,0,0,21.27-53.13l1.45-7.76-7.71,1.72a157.81,157.81,0,0,0-39.69,14.4c-3-7.72-5.64-15.58-8.51-23.57a99.79,99.79,0,0,0,4,25.5l.15.48a173.41,173.41,0,0,0-30.94,22.89,294.5,294.5,0,0,0,10.1-28.67q1.75-6,3.27-12c12.32-12.85,25.38-25,38.24-36.94,11.43-10.61,23.11-21.48,34.3-32.84a90.24,90.24,0,0,1,18.2,25.34c8.45,17.7,4.31,92.25-.39,118.83h-.56q-4.35-12.12-7.56-24.67a267.31,267.31,0,0,1-5.29-26.57,240.18,240.18,0,0,1-2.46-27.1c-.33-9.1-.35-18.22-.63-27.5a123.72,123.72,0,0,0-4.29,27.45A245.21,245.21,0,0,0,485,1079.93Zm-20.26,55.91c-3.34.53-6.63,1-9.9,1.31q-3.53-1.73-6.92-3.48a112.59,112.59,0,0,0,8.24-9.46Q460.23,1130.21,464.77,1135.84Zm-94.95,90.44a10.85,10.85,0,1,1-3.86-.71A11,11,0,0,1,369.82,1226.28Zm-19.2-64.48c12.69-10,23.55-21.6,34.13-32.89,22.3-23.77,45.31-48.3,86.45-59.71-6.93,27.83-22.11,52.37-41.53,66.7C410.07,1150.35,377.41,1160.69,350.62,1161.8Zm145.29,34.68c-22-8.32-51.27-21.66-78.6-41.27a123.68,123.68,0,0,0,14.5-8.12c15.11,2.54,30.27-.14,44.93-2.73,16.32-2.88,31.74-5.6,46.43-1.43,29.55,8.39,64.23,41.92,85,62l1.91,1.84C570.17,1218.81,535.31,1211.4,495.91,1196.48Zm184.15,56.4c-31.72,3.5-67,5.53-99.43-3.27-20-5.43-41-16.72-55-32.5a174.7,174.7,0,0,0,44.29,6.14,147,147,0,0,0,44.22-6.89,82.83,82.83,0,0,0,10.44.7l.93,0C647,1226.76,665.54,1238.92,680.06,1252.88Zm19.77-77.22-3,1.84c-19.9,12.19-40.47,24.8-61.29,28.25a65.61,65.61,0,0,1-10.57.84l-1.52-1.43c-2.4-2.27-5.11-4.89-8.08-7.76-5.29-5.12-11.46-11.09-18.24-17.31,22.12-3.39,39.47-9.56,52.87-17,21.7-1,37.66,1.5,51.23,8.09h0a1.18,1.18,0,0,1,.73,1.14A4,4,0,0,1,699.83,1175.66Zm35.78-67.13c10.24,1.89,20.68,4.24,30.77,6.52,21.43,4.84,43.48,9.82,65.87,10.87-31,25-74.73,28.6-107.48,26.88-16.54-.87-33.4-3-49.71-5l-3.72-.47c11.64-11.46,17.18-23.49,18.65-32.45.56-3.47.94-7,1.25-10.45C707.87,1104.1,723.56,1106.36,735.61,1108.53Zm-68.68-73.6c31.79-27.66,67.87-45.5,102.59-50.88-13.76,29.24-30.85,60.77-56.81,82.85a115.85,115.85,0,0,1-20.05,13.61c.31-5,.71-9.93,1.46-14.8a22.15,22.15,0,0,0-12.33-23.25,86.6,86.6,0,0,0-16.44-6.13Zm-37.79,10.29a76.44,76.44,0,0,1,48,6.58,11.8,11.8,0,0,1,6.65,12.32,232.71,232.71,0,0,0-2,24.5,220.26,220.26,0,0,1-2.09,24.55c-2.94,17.94-25.78,50.29-92.78,57.78h0c-1.81-1.57-3.66-3.14-5.52-4.7,1.5-.28,3-.57,4.48-.91a115.41,115.41,0,0,0,19.44-6.18,126.17,126.17,0,0,0,18-9.34,63.71,63.71,0,0,0,15.24-13c-6,3-11.76,6-17.61,8.74a119.93,119.93,0,0,1-18,6.81,132.45,132.45,0,0,1-18.65,4q-6.9.92-13.81,1.15a207.06,207.06,0,0,0-19.24-13.16c4.59-2.57,9.09-5.29,13.44-8.21A209,209,0,0,0,584.66,1121a232.92,232.92,0,0,0,18.1-17.29,108.73,108.73,0,0,0,15-19.87c-6.35,5.42-12.33,11-18.47,16.34a228.5,228.5,0,0,1-19.13,15.1c-6.65,4.64-13.39,9.1-20.42,13.07q-9.57,5.46-19.51,10.11c-1-.46-1.92-.91-2.88-1.33C555.88,1098,609.62,1049,629.14,1045.22Zm-40-72.06c15.1,17.8,25.27,41.52,28.15,65.45-26,12.81-68.75,54.57-87.2,89.83-1.11.87-2.23,1.74-3.35,2.59q1.44-11.54,3.57-23c1.61-8.87,3.74-17.64,6-26.39s5-17.39,8.14-25.92,6.32-17,9.25-25.8a140.28,140.28,0,0,0-13.81,23.93q-5.79,12.56-10.5,25.63c-3.17,8.69-5.75,17.6-8,26.58-2.08,8.2-3.74,16.53-5,24.91l-.21,0c4.54-27.81,9.16-103.25-.68-123.85a97.8,97.8,0,0,0-6.07-10.85c6.65-8,16.8-16.87,37.31-25.35,7.17-3,14.71-3.66,23.43-4.48l1.73-.16c.65-.06,1.31-.09,2-.09A20.08,20.08,0,0,1,589.13,973.16Zm-54.84-44.22c23.32-22.94,52.26-39.64,82.48-47.75-17.14,33-35.18,62.93-44.37,73.46l-1.07,1.2-.48,0-1.71.16c-9.16.86-17.82,1.67-26.44,5.23-17.55,7.25-29.78,15.34-39.59,26.32q-2.49-3.09-5.23-6c2.82-5.23,5.64-10.38,8.58-15.44,4.41-5.17,8.83-11,11.49-18A145.9,145.9,0,0,1,534.29,928.94ZM454,827.11h0a10.95,10.95,0,1,1,6.34,5.49A10.85,10.85,0,0,1,454,827.11Zm-6.89,70.21a85.88,85.88,0,0,1,13.54-2.8c12.69-1.22,26.29,3.75,36.34,13.3,9.07,8.61,14.11,20.53,12.85,30.36-1.16,9-7.33,16.7-13,23.19-15.55,17.74-33.25,34.18-50.38,50.07-9,8.34-18,16.76-26.91,25.47q1.4-7.08,2.58-14.21c2.24-4.37,4.6-8.67,7.12-12.88a192,192,0,0,1,15.89-22.51,168.39,168.39,0,0,1,19.23-19.94c6.95-6.15,14.28-11.89,21.74-17.78a105.77,105.77,0,0,0-24.83,13.95,175.15,175.15,0,0,0-21.56,18.94,161.45,161.45,0,0,0-14.07,16.67c1-7.51,2-15,2.9-22.43l.65-5.22-5.23-.6c-7.52-.86-15.14,1.47-22.08,6.56,1.15-3.72,2.34-7.41,3.6-11.1a260.74,260.74,0,0,1,10.69-26.15c4-8.55,8.34-17,12.51-25.63a131.72,131.72,0,0,0-16.86,23.34,263.13,263.13,0,0,0-13.08,25.79,245.53,245.53,0,0,0-10.08,27.2c-.2.62-.36,1.25-.55,1.87-1.71,2.64-3.32,5.32-4.88,8-3.54,6-6.89,11.62-11.26,16.24a43.75,43.75,0,0,1-4.2,3.86c-.59-8.85-.86-17.67-.64-26.42.83-32.86,8.77-61,23-81.36,6.36-9.13,12.68-13.79,19.31-14.25.39,0,.78,0,1.19,0a47.93,47.93,0,0,1,7.46.85c2.19.36,4.46.74,6.81.91C432.81,901.08,440.09,899.17,447.12,897.32ZM390,662.68a96.29,96.29,0,0,1,9.8,5.38c21.72,14.62,21.72,23.58,21.72,41.43V889.61l-1.75-.28a47.1,47.1,0,0,0-11.06-.92c-10,.68-18.85,6.79-27.14,18.68a125.57,125.57,0,0,0-15.75,32A114.66,114.66,0,0,0,343.44,903c-13.38-14.35-30.64-23.61-47.82-26.76q11.94-52,23.87-104c1.85-8.06,2.35-19.35-3.82-20.65a1.63,1.63,0,0,0-.76,0l26.51-118.68H357.1C363.66,649.46,378.54,656.94,390,662.68Zm-13.81-47.34a7.18,7.18,0,0,1-7.17,7.17H67.17A7.18,7.18,0,0,1,60,615.34v-9.19H376.16ZM345,569h-5.93L396.49,312.1c.62,0,1.24.06,1.86.06,1.36,0,2.72-.06,4.09-.14Zm28.43-275.62,5.26-18.08,26.4-64.62,1.05.18.77,71.05L405,300.51l-.19.86c-10.79,1.17-21.11-.61-31.92-5.52Zm-2.88,12.87a77.43,77.43,0,0,0,11.33,3.87L324.09,569H311.9Zm-54.38-135c8.55-.42,16.13,3.26,20.37,9.81h0a22.91,22.91,0,0,1-1.39,26.25l-.77,1-.24,1.21c-.14.66-13.36,65.84-17.25,148.09a55.6,55.6,0,0,0-13.78-1.73c-.89,0-1.8.07-2.7.11-.09-6.51.19-17.64.68-31,2.87-36.53,4.75-70,5.06-104,0-.47.05-.94.08-1.39a13.86,13.86,0,0,1,1-5.39c1.27-2.58,11-1,15.54-4.27a23,23,0,0,1-22.16-15,20.61,20.61,0,0,1-1.06-5C302.19,175,313.28,171.33,316.21,171.19ZM222.31,226c1.25,0,2.32-1.14,3-2.21a34.27,34.27,0,0,0,4.15-9.09l.09.4c4.52,20.52,8.48,38.46,12.12,51.55a44.49,44.49,0,0,1-10.19,1.52,62.25,62.25,0,0,1-18.95-2.07C214.42,258.89,218.2,244,222.31,226Zm20.41,51.15L239.44,569h-7.08l3.13-290.69A49.63,49.63,0,0,0,242.72,277.1Zm-31.19-.57a76.87,76.87,0,0,0,13.54,2L221.94,569H208.41ZM369,579.37a7.17,7.17,0,0,1,7.17,7.17v9.19H60v-9.19a7.17,7.17,0,0,1,7.17-7.17ZM24.54,231.91l8.78-2.29a10.28,10.28,0,0,1,1.8-.34c.26.28.84,1.19,1.66,4a153.86,153.86,0,0,1,3.9,16.4,81.92,81.92,0,0,0-12.14,3l-4.46-17.82a18.25,18.25,0,0,1-.53-2.65C23.76,232.13,24.07,232,24.54,231.91Zm-1,34.73c0-.18,0-.36.06-.53a56.51,56.51,0,0,1,10.58-4.28C47.47,312.14,77.77,433.32,111.4,569h-17L89.9,550.4A32.35,32.35,0,0,0,88,542.49l-65.64-273A5.25,5.25,0,0,0,23.55,266.64ZM72.12,521l-.73-.73a50.54,50.54,0,0,1-5.72-6.75,64.93,64.93,0,0,1-8-17.18c-3.89-12.89-7.2-26.27-10.19-39.73s-5.8-27-8.44-40.55C33.81,389,29,361.74,24.72,334.56c-1.39-9-2.75-18-3.92-26.91Z"/></g></g></svg>