<svg xmlns="http://www.w3.org/2000/svg" viewBox="0 0 1001.13 1278.1"><title>Asset 38</title><g id="Layer_2" data-name="Layer 2"><g id="Layer_1-2" data-name="Layer 1"><path d="M1000.87,1119c-1-7.74-4.71-13.55-10.8-16.8-4.44-2.36-7.42-7.6-10.57-13.15-4.28-7.54-9.47-16.63-20-20.44a145.49,145.49,0,0,0,25.36-36.05c8.66-17.65,12.71-36,11.71-53.11a89.85,89.85,0,0,0-24.29-55.91c-6.32-6.63-13-11.47-19.9-14.38-16-6.76-45.66-7.68-76.6,12-1.12.71-2.16,1.47-3.17,2.26.58-11.69.11-21.23-.56-34.51-.2-4.14-.43-8.66-.65-13.74a12.42,12.42,0,0,0-6-10.19,12,12,0,0,0-3.67-1.42c11.86-30,19.5-59.89,22.77-89.47,43.25-42.88,74.6-106.57,80.05-162.9,1-10.36,1.72-24-1.66-37.17-6.95-27.24-31.3-48.71-59.2-52.19a68.43,68.43,0,0,0-26.77,2.06c3.49-2.83,6.73-5.58,9.52-8.23,6.8-6.45,15.59-17,24.55-30.55A119.49,119.49,0,0,0,931.75,459l6.7-11.44L931,449.1c13.74-29.64,24-65.62,22.13-103-.78-15.59-3.11-35.6-14.23-52.05-13.54-20-39.63-30.83-64.92-26.84a76.94,76.94,0,0,0-36.07,16.34,20.27,20.27,0,0,0,.86-2.24c4.46-14-8.09-26.21-12.21-30.21-12-11.68-25.41-23-41.69-26.66a54.38,54.38,0,0,0-10.36-1.25c3.32-2.63,6.59-5.3,9.76-8.08,9.56-8.36,20.54-19.83,20.58-34.36h0c0-9.9-5.12-20-14.47-28.34-9.55-8.52-20.85-12.47-31-10.84-7.43,1.2-14.28,5.32-21,12.59-9.32,10.16-16.17,23.16-20.08,38-.32-3.18-.59-6.06-.81-8.45-.88-9.67-2.1-22.9-11.49-32.2-11.61-11.5-32.85-12.07-46.7-1.37a78.65,78.65,0,0,1,11.89-16.62l18.07-19.14L664.8,124a168,168,0,0,0-69.06,51.37c2.52-7.23,4.83-14.7,5.65-22.62,1.3-12.64-2.2-30.35-16.38-38.68-14.77-8.67-34.28-3.82-54.92,13.68a279.05,279.05,0,0,0-34.23,34.69c-3.85-12.33-9.18-24.15-18.31-33.06a54.55,54.55,0,0,0-8.13-6.48c4.19-.5,8.36-1.08,12.5-1.78,12.53-2.11,27.9-6.12,35.56-18.47,5.21-8.42,6.11-19.69,2.53-31.72-3.65-12.27-11.2-21.56-20.7-25.49-6.95-2.87-15-3-24.46-.27-13.26,3.76-25.91,11.24-37,21.78,1.41-2.87,2.68-5.47,3.75-7.62,4.31-8.69,10.22-20.59,7.1-33.44-3.9-16-22.05-27.78-39.62-25.61C393.77,2.15,380.32,14.1,375.61,30a52.52,52.52,0,0,0-2.06,12.4,59.68,59.68,0,0,0-9.77-6.47c-15-7.89-37.36-8.4-49.07,6.18-10.09,12.55-8.17,33.25,4.47,48.16A59.46,59.46,0,0,0,328,98.63a96.13,96.13,0,0,0-26.59,10.93c-8.64,5.23-14.59,10.92-18.19,17.4-4.89,8.78-5.17,19.32-.75,27.5a28.09,28.09,0,0,0,3.27,4.75c-10,2.21-19.48,6-27.36,9.2-10.88,4.42-25.79,10.46-33.52,23.49-8.55,14.39-5.31,32.55-3.17,44.57,5.64,31.67,12.06,67.68,24.08,102.11q-5.48-5-11.29-9.56c2.5-5.27,3-13.36-2.89-25.47a236.39,236.39,0,0,0-56-73.23c-18.12-15.9-34.25-24.27-50.75-26.34-12.73-1.6-27.74,2.41-32.6,15-4.5,11.63,2.17,23,9.29,32.53,16.85,22.64,35.94,48.3,61.55,65.35,10.92,7.27,23.88,13.56,39.63,19.24A43.83,43.83,0,0,0,217.31,339a20.93,20.93,0,0,0,8.67-1.73,189.3,189.3,0,0,1,21.47,19.34c-34.86-6.57-69.45-1.46-96.83,15.08a106.37,106.37,0,0,0-33.8,32.75l-1.07-.08c-47.1-4-80.32-16.75-101.54-38.92L0,350.62l4.23,20.1c8.7,41.31,38.38,76.88,77.46,92.83a141.65,141.65,0,0,0,18.29,6,81.69,81.69,0,0,0,4.54,19.67l4.63,12.56,6.1-11.92a38,38,0,0,1,14.81-15.35c17.65,1.59,35.56,1.3,53.17,1l9.6-.13c13.35,6.17,25.89,14.88,38.14,23.52-21,12.61-39.62,28.77-57.69,44.46-4.91,4.26-10,8.66-15,12.91-23,19.41-50.73,40.29-82.57,48l-21.53,5.21,21.29,6.13a179.28,179.28,0,0,0,45.58,6.86c-.17.36-.38.7-.55,1.06-6.75,14.19-9.07,31.68-7.1,53.48,3.35,36.91,38.78,78.13,70.29,100.82q7.4,5.32,14.8,10.74c29.57,21.56,60.15,43.85,94,58.93,5.26,2.35,10.48,4.45,16.33,4.45h.72a20.16,20.16,0,0,0,9.17-2.5,56.91,56.91,0,0,0-7.21,7.89,32.87,32.87,0,0,0-3.21,4.88,18.19,18.19,0,0,0-8.38,3.84,18.41,18.41,0,0,0-6.81,12.82c-3.55,40.41,4,85.64,22.29,134.74-4.81.06-9.62.28-14.43.77a223.19,223.19,0,0,1-22.38,1.08c-14.25.11-22.1.18-31.95,15.36-1.53,2.37-7.86,2.89-14.56,3.44-8.92.73-20,1.65-31.44,7-2.63,1.22-6.36,5-18.77,18.08-5.44,5.76-13.61,14.41-15.82,16a34.35,34.35,0,0,1-6.23,1.68,46.5,46.5,0,0,0-7.68,2.06c-17,6.59-23.47,29.14-18.77,46.07,3,10.87,9.39,19.52,16.44,26.21,30.68,43.71,76,67.07,113.55,82.82,55.53,23.28,130.92,35.84,178.61,39.52,37.86,2.93,74.28,4.41,110,4.41,79.92,0,156.5-7.41,238.31-22.66,36.28-6.77,74.78-15.39,110.54-32.56,30-14.39,60.27-31.86,81.41-61.54a12.25,12.25,0,0,0,3.13-2C994.45,1151.07,1002.72,1133.72,1000.87,1119ZM222,317.06c-1.29-1.29-2.69-2.68-4.2-4.13l-4.72-4.58L208,303.53c-1.73-1.66-3.54-3.28-5.33-4.93-3.58-3.31-7.21-6.56-10.64-9.58l-4.93-4.37c-1.58-1.37-3.15-2.6-4.62-3.71s-2.89-2.07-4.16-2.89-2.43-1.5-3.41-2a34,34,0,0,0-3.18-1.57,33.16,33.16,0,0,0,1.52,3.2c.5,1,1.18,2.14,2,3.45s1.74,2.71,2.82,4.2,2.29,3.08,3.65,4.68,2.79,3.27,4.28,5c3,3.48,6.16,7.17,9.41,10.79,1.62,1.82,3.21,3.66,4.84,5.42s3.21,3.5,4.75,5.19l4.49,4.79c1.43,1.53,2.8,3,4.07,4.26l1.7,1.75a38.74,38.74,0,0,1-8.54-2.15c-14.85-5.35-27-11.22-37.11-18-23.91-15.93-41.57-39.65-58.64-62.59-5.21-7-10.2-15-7.76-21.3a7.8,7.8,0,0,1,.45-1l.92.18,1.38.33,3.12.77c1.12.24,2.3.7,3.54,1.07s2.53.77,3.78,1.29l3.87,1.51,3.78,1.76c1.28.56,2.45,1.24,3.62,1.87s2.32,1.21,3.33,1.88l2.92,1.84c1.84,1.11,3.2,2.26,4.25,3l1.6,1.17-1.25-1.53c-.83-.95-1.89-2.45-3.41-4l-2.42-2.58c-.84-.94-1.85-1.79-2.84-2.75s-2-2-3.17-2.85l-3.42-2.82-3.59-2.61c-1.18-.9-2.42-1.64-3.61-2.4-.76-.46-1.48-.92-2.2-1.37a29.17,29.17,0,0,1,5.71-.56,30.57,30.57,0,0,1,3.84.24c14.07,1.77,28.2,9.24,44.48,23.52A224.41,224.41,0,0,1,221,308.7c1.15,2.34,3.08,6.82,3.41,10.79C223.68,318.72,222.88,317.92,222,317.06ZM863.77,986.19c1-20,2.19-44.88,18.27-55.11,27.11-17.24,52.36-16.75,65.74-11.09,5.4,2.28,10.77,6.21,16,11.67a77.88,77.88,0,0,1,21.07,48.49c.88,15.08-2.76,31.42-10.53,47.26-16.94,34.54-51.27,62.85-96.68,79.71-12.45,4.63-57.92,25.19-69.25,30.79a162.08,162.08,0,0,1-46.67,14.81c-6.07,1-15,.3-15.84-4.12-.52-2.64,2-6.12,7.62-10.65,6.59-5.28,13.41-10.75,21.15-13.28,4.51-1.47,9.41-2,14.6-2.52l1.66-.17c37.39-4,70.32-13.6,97.9-28.57,32.09-17.42,57.81-43.1,72.39-72.29,9.72-19.44,12.08-37.49,6.82-52.21-6.34-17.72-24.63-29.84-43.23-29.84a41.92,41.92,0,0,0-8.55.88c-21.25,4.48-37.26,25.74-35.69,47.4.17,2.35.49,4.78.79,7.13,1.2,9.27,1.69,15.55-2.22,18.3a6.12,6.12,0,0,1-4.93.71,12.65,12.65,0,0,1-7.76-5.84C863.26,1002,863.34,994.9,863.77,986.19ZM783,1111.05a324.65,324.65,0,0,0,42.24-51.51c2-3,3.92-6.08,5.8-9.14,2.63.52,5.25,1,7.89,1.58,8.55,1.76,19.56,2.69,30.21,3.59,9.74.83,19.81,1.68,27.4,3.13a73.84,73.84,0,0,1,15.35,5,177.89,177.89,0,0,1-28.69,19.39c-26.22,14.24-57.69,23.39-93.54,27.21l-1.63.17C786.36,1110.66,784.68,1110.84,783,1111.05Zm88.58-86.12a17.62,17.62,0,0,0,14.28-2.56c10-7,8.39-19.43,7.1-29.39-.29-2.3-.57-4.46-.72-6.48-1.14-15.75,10.95-31.81,26.41-35.07s33,6.55,38.31,21.43c5.25,14.69-.5,31.5-6.26,43a146,146,0,0,1-29.26,39.27c-7.14-3.31-14.57-6.42-22.7-8s-18.57-2.45-28.61-3.3c-10.31-.87-21-1.77-28.84-3.39l-3.93-.8a303.65,303.65,0,0,0,16.11-32.92,30.92,30.92,0,0,0,2.71,6.6A24.38,24.38,0,0,0,871.57,1024.93ZM846.73,869c-3.29,2.45-6.46,5.27-9.57,8-5.22,4.67-10.62,9.5-15.31,11.14-3.68,1.29-8.19.61-13-.1s-10.36-1.54-15.89-.38c-7.12,1.49-12.69,5.87-17.61,9.72-3.53,2.78-6.88,5.41-10.46,6.84-7.41,3-16,1-25.12-1-7.46-1.68-15.19-3.41-23.16-2.76-8.47.69-16,4-23.28,7.16C687,910.4,681,913,674.84,913.76c-8.27,1-16.67-1.34-25.58-3.82a127.25,127.25,0,0,0-18.09-4.09c-14.48-1.82-28.82,1.27-42.69,4.26-16.46,3.54-32,6.89-46.49,2a88.44,88.44,0,0,1-11-4.87c-3.11-1.55-6.32-3.14-9.72-4.48a65.91,65.91,0,0,0-45.39-.86c-2.15.75-4.24,1.61-6.25,2.44-4.28,1.76-8.32,3.43-12.35,3.85-.4,0-.8.07-1.2.09-2.51-5.94-5.47-12.48-8.36-18.85-2.27-5-4.58-10.11-6.67-14.92,2.14.36,4.31.77,6.53,1.2,2.8.54,5.71,1.1,8.62,1.54a109.13,109.13,0,0,0,65.16-10.54c1.29-.65,2.58-1.34,3.88-2l2.33-1.23c.76,1.24,1.85,3,3.17,5.09l2.18,3.38c.8,1.2,1.46,2.47,2.25,3.78l4.94,8.19c1.55,2.89,3.17,5.76,4.71,8.46.75,1.36,1.53,2.65,2.17,3.91l1.9,3.55c2.33,4.4,4.05,7.32,4.05,7.32s-.54-3.3-1.6-8.23l-.84-4c-.29-1.42-.77-2.85-1.18-4.37-.84-3-1.76-6.28-2.75-9.5s-2.26-6.4-3.31-9.41c-.57-1.47-1.06-3-1.63-4.28l-1.55-3.71c-.75-1.77-1.42-3.29-2-4.51a18.41,18.41,0,0,1,3.67-.5c3.68-.09,7.5,1,11.58,2.2a77.51,77.51,0,0,0,8.83,2.19c19.67,3.34,36.29-7.14,52.35-17.28,3.33-2.1,6.69-4.21,10.09-6.21.05.14.11.28.17.43.76,1.79,1.87,4.33,3.27,7.36.71,1.51,1.49,3.14,2.31,4.87s1.73,3.51,2.66,5.38c1.85,3.74,3.91,7.67,6.12,11.57s4.45,7.77,6.66,11.34,4.44,6.83,6.45,9.57,3.81,5,5.14,6.47,2.15,2.35,2.15,2.35-.14-1.17-.53-3.14-1-4.76-1.94-8-2.1-7-3.55-10.91-3.17-8-4.8-12.12c-.86-2.05-1.74-4.08-2.54-6.12s-1.62-4-2.44-6-1.58-3.79-2.37-5.52l-2.21-4.92c-1.39-3-2.6-5.52-3.48-7.26-.19-.37-.35-.69-.51-1a61.78,61.78,0,0,1,11.48-4.08A103.08,103.08,0,0,1,659.2,828c6.41-.69,13-1.4,19.53-3.76,13.14-4.81,22.22-15,31-24.84,2.53-2.84,5-5.61,7.54-8.22l1,1.77,1.53,2.73,1.53,3,3.52,6.72c1.24,2.38,2.46,5,3.78,7.65s2.7,5.41,4,8.26,2.62,5.73,3.93,8.61,2.47,5.85,3.68,8.73,2.27,5.77,3.35,8.56l1.62,4.09c.54,1.34,1.11,2.63,1.54,3.93.93,2.58,1.89,5,2.78,7.25.43,1.13.88,2.21,1.32,3.23l1.05,3c.71,1.84,1.31,3.47,1.87,4.8,1.07,2.66,1.8,4.19,1.8,4.19s.13-1.65.15-4.55c0-1.44,0-3.2,0-5.22,0-1-.09-2.08-.13-3.21s-.22-2.3-.38-3.53c-.3-2.45-.62-5.12-1-7.93s-1.16-5.69-1.84-8.71-1.47-6.12-2.49-9.2-1.93-6.25-2.91-9.4c-1.16-3.08-2.32-6.17-3.47-9.2s-2.42-6-3.68-8.79-2.39-5.58-3.73-8.12l-3.72-7.17-1.7-3.16-1.6-2.7-2.39-3.91c.88-.64,1.76-1.26,2.67-1.85,5.38-3.47,11.62-6,18.23-8.58,12.15-4.84,24.72-9.84,32.29-21.6a42.69,42.69,0,0,0,4.44-9.51q1.07,3.2,2.12,7.11c1.83,6.95,4,15.06,6.25,23.74,1.12,4.35,2.28,8.84,3.47,13.41s2.33,9.19,3.43,13.82,2.12,9.29,3.1,13.86,1.82,9.1,2.53,13.49c.39,2.19.71,4.35,1,6.46s.7,4.18.95,6.2c.64,4,1.12,7.86,1.63,11.41s.88,6.82,1.26,9.72.7,5.46.87,7.57c.45,4.22.84,6.69.84,6.69s.72-2.35,1.75-6.55a120.84,120.84,0,0,0,2.46-17.67q.12-2.77.25-5.76c.07-2,0-4,0-6.16s-.11-4.29-.27-6.5-.28-4.48-.55-6.76c-.44-4.59-1-9.3-1.72-14.08-.36-2.38-.73-4.78-1.09-7.2s-.87-4.8-1.31-7.2c-.93-4.8-1.9-9.58-2.92-14.26S806.1,773.43,805,769s-2.18-8.68-3.25-12.68-2-7.8-3.12-11.39-2.14-6.91-3.33-9.85c-.6-1.47-1.14-2.84-1.77-4.1s-1.1-2.39-1.76-3.49l-1.65-2.86c-.46-.68-.85-1.26-1.17-1.72l-.19-.28a38.64,38.64,0,0,1,4.48-11.45c2.91-4.56,7.49-8.45,12.34-12.57,5.9-5,12.36-10.53,15.76-17.85l1.38,3.48c.81,2.1,1.72,4.25,2.55,6.52l2.51,7.07c.42,1.21.89,2.43,1.29,3.69l1.19,3.82c.78,2.59,1.68,5.2,2.46,7.9,1.46,5.42,3.1,11,4.33,16.77,1.47,5.72,2.48,11.64,3.66,17.53.86,5.93,1.92,11.86,2.53,17.74.8,5.87,1.14,11.69,1.6,17.32.12,2.82.25,5.6.37,8.31.06,1.36.13,2.71.2,4s0,2.64.05,3.93c0,2.6.11,5.12.16,7.57s-.08,4.8,0,7.08,0,4.46,0,6.53-.11,4-.16,5.9-.1,3.6-.1,5.22-.13,3.08-.19,4.42c-.21,5.36-.21,8.47-.21,8.47s1-2.93,2.41-8.14c.35-1.3.77-2.74,1.15-4.33s.71-3.31,1.1-5.15.82-3.81,1.19-5.89.65-4.28,1-6.58.67-4.7.92-7.19.47-5.07.64-7.73c.08-1.33.2-2.67.26-4s.08-2.75.12-4.15c.08-2.79.15-5.65.14-8.56-.17-5.82-.2-11.84-.71-17.94-.27-6.12-1.1-12.28-1.79-18.47-1-6.14-1.8-12.32-3.09-18.31-1.12-6-2.69-11.87-4.07-17.55-.76-2.82-1.59-5.57-2.39-8.27l-1.19-4c-.41-1.31-.88-2.58-1.31-3.85l-2.54-7.39c-.83-2.38-1.8-4.62-2.65-6.8-.67-1.67-1.3-3.28-1.94-4.83a119.61,119.61,0,0,0,31.12-10.11,256.83,256.83,0,0,1,11.26,75C874.71,782.07,865.33,825.51,846.73,869ZM442,905.16c-3.44-1.47-6.92-3.28-10.49-5.15-10.58-5.53-21.52-11.26-34.1-9.08a55.19,55.19,0,0,0-8.92,2.58c-3.21,1.13-6.23,2.21-9.05,2.28-7.35.23-13.3-5.88-20.1-12.89a90.27,90.27,0,0,0-12.2-11.13c-6.54-4.64-16.18-7.08-25.31-8.58,2.92-3.51,7-7.43,9-7.92,4.76.94,9.05,4.67,13.59,8.61l.4.35c11.56,10,25.62,20.25,42.26,19.9,8.26-.17,15.72-3,22.93-5.64,5.72-2.13,11.13-4.15,16.61-4.77.45-.05.91-.06,1.36-.1,2.65,6.41,5.92,13.65,9.11,20.67C438.71,897.91,440.38,901.58,442,905.16ZM220.27,693c5.16,7,15.39,9.36,24.32,5.67.35-.15.69-.33,1-.49.53,1.73,1,3.47,1.59,5.21a463.9,463.9,0,0,0,34.32,79.36c-5.61-3-11.32-5.74-16.91-8.42-4.35-2.07-8.83-4.22-13.14-6.43a260,260,0,0,1-78.35-62c-11.54-13.53-24-33.36-17.78-51,5.29-15,21.92-22.18,34.55-23.77,6.75-.85,16.47-.87,24.49,3.85,6.93,4.07,11.26,11.62,10.55,18.37-.37,3.46-1.95,7-3.63,10.73-.77,1.72-1.57,3.51-2.28,5.36C215.46,678.7,215.9,687.05,220.27,693Zm20.86-111.38q2.72-2.16,5.37-4.36A131.89,131.89,0,0,0,241.13,590c0-.05-.12-.08-.17-.13C241,587.07,241,584.32,241.13,581.59Zm6.48,100.15a19.58,19.58,0,0,1-7.51,6.06c-3.82,1.58-8.49.78-10.39-1.8-2.66-3.6-.7-9.84.27-12.35.6-1.56,1.3-3.13,2.05-4.79,2-4.41,4-9,4.58-14.29v-.06q1.08,4.47,2.58,8.81A112.9,112.9,0,0,0,247.61,681.74ZM291,540.21c27.43-21.44,64-32.74,104.8-32.74a233,233,0,0,1,25.33,1.4c7.68.85,18.11,2.69,27.62,6.69l-.59.06-5.14.58c-1.78.28-3.59.68-5.51,1s-3.93.69-5.95,1.26l-6.26,1.82c-1.06.32-2.16.6-3.24,1l-3.25,1.23c-2.18.86-4.44,1.67-6.67,2.64a130.47,130.47,0,0,0-13.28,6.92,70.32,70.32,0,0,0-6.49,4.13l-6.46,4.65A129.42,129.42,0,0,0,374.7,551a132.36,132.36,0,0,0-9.88,11.2c-1.47,1.89-2.74,3.9-4.06,5.78l-1.93,2.82c-.62.95-1.14,1.94-1.69,2.88l-3.09,5.59c-1,1.81-1.7,3.68-2.48,5.42s-1.5,3.41-2.13,5-1,3.21-1.52,4.68-.91,2.84-1.29,4.11-.56,2.49-.81,3.57c-.89,4.32-1.3,6.77-1.3,6.77s1.15-2.26,3-6.19c.46-1,.9-2.09,1.52-3.24s1.32-2.37,2-3.69,1.46-2.72,2.25-4.19,1.82-2.92,2.78-4.47,1.91-3.2,3-4.81,2.34-3.23,3.57-4.91c.6-.85,1.17-1.73,1.83-2.57l2.06-2.49c1.4-1.67,2.77-3.42,4.25-5.11a121.15,121.15,0,0,1,9.78-9.71c3.22-3.14,7.45-6.06,11.33-9.11-.31.24-.06.05-.11.1l0,0,.1-.06.19-.12.37-.24.76-.48,1.5-1,3-1.92A61.3,61.3,0,0,1,404,541.2a127.3,127.3,0,0,1,12.41-5.84c2.07-.81,4.17-1.44,6.18-2.17l3-1.05c1-.32,2-.54,3-.82l5.73-1.51c1.86-.45,3.69-.7,5.43-1.06s3.42-.68,5-.92l4.45-.46,3.9-.43c1.23-.11,2.49-.07,3.56-.12l.42,0c-1.63,9.66,1.46,20.19,9.21,31.34h0c1,1.39,2,2.73,3,4.06a60.87,60.87,0,0,1-13.27,18.28c-7.7,7.25-16.6,12.92-26,18.93-6.1,3.88-12.4,7.9-18.34,12.37a143.93,143.93,0,0,0-55.37,93.51c-.23,1.57-.45,3.16-.67,4.78-1.85,13.68-3.78,27.83-13.72,33.5-7,4-16,2.13-22.17-.94-7.83-3.92-14.4-10.57-20.75-17-18.53-18.75-39.52-40-48.62-66.17C236.42,619.62,253.53,569.46,291,540.21Zm127.68,80.94c5.58-4.2,11.68-8.09,17.58-11.85l.87-.55c.32.22.52.34.52.34s0-.22-.13-.6c9.08-5.79,18.39-11.82,26.51-19.47a73.75,73.75,0,0,0,13.59-17.26c15.32,15.59,34.71,26.54,52.91,36.22l1.55,2.25c1.43,2,2.86,3.95,4.24,5.75a49.79,49.79,0,0,0,4.22,4.79c2.78,2.84,5.16,5.13,6.92,6.66s2.82,2.34,2.82,2.34-.32-1.34-1.06-3.54-1.87-5.28-3.33-8.86c-.22-.53-.48-1.09-.72-1.64l37.42,19.79c-6,.61-11.92,1.77-17.77,2.92-10.8,2.13-21,4.14-30.87,2.66-9.68-1.45-18.82-6.2-28.49-11.23-13.38-7-27.2-14.14-43.05-12.28-5.8.68-11.16,2.54-16.34,4.34-5.78,2-11.24,3.91-16.64,3.91h-.32a27.47,27.47,0,0,1-12.19-3.29C417.46,622.09,418,621.6,418.63,621.15Zm122.8-20.64c-23.33-12.33-49.77-26.31-65.6-49.07h0c-6.1-8.77-8.52-16.59-7.18-23.24a21.71,21.71,0,0,1,5.5-10.19l3.47.06c.85,0,1.83,0,2.83,0l3.19.16,3.63.17,4.08.36c1.42.15,2.9.22,4.44.4l4.73.58c1.63.17,3.29.44,5,.72s3.45.51,5.21.83c3.51.71,7.16,1.38,10.81,2.29s7.36,1.91,11.06,2.92c3.65,1.18,7.36,2.24,10.89,3.59s7,2.73,10.39,4c1.67.69,3.29,1.44,4.89,2.14s3.18,1.36,4.67,2.1c3,1.43,5.87,2.77,8.46,4.12l3.76,1.89,3.33,1.81,3,1.57,2.48,1.41c3,1.7,4.78,2.63,4.78,2.63s-1.37-1.43-3.88-3.85c-1.23-1.24-2.82-2.63-4.67-4.2l-3-2.5c-1.05-.86-2.21-1.7-3.41-2.6s-2.44-1.85-3.77-2.77l-4.17-2.76c-2.85-2-6-3.67-9.3-5.56s-6.78-3.57-10.4-5.17-7.32-3.17-11-4.7c-3.8-1.33-7.58-2.76-11.4-3.87s-7.59-2.12-11.27-3.07c-1.84-.44-3.67-.79-5.46-1.18s-3.54-.72-5.26-1c-3.44-.57-6.69-1.09-9.72-1.36l-3.06-.31a133.16,133.16,0,0,1,126.92,3.12c38.34,22.59,63.58,65.92,64.31,110.41.17,10.8-1.23,18.78-4.43,25.12-3.73,7.41-10.48,12.52-17.19,13-6.3.47-12.5-2.53-20-6.5Zm98.08-363c.87-6,1.61-12,2.34-18l.42-3.37.64,0c11.55,0,24.1,4.32,37.33,12.87,6.46,4.17,12.69,9,18.72,13.71.65.51,1.32,1,2,1.54a10.92,10.92,0,0,0-1.9,6.12,11.87,11.87,0,0,0,.19,2.06l-3.75,1.44c-6.56,2.52-13.35,5.14-20.12,7.2-15.88,4.85-29.59,5.64-40.81,2.38,1.8-7.07,3.17-14.26,4.3-21.46l19.93.4Zm66.77,24.81.46.31c-1.65,4.77-3.16,9.55-4.62,14.26-1.06,3.41-2.16,6.87-3.3,10.32a200.61,200.61,0,0,0-51.88.74,93.8,93.8,0,0,1,12.15-11.39,113.34,113.34,0,0,0,19.69-4.25c7.17-2.18,14.15-4.88,20.91-7.48Q702.95,263.56,706.28,262.31Zm-64.87,14.38a99.42,99.42,0,0,0-11.89,14.66q-3.07.75-6.12,1.61c.48-.9,1-1.79,1.44-2.7a122.65,122.65,0,0,0,6.4-15.58A60.43,60.43,0,0,0,641.41,276.69Zm2,23.7a184.61,184.61,0,0,1,32.21-2.81c45.29,0,91,16.18,125.54,45.25-8,8.46-20.8,12-30.7,13.38-5.15.75-10.53,1.17-15.74,1.57-9.46.74-19.25,1.51-28.79,4.2-28.6,8.06-49.43,31.63-66,53.61q-3.12,4.14-6.22,8.34c-14,18.89-28.55,38.42-48.24,50.34A112.51,112.51,0,0,1,583,484.43c-32.31-7.44-67.26-3.8-96.92,11.07l1.46-2.69,2-3.71c.74-1.26,1.55-2.53,2.38-3.89,1.67-2.69,3.46-5.62,5.31-8.74.48-.78.93-1.58,1.44-2.37l1.61-2.36,3.31-4.88c2.26-3.3,4.5-6.8,7.13-10.09s5.11-6.78,7.69-10.21l8.23-9.79c2.62-3.33,5.53-6.29,8.26-9.26l4-4.35,2-2.11c.66-.69,1.35-1.32,2-2,2.63-2.6,5.13-5.05,7.38-7.39l3.25-3.35,3-2.89c1.88-1.85,3.53-3.47,4.86-4.85,2.68-2.73,4.15-4.39,4.15-4.39s-1.93,1-5.21,3c-1.64,1-3.61,2.23-5.87,3.67l-3.56,2.35c-1.23.85-2.46,1.84-3.76,2.84-2.62,2-5.39,4.23-8.34,6.59-1.5,1.15-2.92,2.47-4.37,3.82l-4.46,4.1c-3,2.8-6.24,5.61-9.18,8.79l-9.11,9.47c-2.87,3.35-5.73,6.7-8.56,10s-5.37,6.74-7.87,10l-3.68,4.87-1.78,2.36c-.57.79-1.1,1.61-1.63,2.4-2.15,3.17-4.15,6.2-6,9-.91,1.4-1.81,2.74-2.61,4l-2.1,3.63c0-.15-.06-.29-.1-.43.09-.37.19-.74.28-1.11,7.58-29.17,15.41-59.33,29.65-86.16C534.4,348.48,586.54,310.52,643.39,300.39Zm69.76-11a137.22,137.22,0,0,1,6.21-23c11.18,13,24,22.95,37.7,29.24,2.18,1,4.39,1.87,6.61,2.68.32.7.64,1.41.93,2.12.85,2.12,1.57,4.28,2.2,6.46A212.11,212.11,0,0,0,713.15,289.36Zm106,9.05c1.62-.64,3.23-1.31,4.8-2.07.76-.37,1.47-.76,2.17-1.15-1.59,1.89-3.11,3.85-4.55,5.9-.68-.84-1.36-1.62-2-2.33C819.37,298.63,819.23,298.53,819.11,298.41Zm49.06,18.69c5.29-3.25,13.3-6.85,21.41-5.51s15.61,7.76,19.73,16.78c3.5,7.65,4.86,17,4.28,29.32C912.18,388,898.42,420,881.36,449.52a182,182,0,0,1-24.72-7.13c.6-9.81.83-19.65.55-29.49-.71-23.94-4.61-46.19-11.46-66.09a125.21,125.21,0,0,0,18.9-27.22A40.19,40.19,0,0,1,868.17,317.1Zm-102.39,84a207.58,207.58,0,0,0-19.95-6.55l.37-.07c7.9-1.66,15.93-3.35,23.88-5.34A34.79,34.79,0,0,1,765.78,401.12Zm16.8-15.41c3.87-1.18,7.7-2.47,11.45-3.91a141,141,0,0,0,15.48-7l.37,1q.95,2.42,1.92,4.94c1.29,3.34,2.3,6.67,3.54,10.12s2.25,7.11,3.37,10.69,2,7.26,3,10.83c.87,3.6,1.73,7.15,2.57,10.59.49,2.11.92,4.17,1.35,6.19L822,427.34c-3.63-1.79-7.28-3.61-10.92-5.43-11.26-5.62-22.66-11.31-34.31-16.33C780.13,399.46,781.54,392.43,782.58,385.71Zm52.15,46.05c-.28-3.34-.47-6.9-1-10.52s-1.15-7.36-1.75-11.16-1.49-7.61-2.33-11.43-1.92-7.59-2.87-11.33c-1.14-3.72-2.24-7.51-3.42-10.93l-1.77-5-.44-1.21-.12-.3,0-.15-.09-.22,0-.08-.29-.62-.21-.44A132.36,132.36,0,0,0,836.43,356a215.23,215.23,0,0,1,9,57.21c.24,8.21.09,16.44-.33,24.67q-5.21-2.16-10.29-4.48C834.81,432.88,834.78,432.32,834.73,431.76Zm-44.91-60.91c-14.38,5.51-30.47,8.9-46,12.17-9.47,2-19.23,4.05-28.7,6.59H715a122.2,122.2,0,0,0-16,.35c9-7.51,19-13.54,30.12-16.69,8.43-2.38,17.22-3.06,26.52-3.79,5.4-.42,11-.86,16.5-1.66,19.67-2.83,34.19-10.63,42-22.54l2.77-4.22-3.76-3.37a193.72,193.72,0,0,0-15.74-12.63c21.12-5.35,44-12.51,62.86-24.89C849.08,332.06,823.7,357.84,789.82,370.85Zm19.83-61.31.15-2.11a.74.74,0,0,1,.54-.69.56.56,0,0,1,.69.14c.5.53,1,1.13,1.55,1.78C811.6,309,810.63,309.26,809.65,309.54Zm-11.55-2.92-.44,6.26c-2,.51-3.92,1-5.86,1.49-2.55.64-5.14,1.26-7.73,1.88-1.21-.74-2.43-1.48-3.67-2.2a81.31,81.31,0,0,0-2.81-12,82.75,82.75,0,0,0,14.56,1.33c2.25,0,4.49-.12,6.71-.31A13,13,0,0,0,798.1,306.62ZM686.7,650.88c5.36-10.65,5.81-22.56,5.68-30.59-.07-4.29-.36-8.56-.84-12.82a176.31,176.31,0,0,0,21.31,29.19,117.68,117.68,0,0,0,15,13.63c-5.42-1.88-11-3.61-16.87-4-8.71-.59-16.74,1.84-24.46,4.85C686.6,651.05,686.65,651,686.7,650.88Zm34.76-22.19c-13.32-14.4-22.62-31.52-32.46-49.64-6.91-12.73-14.06-25.85-22.71-37.91A145,145,0,0,0,642.2,514.3a174.48,174.48,0,0,0-38.12-25.92c2.52-1.26,5-2.6,7.43-4.07a113,113,0,0,0,16.68-12.49c30.58.29,60.73,6.71,85.94,25,25.9,18.79,42.79,48,59.12,76.24,2.06,3.55,4.11,7.1,6.18,10.62C796,612,816.83,642.39,846.76,659,804.11,673.93,752.23,662,721.46,628.69ZM799,533.32c.39,5.61.66,11,1,16.19q.19,3.87.38,7.52t.41,7c.25,4.51.55,8.66.83,12.34s.59,6.9.9,9.54.63,4.73.9,6.14.45,2.14.45,2.14,0-.75.15-2.17.33-3.49.58-6.12.57-5.84.92-9.51.67-7.82.93-12.36q.18-3.41.38-7.08c.06-2.45.13-5,.21-7.59.15-5.22.07-10.72,0-16.42-.07-3.74-.18-7.58-.33-11.46,4,.39,8,.6,12,.6a127.76,127.76,0,0,0,15.38-1c-.23,1.32-.47,2.64-.7,4l-.7,4c-4.41,25.06-13.18,50.4-26.09,75.42-6.22-8.77-11.87-17.88-17.1-26.79q-3.07-5.25-6.13-10.56c-14.54-25.14-29.53-51-51.12-70.63-.36-1.2-.73-2.39-1.13-3.54l2.11,1.12c18,9.62,36.68,19.57,57.15,24.6,2.48.61,5,1.13,7.49,1.58C798.34,524.71,798.71,529.08,799,533.32Zm26.2,59.52,1.24-2.85c.08.78.18,1.55.29,2.31-.17.05-.33.09-.49.15Zm6.3,24.22c-.7-5.38-1.31-10.15.14-13.5,1.73.65,4.16,3.05,6.27,6.34a221.55,221.55,0,0,1,21,42.09,105.3,105.3,0,0,1-27.26-18.46C833,628.1,832.21,622.34,831.53,617.06Zm-11.23,4.88q-1.95-2.22-3.84-4.52a6.69,6.69,0,0,1,3.18-.88c.08.68.17,1.35.26,2C820,619.7,820.18,620.83,820.3,621.94ZM884,705a261.06,261.06,0,0,0-10-45.42l1.67-.83-2.23-.87a238.38,238.38,0,0,0-17-39.8l.27-.11c4-2,6.47-5.51,8.25-8.09l14.2-20.59c4.2-6.08,8.54-12.37,14.12-16.74s11.95-6.15,17.15-4.87c9.86,2.44,14.08,14.57,15.14,18.23,4,13.85,1,28.36-3.31,45.89C913.87,665.45,895.69,689.82,884,705Zm18.21-171.48c22.86,2.85,43.59,21.13,49.29,43.46,2.92,11.45,2.25,23.72,1.34,33.13C948,659.54,922.23,715,885.89,755.56q.23-4.65.31-9.27,1-1.26,2.52-3.12c2.72-3.46,6.68-8.42,11.28-14.49,2.35-3,4.74-6.38,7.32-9.92s5.18-7.38,7.81-11.39l4-6.16c1.31-2.09,2.57-4.27,3.86-6.44l1.91-3.29c.61-1.12,1.21-2.25,1.81-3.37l1.82-3.4.91-1.69.28-.53.2-.43.41-.85c1.09-2.27,2.17-4.55,3.25-6.81s2-4.76,3-7.1l1.46-3.53,1.25-3.54c.81-2.35,1.67-4.65,2.41-6.94s1.29-4.61,1.91-6.85a66,66,0,0,0,1.57-6.62c.43-2.16.84-4.27,1.24-6.31s.51-4.06.73-6,.48-3.73.55-5.49.09-3.41.13-5,.08-3,.09-4.36-.16-2.58-.23-3.7c-.33-4.45-.6-7-.6-7s-.45,2.53-1.09,6.88c-.16,1.09-.3,2.29-.51,3.6s-.59,2.69-.88,4.19-.63,3.07-1,4.74-.86,3.39-1.3,5.2-1,3.67-1.45,5.61-1.25,3.88-1.9,5.91c-1.12,4.09-2.91,8.22-4.44,12.57-.86,2.15-1.83,4.3-2.75,6.49-.47,1.1-.94,2.19-1.41,3.3l-1.59,3.22c-1.09,2.16-2.06,4.31-3.26,6.51l-3.63,6.62-.46.83-.22.41s.08-.16,0,0l0,0-.06.1-.12.2L920,680l-1.91,3.16-1.91,3.15c-.68,1-1.35,2-2,3.06-1.36,2-2.62,4.07-4,6l-4.06,5.79c-1.3,1.92-2.73,3.73-4,5.54s-2.6,3.59-3.92,5.27l-7.39,9.56q-2.58,3.33-4.85,6.18c-.09-1.87-.18-3.75-.3-5.61,1.48-2.14,3.62-4.9,6-8,12.2-15.7,32.62-42,41.9-79.57,3.74-15.14,8.39-34,3.19-52-4-13.83-12.83-23.68-23.59-26.35-8.81-2.17-18.72.39-27.2,7-7,5.47-12.06,12.82-16.54,19.31l-14.21,20.59c-1.16,1.68-2.47,3.58-3.77,4.22a2.74,2.74,0,0,1-1.1.27c-.84-1.37-1.67-2.76-2.53-4.12a30.48,30.48,0,0,0-8.75-9.3c-2.5-9.31-.94-20.59,4.61-30.79C854.71,543.24,879.3,530.63,902.16,533.49ZM862.73,520.2c-6.47,5.15-13.34,10.63-19.47,16.37.36-1.81.7-3.61,1-5.42l.7-4c.19-1.06.38-2.13.56-3.19,1.34-1.83,2.71-3.72,4.09-5.63a137.3,137.3,0,0,0,27.06-9.69C872.75,512.22,867.86,516.11,862.73,520.2Zm-69.51-12.85c-19-4.68-36.23-13.85-54.43-23.56-13.45-7.18-27.37-14.6-42-20a168.21,168.21,0,0,0-51.34-10c6.19-7.41,12-15.18,17.67-22.85q3.09-4.16,6.17-8.26c4.77-6.32,9.9-12.76,15.45-18.87a120.26,120.26,0,0,1,29.79-2.47c32,1.43,62.15,16.5,91.35,31.08q5.5,2.76,11,5.46c29.46,14.49,63.57,28.4,97.69,25.79C887.13,499.6,837.23,518.17,793.22,507.35ZM929.17,300.63c9.49,14.05,11.53,32,12.24,46.07a176.23,176.23,0,0,1-1.13,30c.37-3.51.6-7.09.86-10.71.19-2.76.13-5.62.15-8.45s.05-5.75-.18-8.43l-.57-8.18-.07-1-.07-.69-.06-.53-.26-2.09c-.16-1.39-.36-2.78-.59-4.17a86.47,86.47,0,0,0-4-16.23,40.19,40.19,0,0,0-1.48-3.82,36,36,0,0,0-1.69-3.71c-.65-1.23-1.3-2.44-2-3.64s-1.32-2-2-3a42.67,42.67,0,0,0-9.95-10.52,38.82,38.82,0,0,0-10.57-5.71A31.88,31.88,0,0,0,899,284a26.88,26.88,0,0,0-5.76.35l-2,.41,2,.26a34,34,0,0,1,5.31,1.27A37.75,37.75,0,0,1,914,296.58a41.29,41.29,0,0,1,6.84,9.88c.5,1.06,1.09,2.15,1.57,3.19l1.16,3c.43,1,.7,2.17,1.08,3.24a30.56,30.56,0,0,1,1,3.41c.62,2.3,1.09,4.72,1.56,7.15s.79,5,1.06,7.56c.17,1.27.31,2.57.41,3.88l.16,2,.08.82.06,1c.16,2.73.31,5.46.47,8.2s.2,5.35.25,8,.2,5.21.1,7.84c-.21,5.24-.11,10.43-.56,15.42-.15,2.51-.3,5-.45,7.39s-.49,4.77-.72,7.06c-.32,4.63-1.11,8.93-1.58,13-.13,1-.25,2-.37,3s-.33,1.89-.49,2.8q-.47,2.76-.87,5.21c-.27,1.65-.48,3.2-.74,4.62l-.77,3.89c-.49,2.35-.78,4.24-1,5.52l-.32,2,1-1.75c.6-1.15,1.53-2.82,2.6-5,.54-1.09,1.14-2.3,1.8-3.61s1.19-2.81,1.85-4.37l2-5,1-2.74c.31-.95.62-1.93.94-2.92.8-2.67,1.72-5.48,2.54-8.45a244.63,244.63,0,0,1-18.7,50,103.87,103.87,0,0,1-23.18-.12c16.78-29.77,30.13-62.07,31.58-93.27.67-14.29-1-25.33-5.33-34.75C914.26,311,903.34,302,891.49,300a38.41,38.41,0,0,0-19.58,2.25,122.56,122.56,0,0,0,4.24-16.43l1.34-7.23C897.55,276.1,918.6,285,929.17,300.63Zm-63.91-19.15a106.61,106.61,0,0,1-26.64,17.28A68.94,68.94,0,0,1,865.26,281.48Zm-83-45.59c12.7,2.86,23.62,11.52,36.1,23.64a50.15,50.15,0,0,1,5.93,6.73l-2.32-1c-1.76-.84-3.67-1.44-5.6-2.22s-3.92-1.54-6-2.15l-6.27-2-6.36-1.61c-2.08-.58-4.18-.94-6.19-1.32s-3.94-.82-5.8-1l-5.23-.68-2.31-.3-2.11-.15-3.4-.24-3-.21,2.88.71,3.3.81,2,.49,2.22.68,5,1.53c1.76.52,3.55,1.3,5.43,2s3.81,1.38,5.71,2.28l5.78,2.57,5.61,2.88c1.87.9,3.6,2,5.3,3s3.39,1.91,4.83,2.94L821.9,276c.64.44,1.25.82,1.83,1.24l1.68,1.26,1.37,1c-1.38,2.29-4,4.36-8,6.31-16.72,8.12-38,7.82-56.83-.83-11.61-5.32-22.54-13.67-32.25-24.55a15.34,15.34,0,0,0,2.24-4.2h0a16,16,0,0,0,.6-2.26l1.79-.52-1.56-1a17.74,17.74,0,0,0,.08-2.07q11.25-5.94,21.76-12.8C765.27,234.66,774.38,234.11,782.28,235.89ZM728,202.62c3-16.33,9.39-30,19.07-40.52,4.83-5.26,9.47-8.19,14.19-8.95l.84-.1-17.27,35.56,28.52-33.5a35.45,35.45,0,0,1,9.22,6c6.73,6,10.58,13.15,10.56,19.56,0,9.84-8.87,18.84-16.58,25.58a256.76,256.76,0,0,1-46.9,32.44,13.35,13.35,0,0,0-3.45-3.71A149.57,149.57,0,0,1,728,202.62Zm-9.72,41.75a1.09,1.09,0,0,1,.78-.05c.51.23,1.5,1.57,2,5.12a6.23,6.23,0,0,1-.17,2.88,2.33,2.33,0,0,1-1.34,1.6c-1.34.55-3.67.25-5.67-.74a6.63,6.63,0,0,1-3-2.57l0,0A17.7,17.7,0,0,0,718.26,244.37Zm-52.07-84.79a25.57,25.57,0,0,1,12.7-5.14c.34.65.7,1.36,1.1,2.14l1.45,2.85c.56,1,.9,2,1.4,3.14.93,2.2,1.93,4.55,2.93,6.89l2.44,7.24c.37,1.17.82,2.29,1.07,3.38s.54,2.12.78,3.07l1.62,6.42.2-6.63c0-1,.06-2.09.1-3.24s-.08-2.35-.11-3.61c-.12-2.53-.25-5.22-.38-7.91l-1-8c-.19-1.26-.28-2.6-.53-3.68-.09-.43-.17-.84-.25-1.25a19,19,0,0,1,8.07,4.56c5.87,5.82,7.13,14.73,8.06,24.93,1.08,11.83,3.5,35.15,5.11,50.52a12.76,12.76,0,0,0-1.17,1l-3.62-2.8c-6.22-4.85-12.66-9.86-19.55-14.31a105.92,105.92,0,0,0-18-9.43c-4.91-5.32-9.29-11.85-11.36-19.51C654.15,178.67,657.74,166.35,666.19,159.58ZM646,193.28a52.15,52.15,0,0,0,4.75,11.64,60.07,60.07,0,0,0-6.91-.49c.56-4,1.18-8.07,1.92-12.17C645.8,192.6,645.86,192.94,646,193.28Zm2.89-48.49c-10.18,18.91-14.39,40.79-17.05,60.77-.56,4.16-1.07,8.35-1.59,12.54-2.81,22.91-5.72,46.59-15.86,66.92a126.22,126.22,0,0,1-8,13.54,205.65,205.65,0,0,0-23.87,10.83c.3-10.84.19-21.7.07-32.31-.24-21.55-.45-42.24,2.51-62.29A163.34,163.34,0,0,1,648.84,144.79Zm-111.17-8.11c7.72-6.54,27.2-20.85,41.4-12.51,8.78,5.15,11.67,17.45,10.65,27.35-.85,8.26-3.69,16.2-6.7,24.62-1.21,3.36-2.45,6.84-3.56,10.35-9.31,29.47-9,60.6-8.63,90.72.14,12.87.29,26.13-.33,39.08-30.74,19-56.7,46-73.53,77.69-11.24,21.16-18.55,43.89-24.79,66.59a353.15,353.15,0,0,1,2.95-127.14c8.66,4.9,17,5.86,19.93,1.87,3.41-4.7-2-14.47-12.15-21.81s-21.1-9.5-24.51-4.8c-2.69,3.71.15,10.58,6.44,16.93a364.59,364.59,0,0,0,.48,161.05c-.24,1-.46,1.95-.68,2.92l-6.66-24c-6.89-24.79-14-50.43-17.48-76.19C428,296.51,466.13,197.3,537.67,136.68Zm-164.57,48c-.57,1.4-1.54,3.37-2.43,5.83-.47,1.22-1,2.55-1.51,3.95s-1,2.93-1.53,4.48a3.58,3.58,0,0,1-.11.35c-2.33-2.1-4.62-4.31-6.87-6.55a76.82,76.82,0,0,1,8.43-26.56c6.66-12.63,16.78-24.31,30.7-35.44,2.72,16.91,8.39,32.11,16.78,44.66,1.33,2,2.75,3.9,4.23,5.75-.11.77-.2,1.53-.33,2.29a71.83,71.83,0,0,1-19.36,37.75c-10.29-5.5-20-10.72-28.59-17.6-.51-.41-1-.87-1.52-1.29.08-.87.18-1.73.27-2.57.19-1.59.31-3.16.54-4.61s.44-2.85.64-4.13c.35-2.57.88-4.66,1.14-6.16l.47-2.34S373.71,183.27,373.1,184.66Zm27.71-71.84h0a17.66,17.66,0,0,0,9.55-1.44h0a1.07,1.07,0,0,1,.68.38c.32.46.46,2.12-1,5.4a6.06,6.06,0,0,1-1.65,2.36h0a2.32,2.32,0,0,1-2,.67c-1.42-.24-3.25-1.72-4.44-3.6A6.78,6.78,0,0,1,400.81,112.82Zm29.86,78.81A77.84,77.84,0,0,0,464,209.46a307.31,307.31,0,0,0-19.46,43.15,84.14,84.14,0,0,0-6.5-7c-7.86-7.6-17-13.39-26.27-18.6A84,84,0,0,0,430.67,191.63Zm56.24-17.88c-1.08,1.44-2.13,2.91-3.19,4.37-1.12-1.46-2.24-3-3.54-4.39l-4.3-5c-1.54-1.58-3.07-3.15-4.57-4.71s-3.07-3-4.58-4.37-2.92-2.76-4.4-3.92l-4.09-3.33c-.63-.51-1.24-1-1.81-1.46l-1.72-1.23-2.77-2L449.53,146l2.08,2.11,2.39,2.42,1.46,1.49,1.53,1.73,3.41,3.91c1.23,1.36,2.35,3,3.6,4.52s2.52,3.17,3.66,4.93l3.58,5.22,3.26,5.4c1.12,1.74,2,3.59,2.95,5.33.39.78.81,1.54,1.21,2.28-3,4.4-5.84,8.86-8.57,13.41-17-3-33.12-14-43.78-29.9-7.09-10.62-12-23.46-14.58-37.82a15.27,15.27,0,0,0,4.11-2.4,16,16,0,0,0,1.69-1.61l1.8.5-.79-1.7a19.14,19.14,0,0,0,1.16-1.72c6.09.4,12.16.62,18.2.62,2.36,0,4.71,0,7.05-.1,10.57,3.14,18.61,7.45,24.41,13.11C478.1,146.29,482.83,158.35,486.91,173.75ZM440.56,81c11.09-12.36,23.71-20.6,37.49-24.51,6.87-1.95,12.35-2,16.77-.18l.77.35L462.24,77.84l41.85-13.58a35.84,35.84,0,0,1,4.68,10c2.57,8.66,2.11,16.75-1.27,22.2-5.18,8.36-17.43,11.38-27.52,13.08a256.09,256.09,0,0,1-57,3,13.49,13.49,0,0,0-1-5A149.66,149.66,0,0,1,440.56,81Zm-53.7-47.64c3.4-11.48,12.91-20.08,23.66-21.41a22.44,22.44,0,0,1,2.72-.17A26.32,26.32,0,0,1,424,14.18c-.06.73-.12,1.52-.19,2.39s-.17,2.06-.26,3.2-.3,2.21-.45,3.4c-.36,2.36-.74,4.89-1.12,7.41-.59,2.53-1.17,5.06-1.72,7.44-.3,1.19-.5,2.38-.86,3.44s-.65,2.09-.95,3c-1.19,3.79-2,6.31-2,6.31l3.66-5.53c.55-.84,1.14-1.75,1.78-2.71s1.17-2,1.8-3.13l3.83-6.94c1.13-2.5,2.27-5,3.34-7.34.5-1.18,1.12-2.36,1.48-3.42l.45-1.21a19,19,0,0,1,4.47,8.13c1.95,8-1.66,16.28-6.21,25.46C425.82,64.73,415.66,85.82,409,99.76a11.45,11.45,0,0,0-1.55.29c-.54-1.43-1.08-2.86-1.61-4.28-2.76-7.39-5.61-15-9.15-22.44a105.62,105.62,0,0,0-10.35-17.45C384.91,48.78,384.61,40.91,386.86,33.31Zm-65.3,20,39.22,25.25-32.1-33.1a26.63,26.63,0,0,1,13.16-3.21,35.93,35.93,0,0,1,16.49,4.09c11,5.78,20.34,16.57,27.75,32.08,3.31,6.94,6.07,14.34,8.74,21.49l.88,2.35a10.88,10.88,0,0,0-4.83,4.21,12.75,12.75,0,0,0-.92,1.85l-3.94-.74c-6.92-1.29-14.07-2.62-20.91-4.41-16.74-4.38-29.18-11.26-37-20.46C321.33,74.65,317.63,62.31,321.56,53.27Zm-28.12,79.39c2.62-4.71,7.08-8.86,14-13.07a88.26,88.26,0,0,1,35.63-11.84,113.72,113.72,0,0,0,19,6.73c7.25,1.89,14.61,3.27,21.73,4.59l6.92,1.32.24.5c-3.91,3.2-7.7,6.49-11.42,9.73a253,253,0,0,1-20.22,16.43c-8.08,5.68-22.4,13.83-38.33,14.09a51.88,51.88,0,0,0-7.78-2.47,52.69,52.69,0,0,0-10.76-1.28,22.13,22.13,0,0,1-9.14-7.54c.34-.48.74-1,1.19-1.71l.79-1.13c.26-.32.54-.66.84-1l1.91-2.34c.68-.85,1.61-1.65,2.46-2.55a27.26,27.26,0,0,1,2.83-2.61c1-.83,2-1.72,3.11-2.56s2.25-1.53,3.35-2.29a36.3,36.3,0,0,1,3.41-2,35.36,35.36,0,0,1,3.31-1.74l3.09-1.37a21.15,21.15,0,0,1,2.68-1l2.11-.71,1.85-.63-1.95.13-2.25.16a20.47,20.47,0,0,0-2.91.32l-3.46.55a37.92,37.92,0,0,0-3.83.88,36.39,36.39,0,0,0-4.08,1.16l-4.16,1.47c-1.36.58-2.7,1.23-4.05,1.84a32.52,32.52,0,0,0-3.84,2c-1.22.73-2.44,1.34-3.54,2.13l-.61.44A19.33,19.33,0,0,1,293.44,132.66Zm64.76,29a90.08,90.08,0,0,0-7.66,20.86,147.31,147.31,0,0,0-13.4-12A88.42,88.42,0,0,0,358.2,161.7Zm-125,72.71c-2.43-13.64-4.13-26.7,1.7-36.53,5.29-8.9,15.74-13.69,27.85-18.6,13.76-5.57,26.4-10.22,38.45-10.22a41.61,41.61,0,0,1,9.43,1c14.45,3.33,25.39,14.41,37,26.14a209.56,209.56,0,0,0,17.57,16.48c9.5,7.62,20.25,13.37,30.64,18.93,12.56,6.72,24.42,13.07,34,22.36A74.94,74.94,0,0,1,440,266.12c-12.51,40.36-16.7,83.22-11.09,124.88,3.57,26.57,10.81,52.6,17.8,77.77l2.67,9.6a534.76,534.76,0,0,1-63.1-186c5.2,1.39,9.5.91,11.42-1.73,3.41-4.7-2-14.46-12.16-21.81S364.41,259.29,361,264s2,14.46,12.15,21.81l.41.28a546.19,546.19,0,0,0,57.11,182.4c-18-23.17-30.7-51.12-41.57-77l-3.23-7.7c-15.19-36.35-30.9-73.81-58-102.64,5.36-9.35,6.4-18.55,2.08-21.49-4.8-3.26-14.39,2.48-21.43,12.82s-8.84,21.38-4,24.64c3.69,2.51,10.21-.31,16.23-6.45,24.82,27.18,39.81,62.93,54.32,97.65l3.23,7.72c2.33,5.54,4.75,11.18,7.28,16.85-17.91-29-36.39-58.78-61.33-81,4.9-9,5.73-17.72,1.56-20.56-4.8-3.27-14.4,2.47-21.43,12.81s-8.85,21.38-4.05,24.65c3.86,2.62,10.81-.58,17.05-7.3,23.25,20.94,40.53,48.89,58.67,78.27,6.88,11.14,13.83,22.39,21.2,33.36L390,446.36c-31.34-29.36-66.87-62.64-110.08-80.15-4.07-1.65-8.18-3.13-12.3-4.45C248.74,321.57,240.62,276,233.21,234.41ZM99.56,457.26a124.36,124.36,0,0,1-13.44-4.57c-29.45-12-53-36.3-64.73-65.64,21.8,15.47,51.17,24.88,89,28.59A101.54,101.54,0,0,0,99.56,457.26Zm75.14-.34c-21-4.4-46.92.38-62.3,16.81-6.22-33.73,11.68-72.29,44.28-92,32.78-19.8,77.21-21.54,118.85-4.67,41.19,16.69,74.37,47.78,106.46,77.84l36.95,34.6-6.18-1.47c-2.19-.52-4.48-1.25-6.87-1.91l-7.48-2.1-7.91-2.56c-2.72-.87-5.51-1.76-8.31-2.85l-8.62-3.15c-2.9-1.14-5.8-2.4-8.77-3.62L360.33,470,355.89,468c-3-1.39-6-2.71-8.95-4.19l-8.86-4.58L335.86,458l-2.15-1.21-4.42-2.47c-3-1.64-5.88-3.28-8.74-4.95L312,444.48l-8.51-4.76c-2.77-1.58-5.7-2.9-8.45-4.31l-4.12-2.05c-.71-.35-1.3-.65-2.11-1l-2-.86-4-1.66c-1.37-.52-2.71-1-4-1.52-2.62-1.06-5.26-1.71-7.72-2.52s-4.93-1.28-7.22-1.84l-6.62-1.16c-2.09-.27-4.07-.41-5.87-.59s-3.49-.11-5-.15a52.64,52.64,0,0,0-6.95.35l-2.43.23,2.43.3c1.58.24,3.9.36,6.78,1,1.44.33,3,.49,4.76,1l5.5,1.45,6.14,2c2.11.87,4.37,1.62,6.66,2.6s4.68,2,7,3.2l3.64,1.77,3.79,2,1.94,1c.52.28,1.22.73,1.83,1.08l3.85,2.25c2.59,1.55,5.28,3,7.91,4.73l8.12,5.1,8.36,5.37c2.82,1.84,5.67,3.62,8.53,5.4l4.3,2.68,2.23,1.36,2.25,1.27,9,5.06c3,1.63,6.09,3.11,9.11,4.66l4.52,2.29,4.58,2c3,1.34,6,2.72,9,4,6,2.32,11.79,4.79,17.45,6.55l8.18,2.76.66.19c-36.51,0-69.94,8.67-97.18,25.16-20.27-4.08-38.66-16.11-57.22-29.19l-1.93-1.36C219.44,476.42,199,462,174.7,456.92ZM99.25,608.85c25.39-10.52,47.61-27.56,66.6-43.61,5.08-4.3,10.18-8.73,15.12-13,19-16.5,38.64-33.53,60.59-45.92,13.54,9.28,27.21,17.62,42,22.7-7.81,6.47-15.36,13.3-22.68,20-13.06,11.87-26.57,24.14-41.34,33.89C184.4,606,140.72,615.23,99.25,608.85Zm216.1,227.76c-.5,1.9-3.26,3.51-6.16,3.6-3.66.12-7.57-1.48-11.92-3.42-32.72-14.58-62.79-36.5-91.87-57.7-5-3.61-9.91-7.22-14.86-10.78C160.19,746.46,128,707.72,125.08,676c-1.78-19.64.19-35.14,6-47.38a56.94,56.94,0,0,1,3.54-6.31q3.81-.19,7.62-.54c-.19.32-.39.65-.57,1A67.61,67.61,0,0,0,137,633.53c-.64,1.75-1.08,3.51-1.55,5.19s-.75,3.35-1.06,4.92-.49,3.11-.64,4.57-.27,2.83-.33,4.12-.07,2.51-.06,3.63.09,2.15.12,3.07c0,1.83.32,3.29.41,4.26s.21,1.5.21,1.5l.46-1.45c.29-.93.71-2.29,1.24-4s1.27-3.78,2.07-6.1,1.86-4.89,3-7.63,2.57-5.63,4.2-8.55a91.27,91.27,0,0,1,5.46-8.88,89.62,89.62,0,0,1,6.82-8.44A183.68,183.68,0,0,0,211.84,601l.23,0c1.17.26,2.27.54,3.31.74s1.92.56,2.77.81a40.47,40.47,0,0,1,4,1.42l1.42.52-1-1.08a23.71,23.71,0,0,0-3.18-2.87c-.75-.56-1.58-1.26-2.54-1.88l-.36-.22q4-2.28,7.88-4.78a60.81,60.81,0,0,1,13.18,8.14,114.14,114.14,0,0,0-3.17,38.66,34.09,34.09,0,0,0-14-15.64c-8.61-5.06-19.64-6.92-31.9-5.38-21,2.64-38.34,15-44.15,31.51-6.39,18.12.5,39.73,19.91,62.49a271.73,271.73,0,0,0,81.92,64.82c4.46,2.29,9,4.47,13.43,6.59,9.71,4.64,18.89,9,27.49,14.63,9.76,6.36,22.45,17,27.51,31.81C315.08,832.88,315.74,835.1,315.35,836.61Zm-12.3-39.87c-19.48-32.56-34.25-64.62-44.66-97-.3-.92-.55-1.83-.84-2.74,10,13.6,21.93,25.65,33,36.85,6.69,6.77,14.28,14.45,23.84,19.24a43.91,43.91,0,0,0,4.43,1.92c.29,2.37.59,4.72.91,7,.45,3.28,1.06,6.46,1.55,9.56,1,6.21,2.33,12,3.56,17.37s2.63,10.2,3.84,14.48c.63,2.14,1.17,4.15,1.78,6s1.21,3.49,1.73,5c2.13,6,3.46,9.42,3.46,9.42s-.47-3.64-1.46-9.92c-.26-1.57-.54-3.3-.86-5.19s-.53-3.94-.83-6.13c-.54-4.39-1.43-9.27-1.95-14.67-.29-2.69-.66-5.48-1-8.37s-.55-5.91-.89-9-.69-6.23-.92-9.47c-.09-1.3-.18-2.61-.28-3.92a37.34,37.34,0,0,0,5,.36,30.39,30.39,0,0,0,15.14-3.83c15-8.54,17.41-26.37,19.55-42.11.21-1.58.43-3.14.65-4.67a132.21,132.21,0,0,1,39.62-76.28,51,51,0,0,0,8.7,4.38c-.3,1.1-.64,2.36-1,3.78-.81,2.76-1.54,6.4-2.46,10.47S410.88,658,410,663s-1.63,10.46-2.49,16.21-1.49,11.84-2.05,18.15c-.28,3.14-.56,6.35-.85,9.59s-.46,6.52-.7,9.83c-.46,6.61-.67,13.34-1,20.05s-.46,13.44-.47,20-.1,13.11-.09,19.4.09,12.36.28,18.12.46,11.2.77,16.22.65,9.62,1.07,13.69.76,7.63,1.09,10.55c.71,5.85,1.25,9.19,1.25,9.19s.51-3.35,1.16-9.2c.29-2.92.69-6.47,1-10.55s.69-8.66,1.06-13.66.68-10.43,1-16.16.55-11.76.83-18,.6-12.69,1-19.23.83-13.18,1.25-19.81,1-13.26,1.64-19.75c.3-3.25.54-6.49.88-9.67s.67-6.31,1-9.4.75-6.1,1.09-9.07.68-5.86,1.1-8.67c.87-5.6,1.54-10.93,2.43-15.78s1.59-9.34,2.42-13.19,1.38-7.24,2.13-10.11c.39-1.66.72-3.09,1-4.32.36,0,.72,0,1.09.06h.48c7.38,0,14-2.31,20.5-4.56,4.79-1.67,9.32-3.24,13.85-3.77,12.26-1.44,23.92,4.62,36.27,11,10.1,5.25,20.55,10.68,32.16,12.42a59.86,59.86,0,0,0,6.91.6c0,.74.08,1.53.13,2.38s.09,1.5.14,2.31,0,1.56-.05,2.39c0,1.64-.09,3.42-.14,5.32.07,3.73-.56,8.21-.94,13-.06.6-.11,1.21-.17,1.82l-.3,1.84c-.19,1.25-.39,2.51-.59,3.8-.43,2.58-.7,5.25-1.36,8L534,702.5c-.73,2.84-1.46,5.75-2.22,8.71s-1.66,5.95-2.55,9c-.46,1.51-.91,3-1.37,4.57s-1,3-1.51,4.59c-1,3.06-2,6.23-3.08,9.26s-2.23,6.29-3.34,9.45c-2.32,6.25-4.54,12.45-6.78,18.67S508.72,779,506.6,785s-4.08,11.69-5.84,17.19-3.27,10.78-4.57,15.67c-.66,2.45-1.3,4.78-1.81,7s-.95,4.41-1.38,6.43c-.9,4-1.52,7.57-1.91,10.53s-.68,5.26-.82,6.85l-.23,2.42,1.06-2.21c.7-1.44,1.63-3.56,2.83-6.24.59-1.35,1.15-2.85,1.94-4.45s1.55-3.34,2.38-5.21c1.66-3.71,3.54-7.9,5.58-12.48l6.47-14.81c2.24-5.27,4.58-10.84,7-16.64l7.37-17.88c2.53-6.06,5.07-12.36,7.53-18.62l3.59-9.36c1.26-3.2,2.29-6.37,3.44-9.53s2.12-6.34,3.08-9.49,2-6.25,2.74-9.38,1.66-6.17,2.37-9.19,1.21-6,1.8-8.94.92-5.8,1.35-8.57c.19-1.38.37-2.75.56-4.09.09-.67.17-1.33.26-2s.08-1.33.12-2c.17-2.61.32-5.1.47-7.48,0-1.2.19-2.32.16-3.49s0-2.29-.06-3.38c-.06-2.18-.11-4.22-.16-6.1,0-.94,0-1.87-.1-2.69s-.18-1.57-.27-2.3-.16-1.32-.23-1.93C556.6,652,561.86,651,567,650c12.28-2.42,23.88-4.7,34.76-1.7,7.14,2,13.72,6.16,20.69,10.6,9.4,6,19.12,12.15,30.94,13.1-.14,1.63-.34,3.43-.53,5.45-.23,2.82-.6,6.07-1,9.59s-.89,7.35-1.35,11.39-1.17,8.28-1.78,12.68q-.51,3.3-1,6.69t-1.16,6.83c-.7,4.62-1.65,9.26-2.5,13.92q-.74,3.48-1.45,7c-.44,2.32-.94,4.62-1.47,6.89l-1.55,6.75c-.56,2.21-1.13,4.39-1.68,6.54s-1.1,4.26-1.68,6.31l-1.6,6c-1.15,3.89-2,7.66-3.08,11.06s-1.79,6.62-2.7,9.38-1.44,5.32-2.2,7.27c-1.29,4-1.92,6.45-1.92,6.45s1.67-1.79,4.41-5.15c.69-.84,1.4-1.8,2.13-2.87s1.53-2.23,2.35-3.49a98.76,98.76,0,0,0,5.12-8.69c.91-1.61,1.74-3.34,2.58-5.14s1.68-3.68,2.56-5.6c1.54-3.91,3.26-8,4.65-12.4l2.16-6.64c.67-2.27,1.35-4.55,2-6.86,1.42-4.61,2.57-9.35,3.76-14.09s2.22-9.51,3.11-14.23,1.72-9.38,2.46-13.9,1.29-8.9,1.81-13.07,1-8.11,1.16-11.78.54-7,.62-10c.08-2.73.2-5.17.21-7.15,6.54-1.39,12.75-4,18.83-6.51,8.81-3.67,17.13-7.14,25.51-6.56,5.26.36,10.72,2.28,16.51,4.32,7.19,2.53,15.08,5.29,23.07,4.73-.16,1.55-.23,3.37-.51,5.16s-.53,3.89-.82,6c-.15,1.07-.27,2.18-.4,3.31s-.38,2.31-.57,3.49c-.43,2.37-.8,4.84-1.18,7.35s-1,5-1.51,7.58-1,5.1-1.59,7.61-1.09,5-1.61,7.41-1,4.76-1.44,7-.84,4.38-1.18,6.36c-.63,4-1.08,7.35-1.29,9.74s-.27,3.76-.27,3.76.84-1.11,2.11-3.13,3-4.92,5-8.49,4-7.8,6-12.47c1-2.3,1.89-4.79,2.81-7.29.45-1.26.91-2.52,1.36-3.8s.81-2.59,1.22-3.88c.79-2.61,1.54-5.23,2.25-7.83s1.22-5.2,1.73-7.72a72.21,72.21,0,0,0,1.27-7.38l.87-6.72c.18-1.6.21-3,.26-4.3A137.69,137.69,0,0,0,808.78,677l1.36,0c-2.46,4.46-7.06,8.37-12.15,12.7-5.3,4.5-10.78,9.16-14.63,15.21-4.33,6.79-6,14.37-7.51,21.69-1.42,6.63-2.76,12.9-6,17.92-5.53,8.6-15.84,12.7-26.76,17-6.83,2.72-13.9,5.53-20.25,9.62-8.56,5.53-15.32,13.11-21.86,20.44-8.18,9.17-15.91,17.84-26.29,21.63-5.13,1.87-10.78,2.48-16.75,3.12A109.76,109.76,0,0,0,644,818.45c-13,3.06-24.53,10.34-35.69,17.38-14.86,9.37-28.89,18.22-44.14,15.64a70,70,0,0,1-7.51-1.89c-4.78-1.39-9.74-2.84-15.19-2.67-8.22.24-15.4,4.06-21.74,7.43-1.23.65-2.45,1.3-3.68,1.93a97.4,97.4,0,0,1-58.1,9.39c-2.68-.41-5.34-.92-8.16-1.46-7.88-1.52-16-3.09-24.53-2.13-6.92.78-13.26,3.14-19.4,5.43-6.58,2.46-12.8,4.78-19.08,4.91h-.56c-12.44,0-24-8.59-33.76-17l-.4-.34c-4.93-4.29-10.49-9.06-17.62-10.91q-3.77-5.19-7.37-10.34a27.21,27.21,0,0,0-1.45-6.25C321.82,816.34,314.08,805.85,303.05,796.74Zm1.73,83.15a6.82,6.82,0,0,1,2.52-4.73,6.71,6.71,0,0,1,5-1.46c5.14.63,20.79,2.54,28,7.64a80.78,80.78,0,0,1,10.56,9.72c5.09,5.26,10.62,10.94,17.49,14.07.08,1.66.23,4.5.43,8.35.2,3.21.43,7.1.7,11.56.13,2.23.28,4.6.43,7.11s.56,5.18.85,8c.61,5.56,1.27,11.57,2,17.92.19,1.58.35,3.2.59,4.82s.54,3.24.82,4.89c.55,3.29,1.12,6.66,1.7,10.09,1.2,6.83,2.26,13.93,4,21s3.25,14.32,4.88,21.53c2,7.13,4,14.25,6,21.26s4.31,13.78,6.51,20.35c1.11,3.28,2.2,6.51,3.27,9.66l1.59,4.68c.55,1.53,1.17,3,1.74,4.5,2.36,5.9,4.59,11.46,6.81,16.54,1.11,2.53,2.09,5,3.18,7.27l3.26,6.39c2.1,4,3.93,7.46,5.52,10.28s2.85,5,3.72,6.51l1.37,2.27-.69-2.58c-.48-1.67-1.16-4.12-2.12-7.2s-2.15-6.79-3.55-11q-1.1-3.15-2.32-6.71c-.74-2.38-1.52-4.89-2.34-7.51-1.59-5.25-3.48-10.87-5.49-16.8-.5-1.48-1.05-3-1.52-4.51l-1.36-4.68q-1.36-4.74-2.8-9.67c-1.88-6.56-4-13.29-5.52-20.3l-5.13-21.1-4.15-21.3c-1.54-7-2.4-14-3.43-20.72-.51-3.36-1-6.68-1.51-9.92-.25-1.61-.49-3.22-.73-4.8s-.35-3.15-.52-4.69c-.62-6.18-1.27-12-1.87-17.4-.29-2.7-.61-5.27-.83-7.74s-.3-4.88-.44-7.11l-.72-11.55c-.15-2.07-.27-3.82-.37-5.28,4.43-.23,8.47-1.65,12-2.91a45,45,0,0,1,7-2.08c8.65-1.51,17.39,3.07,26.65,7.92,8.14,4.25,16.5,8.62,25.72,9.49q-.12,2.22-.27,5.16c-.09,1.8-.22,3.75-.23,6s0,4.6,0,7.15,0,5.28,0,8.14.21,5.82.32,8.93.16,6.36.42,9.71.53,6.8.8,10.35.66,7.19,1.08,10.91.77,7.52,1.32,11.35c1.11,7.68,2.19,15.62,3.64,23.62,1.27,8,3,16.1,4.61,24.2,1.77,8.05,3.45,16.11,5.38,24s3.87,15.59,5.77,23.06,3.83,14.66,5.73,21.45,3.74,13.2,5.63,19.06,3.63,11.23,5.21,16,3.11,8.85,4.39,12.22,2.3,6,3,7.81l1.14,2.75s-.12-1-.33-3-.58-4.75-1.12-8.31-1.23-7.88-2.07-12.82-1.89-10.48-3.16-16.49-2.65-12.52-4.15-19.39-3.17-14.08-4.84-21.56-3.3-15.21-4.83-23.09-3.13-15.87-4.65-23.86c-1.37-8-2.81-16-4-23.94s-2.23-15.7-3.2-23.24c-.46-3.77-.8-7.48-1.19-11.12s-.79-7.18-1-10.65c-.51-6.93-1.05-13.48-1.25-19.54-.14-3-.27-5.92-.39-8.68s0-5.33-.07-7.77,0-4.72-.06-6.83.12-4.12.14-5.91c.06-2.63.11-4.85.15-6.6a81.62,81.62,0,0,0,10.45-3.72c2-.81,3.81-1.57,5.67-2.23a54,54,0,0,1,37.2.71c2.92,1.15,5.77,2.57,8.79,4.07a100.66,100.66,0,0,0,12.46,5.49,63.69,63.69,0,0,0,23.63,3c0,1.8.06,4.11.1,6.89.17,7.19.42,17.46.72,29.78.16,6.16.35,12.83.54,19.89s.2,14.47.3,22.16.29,15.62.44,23.68.37,16.27.56,24.46.36,16.44.54,24.53.44,16.05.66,23.75.42,15.15.62,22.21c.37,7.07.67,13.76,1.17,19.92s1,11.81,1.44,16.81,1,9.36,1.53,12.94.91,6.4,1.22,8.31.51,2.94.51,2.94.13-1,.38-3,.56-4.77.87-8.37.64-8,1-13,.6-10.66.74-16.82.26-12.82.37-19.87.16-14.51.25-22.21.17-15.66.25-23.75.08-16.3.12-24.52v-24.58c0-8.11-.07-16.09-.1-23.81s-.14-15.18-.21-22.26-.42-13.73-.66-19.89c-.48-12.32-.87-22.58-1.15-29.77-.15-3.22-.28-5.82-.37-7.72,5.79-.9,11.55-2.13,17.24-3.36,13.51-2.9,26.26-5.65,38.75-4.08a116.12,116.12,0,0,1,16.42,3.75c9.61,2.68,19.57,5.45,30.13,4.17,1.18-.15,2.33-.35,3.48-.58q.09,2.11.21,4.8c.23,3.73.26,8.1.31,13.13,0,2.51.08,5.18.06,8s-.15,5.84-.24,9c-.08,6.25-.57,13-.94,20.16-.14,3.58-.56,7.24-.88,11s-.61,7.58-1.08,11.46-.93,7.84-1.4,11.84-1.16,8-1.73,12.09c-1.13,8.15-2.72,16.35-4.16,24.59-1.74,8.17-3.31,16.39-5.33,24.38-1,4-1.8,8-2.9,11.89l-3.1,11.54c-1,3.8-2.22,7.46-3.28,11.08s-2.14,7.17-3.28,10.58c-2.26,6.84-4.28,13.35-6.37,19.28q-1.56,4.46-2.87,8.57c-1,2.71-1.89,5.28-2.76,7.69-1.68,4.85-3.11,9.11-4.42,12.56s-2.24,6.22-2.87,8.12l-1,2.9,1.67-2.55c1.09-1.68,2.65-4.15,4.58-7.33.94-1.61,2.1-3.33,3.13-5.32s2.21-4.11,3.43-6.4,2.48-4.74,3.79-7.34,2.54-5.4,3.84-8.32,2.77-5.91,4-9.12l3.9-9.92c1.41-3.38,2.53-7,3.81-10.59s2.6-7.32,3.76-11.14,2.39-7.69,3.61-11.62,2.25-8,3.41-12c2.33-8.06,4.12-16.4,6.14-24.68,1.66-8.36,3.6-16.68,4.85-25,.65-4.15,1.47-8.24,2-12.33s1.1-8.12,1.63-12.08.82-7.9,1.23-11.73.79-7.59,1-11.26.45-7.24.66-10.69.2-6.8.29-10,.11-6.29.17-9.21-.1-5.75-.14-8.37c-.11-5.27-.15-9.87-.47-13.51-.22-3.23-.4-5.85-.54-7.77,2.25-.9,4.46-1.86,6.64-2.81,6.7-2.92,13-5.69,19.55-6.22,6.19-.51,12.72,1,19.63,2.51,9,2,18.21,4.08,27.48,1.9,0,1.26,0,2.61,0,4.13-.06,3.88-.17,8.67-.48,14.12-.13,2.73-.38,5.64-.56,8.7s-.49,6.28-.88,9.63c-.66,6.71-1.62,14-2.74,21.63s-2.63,15.69-4.25,24-3.59,16.83-5.8,25.44c-.57,2.15-1.14,4.32-1.71,6.49l-1.78,6.43c-1.24,4.29-2.54,8.61-3.94,12.88-2.77,8.55-5.93,17-9.26,25.13s-7,16.07-10.92,23.49-8.07,14.41-12.2,20.9l-3.1,4.77-3.12,4.57-1.5,2.22-1.56,2.21-3,4.22c-4,5.58-7.65,10.88-10.51,15.84-1.41,2.5-2.67,4.88-3.72,7.14s-1.85,4.41-2.51,6.36a49.15,49.15,0,0,0-2.17,9.27c-.18,2.17-.27,3.32-.27,3.32l1.18-3.08a67.38,67.38,0,0,1,4.16-8.19c1-1.69,2.18-3.51,3.56-5.41s2.9-4,4.63-6.07,3.61-4.32,5.68-6.63,4.29-4.68,6.55-7.28a214.87,214.87,0,0,0,14.25-17.46A240.76,240.76,0,0,0,732.21,1104c4.35-7.61,8.42-15.7,12.19-24.07s7.14-17.08,10.23-25.87c1.54-4.4,3-8.81,4.34-13.26q1-3.35,2-6.67t1.82-6.6c2.34-8.82,4.38-17.58,6.14-26.09s3.19-16.82,4.33-24.72,2-15.4,2.59-22.37,1-13.35,1.09-19,.13-10.63,0-14.76c-.07-2.06-.14-3.91-.2-5.52s-.17-2.81-.23-3.87c2.13-1.44,4.13-3,6.1-4.55,4.28-3.36,8.32-6.54,12.76-7.46,3.49-.73,7.5-.14,11.76.5,5.5.81,11.71,1.71,17.91-.24.13,2.18.42,4.67.47,7.68,0,1.66.13,3.42.16,5.28v5.87c-.09,4.1-.2,8.54-.48,13.25-.1,2.36-.29,4.78-.5,7.25s-.42,5-.69,7.57-.52,5.19-.87,7.83-.66,5.31-1.07,8-.79,5.41-1.24,8.12-.89,5.45-1.4,8.18-1,5.44-1.56,8.14-1.11,5.4-1.71,8.06-1.16,5.32-1.79,7.92-1.23,5.18-1.89,7.69c-1.25,5.07-2.63,9.9-4,14.44s-2.74,8.81-4.07,12.73-2.67,7.46-4,10.58-2.47,5.82-3.51,8-1.89,4-2.49,5.12-.91,1.82-.91,1.82l1.4-1.47c.93-1,2.22-2.43,3.76-4.38a87.92,87.92,0,0,0,5.19-7.34,108.49,108.49,0,0,0,5.66-10.22c1.91-3.83,3.71-8.1,5.46-12.66s3.38-9.44,5-14.48q1.25-3.78,2.39-7.71c.8-2.61,1.58-5.26,2.31-8s1.47-5.4,2.14-8.13,1.38-5.49,2-8.25,1.27-5.52,1.83-8.29,1.14-5.52,1.63-8.27,1-5.48,1.4-8.19.85-5.39,1.19-8,.69-5.25.94-7.81.55-5.06.72-7.51c.44-4.89.62-9.54.74-13.84,0-2.15,0-4.22.06-6.18s-.08-3.83-.11-5.59c0-.88,0-1.73-.07-2.55s-.1-1.64-.15-2.42c-.1-1.55-.2-3-.29-4.26-.15-1.75-.33-3.15-.46-4.31,3-2.27,5.86-4.84,8.7-7.38,4.69-4.2,9.54-8.53,14-10.71a.27.27,0,0,1,.32,0,.68.68,0,0,1,.33.61c.22,5.11.45,9.66.66,13.83.9,18,1.44,28.87-.63,48.06-.16,1.49-.37,3-.57,4.49-3.84,9.45-5.43,20.16-6.26,30.28-18.48,66-67.58,132.91-126,168.13-1.63,1-3.27,1.94-4.92,2.91-8.06,4.75-16.4,9.67-23.52,16.42-7.79,7.41-7.73,14.22-6.94,21.12a7.47,7.47,0,0,1-3.75,7.51c-11,6-27.77,10.21-38,11.17a692.64,692.64,0,0,1-148.12-2.09c-35.43-4.32-37.12-11-37.2-11.77a27.31,27.31,0,0,1,.05-3.91,38,38,0,0,0,.05-5.26c-.74-9.7-8.1-16.33-14.93-21.79L418.43,1130c-23.09-18.43-47-37.49-63.82-62a200.55,200.55,0,0,1-18.12-33.47C311.47,977.28,300.8,925.26,304.78,879.89Zm591,332.42c-34.53,16.57-72.12,25-107.61,31.6-117.36,21.88-223.85,27.46-345.29,18.09-46.82-3.61-120.74-15.9-175-38.65-35.57-14.91-63-31.36-84-50.75l.63.3c6.46,3.08,12.57,6,18.45,9.52,1.41.84,2.8,1.72,4.19,2.6,5.36,3.36,10.89,6.84,17.34,8.69,7.4,2.12,14.72,1.74,21.81,1.37,3.12-.17,6.07-.32,9-.26A61.19,61.19,0,0,1,291.66,1208c1.74,1.36,3.42,2.83,5.21,4.38,4.48,3.88,9.11,7.9,14.83,10.54,12.16,5.61,24.69,3.29,36.8,1,6-1.12,11.67-2.17,17.19-2.27,12.72-.25,25.23,4.64,38.44,9.81,15.71,6.15,31.95,12.51,49.28,9.9a99.09,99.09,0,0,0,15.95-4.24c7.17-2.34,14-4.56,20.56-4,5.8.45,11.53,3,17.6,5.72,5.09,2.28,10.35,4.63,16.07,5.92,14.65,3.29,28.75-1,42.39-5.17,11.52-3.52,22.41-6.84,33.13-5.64,6.45.72,12.79,3.08,19.51,5.59,8,3,16.3,6.07,25.31,6.46.68,0,1.36,0,2,0,10.84,0,20.92-3.78,30.68-7.43,9.14-3.42,17.78-6.66,26.53-6.72,5.3-.08,10.63,1.1,16.31,2.3a110.43,110.43,0,0,0,14.66,2.41c13.81,1,27-2.9,39.78-6.7,12.38-3.69,24.09-7.18,35.83-6.23a102.16,102.16,0,0,1,11.4,1.85c5.65,1.14,11.51,2.31,17.62,2.2,9.1-.16,16.72-7,24.09-13.53,4-3.57,7.78-7,11.12-8.6,11.69-5.8,20.13-7.12,28.28-8.41,13.78-2.16,26.79-4.21,48.72-26,1.48-.9,6.42-2.37,11-3.64C943.3,1187.6,919.45,1200.94,895.76,1212.31Zm81.86-61.76c-1.86,1.13-9.56,3.22-14.68,4.62-12.18,3.32-17.4,4.93-20.05,7.56-19.34,19.25-29.54,20.86-42.45,22.89-8.61,1.35-18.37,2.88-31.67,9.48-4.76,2.36-9.31,6.42-13.72,10.35-5.5,4.91-11.74,10.48-16.49,10.56s-9.83-.91-15.1-2a109.24,109.24,0,0,0-12.76-2c-14-1.14-27.26,2.84-40.13,6.67-12.29,3.67-23.89,7.12-35.56,6.25a100.43,100.43,0,0,1-13.11-2.19c-6-1.27-12.27-2.57-18.81-2.55-10.83.07-20.86,3.83-30.56,7.46s-18.86,7.06-28.08,6.65c-7.17-.31-14.25-3-21.74-5.74-7.08-2.64-14.41-5.37-22.3-6.25a52.69,52.69,0,0,0-5.86-.32c-11,0-21.66,3.25-32,6.4-12.74,3.88-24.77,7.55-36.4,4.94-4.57-1-9.08-3-13.85-5.18-6.71-3-13.65-6.1-21.48-6.71-8.94-.69-17.16,2-25.11,4.59a88.7,88.7,0,0,1-14.07,3.79c-14.22,2.15-28.32-3.37-43.24-9.22-13.69-5.36-27.9-10.92-42.94-10.62-6.49.12-12.9,1.31-19.11,2.46-10.79,2-21,3.9-29.74-.15-4.21-1.94-8-5.25-12.06-8.75-1.82-1.58-3.7-3.21-5.66-4.75a73,73,0,0,0-43.36-15.69c-3.33-.07-6.63.11-9.81.27-6.41.34-12.45.65-18-.93-4.85-1.39-9.45-4.28-14.32-7.34-1.47-.93-2.93-1.85-4.41-2.73-6.36-3.81-13-7-19.44-10a207.89,207.89,0,0,1-19.27-10c-9.49-5.8-21.63-15.76-25.66-30.29-3.25-11.72,1.07-27.89,11.7-32a37.06,37.06,0,0,1,5.82-1.51,42.39,42.39,0,0,0,8.9-2.57c2.72-1.22,6.56-5,19.31-18.54,5.64-6,13.33-14.11,15.43-15.62,9.45-4.36,18.88-5.13,27.21-5.82,10.08-.83,18.77-1.55,23.44-8.75,6.41-9.88,8.83-9.9,22.21-10a233.84,233.84,0,0,0,23.47-1.13,157,157,0,0,1,17.79-.71c1.85,4.6,3.76,9.22,5.8,13.88A210.84,210.84,0,0,0,345,1074.63c17.83,25.93,42.41,45.54,66.17,64.5l.59.47-1.89.79a107.51,107.51,0,0,0-12.88,6.12c-2.25,1.23-4.46,2.48-6.87,3.86l-1.66,1.06-1.78,1.23c-1.15.82-2.3,1.7-3.44,2.62a43.32,43.32,0,0,0-6.53,6.47,30,30,0,0,0-5.1,8.77,23.42,23.42,0,0,0-1.37,10.84l.1,1.07.32,1.53.37,1.53.2.76.25.64c.33.85.66,1.71,1,2.55l1.28,2.38a34.47,34.47,0,0,0,6.73,7.94l2,1.58.5.39.63.41.9.58.9.57,1.12.64c.75.4,1.54.88,2.24,1.19a56.85,56.85,0,0,0,8.53,3.36c2.85.91,5.44,1.61,8.27,2.26,5.27,1.17,10.29,2.34,15.22,3.22s9.65,1.58,14,2.13,8.31.8,11.83,1.08,6.62.25,9.15.34,4.53,0,5.89,0l2.08,0-2-.64c-1.3-.39-3.2-1-5.63-1.68s-5.38-1.46-8.72-2.5-7.12-2.13-11.24-3.28l-13.11-4-14.75-4.72c-2.35-.79-5-1.65-7.37-2.58A62.51,62.51,0,0,1,394,1195c-.58-.28-1-.57-1.47-.85l-.72-.42-.88-.61-.88-.6-.21-.16-.11-.07-.06,0c.06,0-.21-.15.12.08l-.33-.27-1.34-1.08a23.32,23.32,0,0,1-4.28-5.15l-.79-1.4-.58-1.44-.15-.36-.07-.28a5.44,5.44,0,0,0-.15-.54l-.19-.56-.12-1.07a13.08,13.08,0,0,1,.54-5.92,21.49,21.49,0,0,1,3-5.82,41,41,0,0,1,4.73-5.38c.89-.85,1.79-1.67,2.73-2.47l1.37-1.14,1.51-1.21,5.93-4.27c3.8-3,7.74-5.23,11.29-7.54.88-.58,1.75-1.14,2.61-1.69.51-.33,1-.61,1.54-.89l25.2,20.11c5.13,4.1,10.17,8.51,10.56,13.52a28.86,28.86,0,0,1-.07,3.67,36,36,0,0,0,0,5.79h0c1.5,14.67,24.83,19.46,47.45,22.22a702.79,702.79,0,0,0,85.2,5.17q32.77,0,65.44-3c11.69-1.09,30.05-5.75,42.52-12.53a19.17,19.17,0,0,0,9.8-19.16c-.62-5.39-.5-7.61,3.36-11.27,6.15-5.84,13.55-10.2,21.4-14.82,1.66-1,3.32-2,5-3l1.53.43c1.81,8.94,10,13.07,19.36,13.77a20.93,20.93,0,0,1,2.61,6,16.65,16.65,0,0,1,.54,4.37q0,.44,0,.87v.22l-.05.36-.11.74-.11.74h0v0l-.07.27-.29,1.07c-1.66,5.63-6.85,10.43-13.3,14a74.69,74.69,0,0,1-10.24,4.73c-3.68,1.36-7.48,2.63-11.18,3.93s-7.45,2.44-11.14,3.58-7.33,2.28-11,3.19-7.19,2-10.7,2.83L678.34,1214c-3.35.85-6.69,1.26-9.87,2s-6.28,1.34-9.28,1.73c-6,.85-11.47,1.93-16.35,2.43s-9.15,1.3-12.73,1.53-6.36.65-8.27.84l-2.93.34,2.93.33c1.91.18,4.71.52,8.27.81s7.92.48,12.94.61,10.68,0,16.86-.22c3.1,0,6.3-.41,9.62-.66,1.67-.12,3.36-.3,5.07-.47s3.46-.34,5.21-.62l10.82-1.56c3.69-.55,7.4-1.44,11.21-2.18,1.9-.41,3.83-.72,5.74-1.23l5.76-1.51c3.87-1,7.8-2,11.66-3.3s7.81-2.4,11.73-3.85a85,85,0,0,0,11.93-5.4,48,48,0,0,0,11.05-8.3,29.36,29.36,0,0,0,7.45-12.77l.44-1.84.11-.46a3.6,3.6,0,0,0,.07-.41v-.09l0-.18.09-.75.09-.74,0-.38,0-.53.06-2.11a28,28,0,0,0-1.21-7.31,32.41,32.41,0,0,0-1.42-3.76,173.68,173.68,0,0,0,48.07-15.53c10.9-5.39,56.25-25.89,68.14-30.31,26.45-9.82,49.4-23.4,67.75-39.79.8.14,1.59.31,2.4.42,9,1.28,12.93,8.15,17.45,16.11,3.84,6.76,7.81,13.75,15.26,17.72,1,.52,3.94,2.1,4.67,7.9C990.4,1129.73,985,1143.71,977.62,1150.55Z"/><path d="M884.63,944.86c.59-.47,1.19-1,1.91-1.52s1.49-1.11,2.3-1.71l2.66-1.81,3-1.86a74.52,74.52,0,0,1,6.93-3.55,68.12,68.12,0,0,1,7.94-3,75.83,75.83,0,0,1,8.69-2c1.5-.19,3-.41,4.51-.5.75-.06,1.51-.16,2.27-.15l1.13,0h1.1c-.07,0,.22,0-.15,0a66,66,0,0,1,9.24.75,73.52,73.52,0,0,1,8.67,2.06,66.27,66.27,0,0,1,7.93,3,71.75,71.75,0,0,1,6.91,3.57l3,1.86,2.65,1.82c1.62,1.23,3.1,2.29,4.22,3.27s2,1.75,2.67,2.29l1,.83-.42-1.2a25.91,25.91,0,0,0-1.38-3.35c-.35-.69-.72-1.49-1.18-2.32s-1-1.69-1.6-2.64-1.33-1.83-2.06-2.85-1.66-1.93-2.56-3a50.8,50.8,0,0,0-15.32-11,47.28,47.28,0,0,0-5-2,48.31,48.31,0,0,0-5.3-1.54,57,57,0,0,0-11-1.31l-3.05.11c-.95,0-1.89.15-2.84.24a51,51,0,0,0-5.55.92,47.65,47.65,0,0,0-5.3,1.53,46.47,46.47,0,0,0-5,2,51.16,51.16,0,0,0-8.66,5.1,50.53,50.53,0,0,0-6.7,5.86c-.91,1-1.8,2-2.57,3s-1.47,1.93-2.08,2.84-1.15,1.8-1.61,2.63-.85,1.64-1.21,2.33a26.22,26.22,0,0,0-1.39,3.32L881,948l1-.82C882.55,946.63,883.47,945.78,884.63,944.86Z"/></g></g></svg>