<svg xmlns="http://www.w3.org/2000/svg" width="1440" height="2" viewBox="0 0 1440 2" fill="none"><path d="M1440.41.118l-.64-.076-1.71.151 2.35-.075zM1428.86.419c.43 0 .22.075.43.075l6.85-.451c-3-.226-5.35.527-7.28.376zM1426.93.419c-2.56-.075-3.63.075-4.28.15.86-.15 4.71.076 4.28-.15zM1134.02 1.172l-.64.15c11.34-.3 23.96 0 35.95-.15l-.86.075c30.38.076 58.41-.226 88.37-.376-.43 0-.65.075-1.07.075 1.49-.075 2.99-.15 4.7-.15.43 0-.42.075-1.07.075 6.42.301 18.62-.15 22.68.075 1.72 0 2.57-.15 1.5-.226 23.54-.075 48.79-.15 72.75-.376 1.07.075 1.28.15 1.07.226 20.54-.452 41.94-.301 62.9-.226.86-.15-2.14-.15 0-.226-6.84-.15-12.41.301-18.4.075l.86-.15c-4.49-.075-.86.3-5.56.15-1.93-.075.42-.15-.43-.15-9.42.075-19.26-.076-28.25.226-2.13-.226-10.27 0-13.69-.226-2.35.075-4.92.075-5.78.226-33.16-.15-66.97.075-100.99.075-15.83.452-34.87-.075-53.7.075-.21 0-.21 0 0-.075-6.21.15-15.19.15-22.47.15l-6.2.226c-44.08-.451-89.22-.15-133.94-.3-50.925-.151-95.643-.453-145.069.15 0-.076-.428-.076.856-.076-14.335.076-27.387-.075-40.867 0V.42c-33.378.377-69.538-.075-101.846.377-39.155-.076-83.659 0-125.168.15V.871c-33.164.226-65.473-.301-98.637-.15-34.02-.227-70.18.526-104.628.225-21.182-.452-49.211.527-69.323.075-41.081-.752-80.878-.225-121.959.151-37.871-.226-75.743.376-112.33-.15-17.331.3-36.588-.452-55.845-.302l.642.15c-6.846-.376-15.405.528-19.898 0h.642c-3.638-.3-8.559.603-10.698.302l-.642.15c-4.494.076-.428-.15-4.066-.225-1.283 0-.428.226-3.209.15C19.063.72 8.793 1.397 8.579.72c2.353 0-3.851-.226 1.712-.376-1.498-.075-8.987 0-8.345.226-.642.3-3.637.527 1.07.753l.856-.226c1.497.226 1.07.075 1.711.226 5.991 0 6.633.3 10.913.451 2.995-.226 6.846-.075 9.2-.075l.856.075c1.497.226 6.633-.451 4.92-.075 11.983-.075 25.89-.075 39.37-.075 1.926-.15 10.27 0 7.275-.301 3.423.3 13.48.451 17.117.376-.214 0-.214.075-.856.075 7.275.452 8.558-.376 15.405.15 1.07-.376 12.196.151 16.047-.3.856.075 1.07.15.856.226 12.196 0 25.676.15 35.946.15 8.772-.301 21.396.15 28.885-.301 6.205.075 16.475.301 25.247.075l-.855.076c9.842 0 22.252-.076 28.885-.302 2.995.452 7.274.377 11.554.452 6.632-.226 19.898-.15 29.954-.301 1.498.226 8.345-.075 8.773.226 28.243-.527 63.119-.377 93.073.075h-.427c3.851-.15 8.344-.527 12.409-.753.428 0 .428.076-.428.076 5.563-.076 10.699.225 16.048.15 0 .075 0 .075-.856.075 5.135-.15 10.698.226 16.689 0l.428.076 3.851-.076c0 .076-.214.226-2.354.226 47.286.076 95.856-.376 144.425-.3l-1.712.074 9.415-.15c0 .075-.428.075-.856.075 11.982.15 24.392-.075 35.946-.075 0 .075-1.926.15-.214.226 8.558-.226 13.907.376 18.187-.226.427 0 .641.15-.214.226 23.963-.15 48.783-.15 72.961-.076 20.112-.527 42.578-.075 63.547-.451v.075c27.173-.376 55.844 0 83.873-.075 11.768.075 19.471-.076 31.238-.076l.214.151c19.685-.452 41.509.452 62.05-.075l-1.498.15c3.209-.226 12.41.076 11.126-.376l3.637.15c13.908-.602 25.462.302 42.577-.075l-1.07.075c4.5-.075 9.84-.15 13.27-.075-.43 0-.22.075-1.29.075 14.34.452 30.17-.075 45.15 0l-1.71.226c7.27-.226 20.54 0 30.17-.15l-.64.075 4.92-.15.21.15c12.84.226 24.61.075 36.8 0z" fill="#504126"/></svg>