<svg xmlns="http://www.w3.org/2000/svg" viewBox="0 0 1308.6 1081.05"><title>Asset 3</title><g id="Layer_2" data-name="Layer 2"><g id="Layer_1-2" data-name="Layer 1"><path d="M957.28,185.93,541.7,129.58,514.32,331.51,929.9,387.85ZM526.05,322.58l24.57-181.27,394.93,53.54L921,376.12Z"/><path d="M1293.79,238.59c-.45-.64-.9-1.22-1.35-1.83a150.31,150.31,0,0,0,11.43-11.57c2.32-2.64,4.5-5.58,4.72-9.25.26-4.61-2.77-7.47-4.23-8.85l-5.92-5.59c-1.25-1.18-4.56-4.31-9.37-3.24-3.26.73-5.6,3.17-7,4.62l-11.31,11.76a9.57,9.57,0,0,0-1-3,9.13,9.13,0,0,0-3.22-3.34,11.89,11.89,0,0,0-5.76-1.73,18.5,18.5,0,0,0-4.08.26c-1.16.18-2.15.42-3.05.65s-1.95.62-2.92,1-1.74.72-2.62,1.11a88.81,88.81,0,0,0-16.88,10.7c-5.1,3.88-10,7.85-14.92,11.87s-9.6,8.17-14.31,12.32c-9.46,8.26-18.52,16.9-27.62,25.49s-18,17.35-26.88,26.17-17.62,17.73-26.38,26.68-17.5,18-25.87,27.7a123.18,123.18,0,0,0-12.39,16.31,57.07,57.07,0,0,0-4.72,9.83c-1.23,3.23,69-187.93,69-187.93a12.58,12.58,0,0,0,.76-3.65c.66-12.07,2.83-29.52,5.35-49.73,1.3-10.47,2.65-21.31,3.9-32.33L1160,77.73l-12.56,22c-17.9,31.39-39.43,63.15-43.56,69.2a12.46,12.46,0,0,0-1.43,2.79l-21.07,57.47L1095.1,128a37.39,37.39,0,0,0-32-42L429.3,0l-5.7,42-16.28-2.21a7.82,7.82,0,0,0-2.1,15.49l16.28,2.2-4.79,35.41-16.29-2.21a7.81,7.81,0,1,0-2.1,15.48l16.29,2.21-4.8,35.4-16.29-2.2a7.81,7.81,0,1,0-2.1,15.48l16.29,2.21-4.8,35.4-16.28-2.21a7.82,7.82,0,1,0-2.1,15.49l16.28,2.2L396,245.54l-16.28-2.21a7.81,7.81,0,1,0-2.1,15.48L393.91,261l-4.39,32.38-16.28-2.21a7.82,7.82,0,1,0-2.1,15.49l16.28,2.21-5,36.7-16.28-2.2a7.81,7.81,0,0,0-2.1,15.48l16.28,2.21-5,36.71-16.28-2.21a7.81,7.81,0,1,0-2.1,15.48l16.28,2.21-4.61,34L352.38,445a7.82,7.82,0,0,0-2.1,15.49l16.29,2.21-4.79,35.33-9.12-1.24c-6.86-2.85-14.33-5-22.12-5h-.4c-11.75.11-23.86,5-37,15a85.9,85.9,0,0,0-12.58,11.5,170.16,170.16,0,0,1,5.59-39.58,23.65,23.65,0,0,0,7.79,1.34,23.9,23.9,0,1,0-17-7.14,181.06,181.06,0,0,0-6.84,47.49,41.4,41.4,0,0,0-4.89-2.79,47.88,47.88,0,0,0-11.6-3.8A272.94,272.94,0,0,1,244.06,482a23.84,23.84,0,1,0-10.35,1.46,282.9,282.9,0,0,0,8.5,29.4c-16.4.23-33.23,6.91-48.5,13.71-8,3.55-17,7.57-24,14.5-13.36,13.28-15.64,33.13-16.84,52.32-.13,2.11-.28,4.47-.28,7a82.84,82.84,0,0,0-18.21,23.87c-.7,1.35-1.35,2.73-2,4.12A251.86,251.86,0,0,0,18,623l-9.76,1.84,7,7A431.5,431.5,0,0,0,87,689.21,185.52,185.52,0,0,0,7.77,725.59L0,731.76l9.49,2.89a314.66,314.66,0,0,0,78.67,13.49,24.84,24.84,0,0,0,4.78,11.4c2.68,3.48,6,5.88,9.22,8.19a51.22,51.22,0,0,1,5.41,4.26c3,2.84,5.18,6.57,7.54,10.53,1.26,2.1,2.56,4.29,4,6.4,12.25,17.75,34.45,28.4,58.7,28.4,1.46,0,2.92,0,4.39-.12,2.72-.14,5.46-.42,8.21-.81a23.44,23.44,0,0,0,.67,9.06c2.27,8.16,9.36,15.16,19.47,19.19a101.67,101.67,0,0,0,13,3.93c3.42.87,6.65,1.68,9.78,2.78,8.73,3,16.59,8.24,24.91,13.74,1.82,1.2,3.66,2.41,5.51,3.6a221.13,221.13,0,0,0,28.14,123.88l4.91,8.62,4.31-8.94a370.22,370.22,0,0,0,34.56-118c1.61-.92,3.19-1.89,4.73-2.94l26,3.51c-6.37,19.63-1.34,42.68,13,57.59a111.39,111.39,0,0,0,8.88,8c4.7,3.92,9.13,7.63,12.1,12.28h0a65.54,65.54,0,0,1,3.16,5.89c2.47,5,5.28,10.71,10.83,14.29,8.22,5.31,17.66,3.29,26,1.52,2.21-.47,4.31-.92,6.33-1.22,10.25-1.55,20.65.63,31.67,3,3,.63,6.1,1.28,9.18,1.85a96,96,0,0,0,17.21,1.72c9.77,0,17.91-2,24.64-6a190.79,190.79,0,0,0,25.78,41.72,192.92,192.92,0,0,0,95.64,63l9.55,2.72-3.18-9.4a328.87,328.87,0,0,0-32.66-69.05,252.36,252.36,0,0,0,123.35,32.53q4.11,0,8.22-.14l9.92-.34-5.91-8a423.66,423.66,0,0,0-96.1-94.23c.24-1.7.43-3.41.56-5.13a65.09,65.09,0,0,0-.22-12.13l288.46,39.1a29.23,29.23,0,0,0,4,.28,30,30,0,0,0,29.63-25.91l57.27-422.44,248.53-256.05C1295.57,246.85,1296.18,242,1293.79,238.59Zm-196,136a55.64,55.64,0,0,1,9.1-14.13c7.94-9.07,16.53-18,25.35-26.63s17.78-17.23,26.85-25.69c18.13-16.89,36.55-33.51,55.2-49.65l6.66-5.74-125,127.6A38.76,38.76,0,0,1,1097.78,374.55Zm36.8-233.37a4.47,4.47,0,0,0,2.66-1.08,29.94,29.94,0,0,0,5.59-5.6c-2.26,18.24-4.24,34.21-5.1,46.21a41,41,0,0,1-8.44-1.73,54.9,54.9,0,0,1-14.81-7.07C1118.32,166.24,1125.86,154.94,1134.58,141.18ZM1110,181.42a68.13,68.13,0,0,0,9.91,5.24L876.28,850.74c-3.47-1.19-6.9-2.54-10.24-4.07ZM962.56,553.23c-43.66,45.06-85.82,88.53-122.12,125.93-33.74,34.76-63,66.45-100.09,101.25l-.59-.49c25-37,60.17-80,104.37-127.82l131.3-134ZM299.43,515.11c11.3-8.59,21.38-12.8,30.81-12.89h.3c11.16,0,22.12,5.78,31.8,10.89,10.53,5.55,21.42,11.3,29,20.18a45.68,45.68,0,0,1,8.08,43.79,74.56,74.56,0,0,0-34-20.52c-13.74-3.74-26.32-2.46-35.42,3.59l0,0c-5.14-10.78-16.08-16.7-24.62-19.81a60.7,60.7,0,0,0-20.16-3.91c-.74-1.25-1.52-2.45-2.35-3.62C286.21,526.85,291.67,521,299.43,515.11Zm111.06,33.06a41.41,41.41,0,0,1,8.17-.84,39.91,39.91,0,0,1,15.42,3.06c8.82,3.72,16.23,10.53,23.07,17.18,6.58,6.41,14,14,19,22.82,7.79,13.86,10.06,32.17,6.39,51.56a109.32,109.32,0,0,1-3.16,12.43c.19-1.8.38-3.6.56-5.41.53-5.22,1.92-19.1-7.84-25.5-5.79-3.81-13.91-3.48-20.68.84-5.39,3.44-9,8.5-12.19,13l-9.69,13.57c.76-6.43,1-13.65-1.45-20.58a25.72,25.72,0,0,0-8.59-11.62,70.47,70.47,0,0,0-12.59-32.49c.73-1.49,1.41-3,2-4.57A55.12,55.12,0,0,0,410.49,548.17ZM646.32,845.28a30.4,30.4,0,0,1,5.56,5.79c3.19,5.06.72,12.31-3.39,16.13-5.62,5.23-13.81,6.35-19.7,6.37h-.43A92.93,92.93,0,0,0,613,870.43a136.38,136.38,0,0,0-56.2,5,125.36,125.36,0,0,0-28.06,12,135.58,135.58,0,0,0-16.38,10.92l-.23.14a10.53,10.53,0,0,0-4-10.11,8.33,8.33,0,0,0-4.82-1.42l1.77-6.12a124.88,124.88,0,0,1,26-44.94,207.53,207.53,0,0,1,19.21-18.57,81.11,81.11,0,0,0-22.9,14.89,120.26,120.26,0,0,0-31.08,45.48L494,884.21A17.11,17.11,0,0,0,483.69,877c-12-41.46-25.34-91.62-13.63-137.41,1.18-4.59,3.76-8.9,6.15-10.24a2.61,2.61,0,0,1,1.32-.4,2.66,2.66,0,0,1,.76.12,11.65,11.65,0,0,1,3.48,2.56,23.37,23.37,0,0,0,5.7,4.18c5.5,2.61,11.27,1.24,15.91.15.8-.19,1.58-.38,2.36-.54,14.83-3.13,31.38,3.93,39.38,16.78a79.89,79.89,0,0,1,4.19,8c2.68,5.58,5.44,11.35,10.35,16,8.65,8.14,20.68,9.57,31.29,10.83,1.89.23,3.78.45,5.62.71,10.26,1.44,21.8,6.13,23.41,15,.15.8.24,1.72.34,2.7.36,3.57.85,8.45,4.85,11.75,3,2.48,6.61,2.87,9.51,3.19a19.69,19.69,0,0,1,3.44.55,12.4,12.4,0,0,1-.5,3.18,24.67,24.67,0,0,0-.83,5.25C636.66,836.74,642,841.48,646.32,845.28Zm-47.83,83.4a113.42,113.42,0,0,1,18.25,12.42,67.36,67.36,0,0,1,14,16.18,48.24,48.24,0,0,1,5.19,11.78c-.85-.43-1.77-1-2.71-1.57s-1.75-1.08-2.63-1.56c-6.43-3.52-13.26-4.36-20.12-4.36-3.19,0-6.39.18-9.56.36-6.68.38-13,.74-18.8-.58-13.42-3.07-23-14.6-33-26.8-1.7-2.06-3.41-4.12-5.15-6.16a36,36,0,0,0-20.72-19l-.58-.17a42.2,42.2,0,0,0-4.3-2.17,127.5,127.5,0,0,1,93.51-26.3c16,2,27.51,7.13,34.32,15.34,6.16,7.43,9,18.24,8.15,30.44-.88,11.75-5,23.42-8.59,33.72a39.55,39.55,0,0,1-1.63,4,57.82,57.82,0,0,0-6.9-11.38A73.74,73.74,0,0,0,619.88,937a117.05,117.05,0,0,0-20.24-10.61c-7-2.92-14.07-5.37-21.16-7.81C585.24,921.77,592,925,598.49,928.68Zm-276.08-333c4.85,6.11,12.16,8.48,18.61,10.58,5.59,1.82,10.86,3.53,13.72,7.25a26.68,26.68,0,0,1,3.16,6.35c.33.82.66,1.64,1,2.45a57.09,57.09,0,0,0,6.46,11.29c-.78.14-1.55.31-2.31.5-.73-.67-1.48-1.32-2.25-1.93a47.31,47.31,0,0,0-19.33-8.63,34.25,34.25,0,0,0-7.23-10.69c-6.1-6.13-13.79-9.42-21.74-9.24-1.76,0-3.42.23-5,.42a20.06,20.06,0,0,1-12.37-1.52c-1.38-.48-2.8-1-4.31-1.41-15.62-4.41-33.8,2.27-43.23,15.88a39.76,39.76,0,0,0-2.45,4.11,33.71,33.71,0,0,1-6.88-5.46c-.91-1-1.78-2.17-2.7-3.41-.29-.4-.61-.81-.92-1.22a35.61,35.61,0,0,1,10.26-16.87c6.52-5.8,15.22-9.11,23.63-12.3,12.25-4.66,26-9.89,39.59-9.89,1.07,0,2.13,0,3.19.1a48,48,0,0,1,8.42,1.32,27.12,27.12,0,0,0-1.42,5.32A21.59,21.59,0,0,0,322.41,595.71Zm5.73,25.92c-2.18-.19-4.31-.35-6.36-.49-10.86-.78-24.39-1.74-36.22,3.66-6.9,3.15-12.94,8.22-18.24,15.32a51.86,51.86,0,0,0-11.26-11.93q-1-.78-2.1-1.5a29.09,29.09,0,0,1,2.18-3.75,30.4,30.4,0,0,1,24.58-12.77,26.53,26.53,0,0,1,7.25,1c1.19.33,2.4.76,3.69,1.21a37.15,37.15,0,0,0,9.33,2.37,38.2,38.2,0,0,0,7.69-.33,40.52,40.52,0,0,1,4.06-.35,19.75,19.75,0,0,1,14.13,6.17C327.31,620.67,327.73,621.15,328.14,621.63ZM243,632.09a78.53,78.53,0,0,1,6.74,4.4,43.78,43.78,0,0,1,11.4,13.39q-1.64,3-3.17,6.43a136.85,136.85,0,0,0-9,84.19,85.45,85.45,0,0,0,10.21,26.84,42.86,42.86,0,0,1-10.17-2c-27.16-8.59-50.08-30.57-59.82-57.34a95.63,95.63,0,0,1,9-82.38c3.91-6.15,7.43-9.86,11.41-12.05a15.52,15.52,0,0,1,7.22-1.9,9.78,9.78,0,0,1,5.68,1.65,23.73,23.73,0,0,1,4.67,5.19,53,53,0,0,0,3.33,4.19C234.22,626.73,238.7,629.45,243,632.09Zm16.14,106.24a126.27,126.27,0,0,1,8.33-77.74c6.14-13.63,13.47-22.24,22.38-26.31,9.43-4.3,21-3.48,31.16-2.75,12.32.87,23.26,2.08,31.48,7.54-8.11,5.65-15.1,15.24-20.57,28.48-14.74,35.67-18.12,74.2-21.39,111.47l-.06.66c-10.46,2.28-21.09.92-29.33-4.16C267.79,767.29,261.82,750.75,259.17,738.33Zm82.41-66.8c4.8-11.6,13.23-25.83,26.18-27.76a48,48,0,0,1,5.29-.36c3.58-.11,7.62-.24,11.57-1.79,5.18-2,8.91-6,12.21-9.52s6-6.4,9.39-7.11h0c5-1,10.23,3.7,12,8.79,2.32,6.5,1.16,14.52.23,21-4.55,31.48-10,61.79-26.81,86.55C377,763,348.57,781,321.33,775.49,324.42,740.4,328,704.34,341.58,671.53Zm158.81,54.38c-3.29.77-6.38,1.42-8.45.44a15.39,15.39,0,0,1-3.15-2.46c-1.88-1.71-4.21-3.84-7.47-4.83a12.78,12.78,0,0,0-10.22,1.16C465.2,723.54,461.49,731,460,737A157.41,157.41,0,0,0,455.42,767c-.28-.39-.55-.79-.84-1.17a50.3,50.3,0,0,0-10.44-10.7A95.24,95.24,0,0,0,456,739.69a137.25,137.25,0,0,0,14.49-33.93,139.13,139.13,0,0,1,17.36,2.42c7.19,1.5,11.36,3.89,12.4,7.1a16.67,16.67,0,0,1,.27,5.72c-.07,1.18-.14,2.39-.12,3.66C500.35,725.08,500.37,725.49,500.39,725.91Zm-30.82-78c-3.14,31.16-7.21,61.21-22.52,86.34a86.52,86.52,0,0,1-12.87,16.24c-6.55-1.44-12.48.21-17.74,1.69-4.37,1.23-8.49,2.39-12.72,1.81a48.49,48.49,0,0,0-8.18-.46c1.71-2.1,3.31-4.24,4.77-6.4,14.73-21.72,21.38-47.66,25.8-73.57l21.59-30.25c2.77-3.88,5.62-7.89,9.31-10.24a11.69,11.69,0,0,1,6-1.84,6.12,6.12,0,0,1,3.4.92C469.43,634.18,470.44,639.19,469.57,647.93ZM365.31,778.36a26,26,0,0,0,3.05,1.38,46,46,0,0,0,.48,10.69,52.84,52.84,0,0,0-11.57-1.36,48.86,48.86,0,0,1-5-5.28A80.34,80.34,0,0,0,365.31,778.36Zm8.63,24.82,8.43,4c2,1.19,4,2.37,6,3.59a202.37,202.37,0,0,1,18.34,12.73,143.14,143.14,0,0,1,16.46,15.08c5.14,5.44,9.92,11.22,14.91,17.17a73.73,73.73,0,0,0-10.72-20.63,128,128,0,0,0-15.55-17.52,165.5,165.5,0,0,0-18.15-14.79l-4.81-3.31L384,796.4l-3.63-2.24c-2.85-10.31-2.05-19.38,2.31-24.61,4.88-5.88,13.4-6.08,19.67-5.22s12-.7,17-2.1c9.39-2.63,16.17-4.54,27,9.87a74.62,74.62,0,0,1,9.16,16.65c1.64,31.32,9.93,62.2,17.81,89.49a16.71,16.71,0,0,0-8,7.84c-2.85-1.25-6-2.28-9-1.6a7,7,0,0,0-4.27,3,193.89,193.89,0,0,1-18.86-16.12c-6.79-6.35-13.82-12.91-21.86-18.41-8-6.86-17.82-11.06-26.59-14.8-14.15-6-30.2-12.91-47.26-13h-.21c-11.64,0-23.77,4.56-34.58,12.66,7.92-14.52,18.19-25.57,29.77-32C345.84,798.4,361.79,797.36,373.94,803.18Zm116-105.2a145,145,0,0,0-16.85-2.48c.52-2.27,1-4.56,1.44-6.85a126.79,126.79,0,0,0,12.84-25.41,210.67,210.67,0,0,1,107.58-42.6c-20.63,34.57-49.94,65.22-85.38,90C505.5,701.25,493.87,698.81,489.92,698Zm-81.64-83.53a17.24,17.24,0,0,0-4.2.35c-6.59,1.38-11,6.05-14.85,10.17-2.78,3-5.42,5.77-8.42,6.95a12.93,12.93,0,0,1-2.74.68,47.41,47.41,0,0,1-9.58-14.35c-.32-.74-.61-1.48-.91-2.23a35.86,35.86,0,0,0-4.58-8.83c-4.83-6.28-12.23-8.68-18.76-10.81-5.54-1.8-10.77-3.5-13.67-7.15a11.25,11.25,0,0,1-2-8.9,17.42,17.42,0,0,1,7.23-11.5,26.25,26.25,0,0,1,14.67-4,47.64,47.64,0,0,1,12.25,1.74C385.39,572.78,403.6,592.28,408.28,614.45ZM293.93,442.76a13.45,13.45,0,1,1-13.44,13.44A13.46,13.46,0,0,1,293.93,442.76ZM278.46,547.39c7-1.28,14.84-.35,23.39,2.76,5,1.82,13.3,5.71,17.65,12.5a60.13,60.13,0,0,0-7.56-1c-16.84-1.06-32.94,5.05-47.13,10.45-8.86,3.37-18.9,7.18-26.85,14.26a44.54,44.54,0,0,0-11.67,17.06,21.73,21.73,0,0,0-13.13-1.94c.2-12.52,5.63-24.33,14.55-31.64a37.42,37.42,0,0,1,23.4-8.27,35.19,35.19,0,0,1,4.47.29l3.53.45,1.71-3.13C264.06,553.23,270.66,548.81,278.46,547.39Zm-42.8-74.26a13.44,13.44,0,1,1,13.44-13.44A13.46,13.46,0,0,1,235.66,473.13Zm-58.57,75.32c5.62-5.58,13.37-9,20.86-12.37,14.44-6.43,30.35-12.79,45.13-12.79A40.61,40.61,0,0,1,260.72,527a35.46,35.46,0,0,1,12.89,10.79,35.7,35.7,0,0,0-20.08,13.42,48,48,0,0,0-32.42,10.56,50.71,50.71,0,0,0-16.26,25.3c-12.86-4-27.81-2.18-40.74,5l-.7.42C164.54,575.18,166.62,558.86,177.09,548.45ZM143.67,629c6.48-12.48,15.3-22.09,25.51-27.77a44.78,44.78,0,0,1,21.67-5.8,36.76,36.76,0,0,1,12.1,2c-.12,1.4-.21,2.81-.22,4.23,0,1.27,0,2.54.1,3.81-6.27,4.06-10.62,10.11-13.4,14.48-17,26.71-20.84,61.79-10,91.54a105.71,105.71,0,0,0,34.7,46.94c-8.7,1.7-18.19-1.2-23.78-3.45a90.78,90.78,0,0,1-46.66-126ZM30,631.58a242,242,0,0,1,98.57,6.48,103.77,103.77,0,0,0-4.3,47.77q-6.93-.11-13.84.33c-2.51.15-5,.38-7.52.64A417.39,417.39,0,0,1,30,631.58ZM92.58,727a33.31,33.31,0,0,0-4.17,10.72,302.51,302.51,0,0,1-65.85-10.17,174.9,174.9,0,0,1,88.52-31c5.09-.32,10.19-.38,15.28-.24q.7,2.74,1.58,5.45a120.06,120.06,0,0,0-11.87,5.32C104.7,713,97.23,719.29,92.58,727Zm89.09,79.79c-22,1.17-43.19-8.18-54-23.79-1.26-1.84-2.42-3.78-3.65-5.83-2.6-4.37-5.3-8.89-9.27-12.71a59.33,59.33,0,0,0-6.54-5.2c-2.72-2-5.3-3.81-7-6.08-4-5.26-3.92-13.81.3-20.8,3.61-6,9.76-11.09,19.35-16a112.06,112.06,0,0,1,10.79-4.84,102.94,102.94,0,0,0,54.79,53.16c6.25,2.52,14.1,4.78,22.16,4.78a35,35,0,0,0,16.18-3.74,100.41,100.41,0,0,0,21.11,9.53c1.22.38,2.41.71,3.59,1a89.46,89.46,0,0,1-9.09,7.38C220.22,798,200.47,805.81,181.67,806.8Zm55.15,34.71c-3.56-1.24-7.18-2.16-10.67-3a92.78,92.78,0,0,1-11.72-3.5c-3.34-1.34-11.32-5.21-13.29-12.31a14.32,14.32,0,0,1,.43-8.54c14.73-3.87,29.75-11.23,44.86-22a86.66,86.66,0,0,0,16-14.37,30.53,30.53,0,0,0,4.37-.53,46.54,46.54,0,0,0,8.9,7.19,47.76,47.76,0,0,0,25.06,6.74,57.84,57.84,0,0,0,22.65-4.73,62.13,62.13,0,0,0,8.46.59,64.88,64.88,0,0,0,9.36-.7,42.59,42.59,0,0,0,2.95,4.12,62.56,62.56,0,0,0-16.9,6.34c-13.58,7.51-25.48,20.32-34.41,37.06-6.23,11.69-9.46,27-1.29,37.06-9.71-2.74-18.4-8.44-27.55-14.48C255.55,850.79,246.78,845,236.82,841.51Zm59.31,136.84a211,211,0,0,1-22.25-103.62,69.61,69.61,0,0,0,17.61,6.92A54.31,54.31,0,0,0,303.66,883a62.9,62.9,0,0,0,20.94-3.71A359.39,359.39,0,0,1,296.13,978.35ZM350.6,859.16a54.44,54.44,0,0,0-13.48,1.67,97,97,0,0,0-10.64,3.6,83,83,0,0,1-9.75,3.3c-3.14.78-11,2.14-15.82-2.09a11.81,11.81,0,0,1-3.76-8.39c11.43-13.58,26.25-21.64,40-21.64h.16c14.95.07,30,6.49,43.22,12.15,2.82,1.21,5.67,2.43,8.46,3.74-6.69,1.07-12.51,5.68-16.67,11.39A70.05,70.05,0,0,0,350.6,859.16ZM526.79,962.93c-8.21,6.3-20.41,7.85-37.29,4.74-2.95-.54-6-1.18-8.92-1.8-8.67-1.83-17.57-3.7-26.64-3.7a57.4,57.4,0,0,0-8.74.64c-2.33.35-4.67.85-6.94,1.33-5.67,1.21-11.08,2.36-15.38,1.16a60.13,60.13,0,0,1,1-10.5,62.63,62.63,0,0,1,4.58-14.5,61.16,61.16,0,0,1,8.17-13.18,96.3,96.3,0,0,1,11.09-11.56,42.65,42.65,0,0,0-14.23,8.56A64.45,64.45,0,0,0,422.5,937a62.43,62.43,0,0,0-7.26,15.61c-.39,1.25-.72,2.52-1,3.8-.43-.83-.85-1.68-1.28-2.54a69.24,69.24,0,0,0-3.73-6.89c-3.83-6-9.11-10.41-14.21-14.67a104.13,104.13,0,0,1-8.05-7.21c-12.66-13.13-16.48-34-9.28-50.77,3.08-7.19,9.52-13.8,15.89-12.52a23.81,23.81,0,0,0,7-.09,23.75,23.75,0,0,1,4.66-.22c7.41,5.05,13.85,11.08,20.68,17.46s14,13.07,22.14,18.6c11.57,7.84,24.69,16.73,40.17,19a100,100,0,0,0,13.62.73c6.39,0,12.43.09,17.86,2a25.11,25.11,0,0,1,7.06,43.67Zm117.09,102.25a182.61,182.61,0,0,1-80.57-56.4,180.72,180.72,0,0,1-25.5-41.94,36.31,36.31,0,0,0,8.83-18.9c9.13,10.63,19.15,20.38,33.1,23.57a51.15,51.15,0,0,0,10,1.15A306.78,306.78,0,0,1,643.88,1065.18Zm101.69-40.48a241.51,241.51,0,0,1-127.82-38.38c-2.77-1.79-5.49-3.66-8.18-5.57q-3.26-4.32-6.64-8.5c8.34-.46,16.19-.7,22.61,2.82.72.4,1.44.84,2.17,1.29,2.85,1.75,6.38,3.93,10.78,3.93h.17c7.33-.09,13-5.66,16.81-16.56,2.2-6.27,4.56-13,6.36-20.11A412,412,0,0,1,745.57,1024.7Zm230.66-97.44a19.53,19.53,0,0,1-22,16.71L662.13,904.36a44.65,44.65,0,0,0-8-14.89,43.59,43.59,0,0,0-9.11-8.22,31.53,31.53,0,0,0,10.58-6.42c8.48-7.87,10.68-20.47,5.12-29.31a38.83,38.83,0,0,0-7.48-8c-3.77-3.33-6.05-5.53-6-8a16.12,16.12,0,0,1,.54-3c.72-3,1.7-7.16-.82-11.12-2.84-4.46-7.62-5-11.11-5.37-1.52-.16-3.42-.37-4-.86s-.93-2.9-1.12-4.77c-.11-1.13-.23-2.31-.45-3.51C628,788.63,616,779.86,598,777.34c-1.92-.27-3.87-.5-5.84-.73l-3.07-.37a168,168,0,0,1,16.15-10.85,23.75,23.75,0,0,0,21.37,13.3h.16a23.87,23.87,0,1,0-24-23.9,180,180,0,0,0-27.07,18.8,23.59,23.59,0,0,1-8.92-5.06c-3.49-3.28-5.73-7.94-8.09-12.88a94,94,0,0,0-4.74-9c-9-14.39-26.31-23.09-43.2-22.36q0-.94.06-1.89c41.74-28.19,75.67-64.2,98.05-105.17l4.46-8.16-9.29.46A221.34,221.34,0,0,0,492.1,647c.23-1,.47-2.07.66-3.11,4.13-21.8,1.45-42.61-7.54-58.6-5.65-10.06-13.7-18.27-20.8-25.18s-15.8-14.9-26.29-19.32a50.52,50.52,0,0,0-31.25-2.52,53.28,53.28,0,0,0-7.54-11.67c.35,0,.7.07,1.05.07a16.4,16.4,0,1,0-13.81-25.26l-14.48-2,4.79-35.33,15.28,2.07a16.64,16.64,0,0,0,2,3.43A16.27,16.27,0,0,0,405,475.94a16.67,16.67,0,0,0,2.22.15,16.4,16.4,0,1,0-13.65-25.48l-14.59-2,4.6-34,16,2.17a16.46,16.46,0,0,0,1.4,2.21,16.29,16.29,0,0,0,10.85,6.32,16.86,16.86,0,0,0,2.24.15,16.41,16.41,0,1,0-14.34-24.43l-14.08-1.9,5-36.71,15,2a16.38,16.38,0,0,0,13.06,10.28,16.78,16.78,0,0,0,2.22.15,16.42,16.42,0,0,0,16.24-14.2h0a16.41,16.41,0,0,0-14.05-18.45,16.23,16.23,0,0,0-12.14,3.2,16.66,16.66,0,0,0-3.41,3.51l-14.81-2,5-36.7,14.2,1.92a16.39,16.39,0,0,0,13.64,12,17,17,0,0,0,2.24.15,16.42,16.42,0,1,0-12.17-27.43l-15.81-2.14,4.39-32.38,15.65,2.12a16,16,0,0,0,1.71,2.78,16.29,16.29,0,0,0,10.85,6.32,17,17,0,0,0,2.24.15,16.4,16.4,0,1,0-14.05-24.92l-14.3-1.93,4.8-35.41,15.47,2.1a16.4,16.4,0,0,0,12.69,9.44,17,17,0,0,0,2.24.15,16.4,16.4,0,1,0-10-29.46,16.53,16.53,0,0,0-3.89,4.25l-14.44-2,4.8-35.4,15.28,2.07a16.39,16.39,0,1,0,1.42-15.58l-14.6-2,4.8-35.4,15.09,2a16.4,16.4,0,1,0,1.76-15.53l-14.75-2,4.8-35.41,14.89,2a16.47,16.47,0,0,0,13.14,10.45,16.78,16.78,0,0,0,2.22.15,16.4,16.4,0,1,0-13.25-26.08l-14.9-2,4.29-31.67,623.49,84.53a27,27,0,0,1,23.07,30.31L1064.7,274.71,984.15,494.34,836.59,644.92C790.36,694.91,754,739.69,728.51,778L726,781.8l3.44,3c.44.39.92.79,1.39,1.19l-7.72,8c-1.85,1.89-2.17,4.57-.72,6l0,.05c1.45,1.4,4.12,1,6-.9l8.09-8.33,1.36,1.17,3.16,2.76,3.37-2.5a1189.09,1189.09,0,0,0,131-112.44l65.51-67.49-94.26,257a22,22,0,0,0,1,17.51,23.76,23.76,0,0,0,13.23,11.83l.37.14a24.12,24.12,0,0,0,8.32,1.48,22.71,22.71,0,0,0,21.53-14.65l131.23-357.23,9.26-9.54ZM617.06,745.39a13.44,13.44,0,1,1,9.66,22.88h-.09a13.44,13.44,0,0,1-9.57-22.88ZM400,504.32c.13,0,.27,0,.41,0a7.31,7.31,0,0,1,.8.05,6,6,0,0,1,5.13,6.74h0a6,6,0,0,1-2.31,4,5.88,5.88,0,0,1-3.56,1.2,7.76,7.76,0,0,0-.47-11.91Zm7.18-50.61h.08a5.51,5.51,0,0,1,.81.05,6,6,0,0,1-1,11.88,7.79,7.79,0,0,0,.08-11.93Zm5.37-50.35a5.83,5.83,0,0,1,1.56-.23,7.34,7.34,0,0,1,.81.05,6,6,0,0,1,5.13,6.74,5.9,5.9,0,0,1-5.09,5.1,7.78,7.78,0,0,0-2.41-11.66Zm8.92-50.77.31,0a6,6,0,0,1-1.55,11.86,7.73,7.73,0,0,0,1.24-11.88Zm8.52-50.19a6,6,0,1,1-4.84,10.89,7.78,7.78,0,0,0,4.84-10.89Zm3.79-50.92a5.47,5.47,0,0,1,.9-.08,5.76,5.76,0,0,1,.82.06,6,6,0,0,1-.45,11.9,7.72,7.72,0,0,0-1.27-11.88ZM441,200.87c.16,0,.32,0,.48,0a5.52,5.52,0,0,1,.81.06,6,6,0,0,1,5.13,6.73,6,6,0,0,1-2.31,4,5.94,5.94,0,0,1-3.52,1.2,7.73,7.73,0,0,0-.59-11.91Zm7.28-50.61h.06a5.51,5.51,0,0,1,.81.05,6,6,0,0,1-1,11.88,7.79,7.79,0,0,0,.12-11.93Zm7.24-50.56c.16,0,.32,0,.48,0a6,6,0,0,1-1.36,11.87,7.74,7.74,0,0,0,.88-11.9Zm7.21-50.55h.13A6,6,0,1,1,461.26,61l-.09,0a7.76,7.76,0,0,0,1.57-11.85ZM891.32,854.81c-1.68-.33-3.36-.7-5-1.12L1129.81,189.9a47.06,47.06,0,0,0,5.39,1Zm152.86-385.9,12.3-33.49,22.79-23.25c.55-.36,1.1-.74,1.61-1.14a30.49,30.49,0,0,0,7-7.65L1262.2,225.5A5.35,5.35,0,0,0,1265,225l.18-.09a50.21,50.21,0,0,1,7.93,5.79C1237,269.17,1143.7,366,1044.18,468.91Zm241.7-240.24a74.74,74.74,0,0,0-7.34-7.09l11-11.47c.28-.3.91-1,1.36-1.36l.35.33,5.92,5.59a12.47,12.47,0,0,1,.88.89,13.07,13.07,0,0,1-2,2.73A138.46,138.46,0,0,1,1285.88,228.67Z"/></g></g></svg>