<svg xmlns="http://www.w3.org/2000/svg" viewBox="0 0 1164.39 736.46"><title>Asset 6</title><g id="Layer_2" data-name="Layer 2"><g id="Layer_1-2" data-name="Layer 1"><path d="M965.44,192.75l1.32-7.22L967,185l1-2.15a21,21,0,0,0,1.33-11.24,2.6,2.6,0,0,0-.15-.86,22.42,22.42,0,0,0-1.54-4.88c-6-13.52-23.38-20.67-28.55-22.54-87.8-31.75-179.65-42.59-269.13-41.67,1.49-12.71,3.7-27.92,5.85-42.67,2.27-15.64,4.63-31.81,6.14-45.14l.64-5.59-5.27-2C644.26-6,615.59,1.9,591.91,11.23l-6.44,2.54,2.3,6.53c2,5.68,4.27,11.67,6.67,18,8.06,21.35,17.1,45.29,19.17,65.43C526,109.21,442,124.39,368,140.34,342.3,145.88,314.84,154,305.88,172c-3.73,7.51-3.7,15.71,0,24.37,2.48,26.56,4.75,53.21,6.94,79q1.67,19.57,3.33,38.93c-53.7-76.79-129.82-147.26-231.8-214.77l-2.11-1.39-2.51.23c-16.85,1.55-62-2.74-62.51-2.78L0,94l11,13.36C181.81,315,296.62,473.71,352.3,579.1q6.31,28.59,14.21,57.4l1.11,4,4.06,1c12.72,3.19,22,5.38,34.62,8.18l1.58,1.83a279.65,279.65,0,0,1,23,59.77l1.07,4.1,4.11,1c54.11,13.78,145.87,20,237.21,20,59.45,0,118.72-2.63,167.3-7.49l5.06-.5,1.2-4.94c5.37-22,14.3-52,22.4-66.8a160.06,160.06,0,0,0,25-12.22l2.86-1.73.07-.44c33.27-25.31,77.12-51.85,119.58-77.53,43.76-26.47,89-53.84,123.18-80.16l3.54-2.73-.89-4.39c-19.42-96.07-12.8-205.54,19.17-316.58l2.64-9.17h-9.54C1084.16,151.78,1031.14,168.66,965.44,192.75Zm112.9,255.59c-22.09,16.87-45.58,33.66-70.38,51.39-34.1,24.37-69.19,49.46-100.52,74.92,5-34.28,10-68.95,14.79-102.92,10.12-71.34,19.46-138.09,31.18-209.1l3.05-1.27,4.47-1.79c35.79-14.35,79.75-32,129.23-40.76C1074.16,291.9,1070.18,369,1078.34,448.34ZM607.88,33.24c-1.45-3.83-2.85-7.54-4.17-11.1C628.5,13.28,647.59,12,667,18c-1.47,11.9-3.46,25.62-5.4,39-2.27,15.59-4.62,31.71-6.13,45q-13.8.33-27.5,1C625.82,80.77,616.34,55.63,607.88,33.24ZM318.75,178.43c7.09-14.3,39.91-21.38,52.26-24,162.33-35,373-66.32,563.21,2.45,9.76,3.53,17.92,9.51,20.32,14.89.05.11.07.22.11.33-.22,1.2-.45,2.41-.67,3.62-88.18,41-190.46,47-288,47.25-89.61.26-180.37-3.53-269.69-11.27-1.66-.14-3.63-.3-5.82-.46-17.55-1.34-64.17-4.9-71-19.55C316.29,184.9,317.53,180.87,318.75,178.43ZM32.88,111.36c14.16,1.06,33.81,2.21,45.57,1.55,109,72.41,187.62,148.12,240.37,231.35,5.85,63.81,12.78,126.29,24.25,189C282.81,431,178.74,289.4,32.88,111.36ZM834.07,715.17c-120.26,11.48-302.14,9.52-390.44-11.6a307.12,307.12,0,0,0-18.47-49.71C509.9,671.65,592.45,680.6,672,680.6A1005.27,1005.27,0,0,0,793,673.43c18.25-2.21,38-5,57.52-10.49C843.15,681,836.89,704.12,834.07,715.17Zm-42.82-56c-128.78,15.59-267.36,5.32-412-30.53-32-118-41.79-232.87-52.12-354.45-1.72-20.32-3.5-41.18-5.39-62.13,16.15,8.28,41.51,11.47,67.62,13.46,2.15.17,4.06.31,5.68.45,86.9,7.53,175.12,11.34,262.39,11.34H666c95.85-.27,196.32-6,284.81-44.47C934.56,282.68,921.07,377.62,908,469.71c-7.72,54.45-15.71,110.71-24,164.18C855.23,650.31,821.12,655.55,791.25,659.17ZM1127.63,476c-33.11,25-76.4,51.2-118.32,76.55-37.95,23-77,46.59-109,69.63q2-13,4-26.21c33.86-28.62,73.58-57,112-84.51,24.95-17.84,50.75-36.28,74-54.13l3.2-2.46-.44-4c-8.93-82.89-4.4-163.36,13.48-239.17l2.43-10.31-10.48,1.56C1043.35,211.11,993,231.22,956.15,246c2.36-14.07,3.78-22.48,6.26-36.34l2.52-1.42c65.85-24.27,114.84-40.56,180.4-42C1115.46,274.63,1109.35,381.41,1127.63,476Z"/><path d="M531,471c-20.35,13.83-34.53,32.32-39.94,52l-2,7.45,7.66-1c40.88-5.38,83.45-44.62,99.45-77.9l5.22-10.86-11.45,3.77C571.22,450.63,549.71,458.26,531,471Zm-27.22,46.67c6.07-14.34,17.54-27.68,33-38.19,13.58-9.23,29-15.71,43.63-20.91C563.87,484,533.26,510.09,503.79,517.65Z"/><path d="M433.24,389.85,427.89,379l-4.08,11.35c-8.48,23.61-17.68,51.2-19.56,79.91-2,31.08,5.34,59.6,20.78,80.32l4.62,6.2,3.92-6.67C460.09,505.09,454.05,431.86,433.24,389.85Zm-4.61,147.72c-10.8-18-15.8-41.32-14.14-66.6,1.48-22.61,7.84-44.82,14.66-64.8C443.53,444.08,446.81,499.34,428.63,537.57Z"/><path d="M683.67,352.18a12.24,12.24,0,1,0-12-14.37c-28,12.62-60.48,17-91.77,12.56a207,207,0,0,0,64.49-35,16.51,16.51,0,1,0-4.24-11c0,.4,0,.8.06,1.2a196.54,196.54,0,0,1-72.59,37.8,4.94,4.94,0,0,0,.1-1.58c7.3-18.21,20.18-41.93,31.5-57.84a12.11,12.11,0,0,0,4.59.9,12.24,12.24,0,1,0-11.69-8.58c-12.32,16.91-26.7,43.38-34.49,63.18a171.4,171.4,0,0,1,12.14-67.13A12.26,12.26,0,1,0,559.6,270a181.64,181.64,0,0,0-12.32,67.74,171.33,171.33,0,0,1-31.49-57.29,16.51,16.51,0,1,0-9.77,3.12,181.46,181.46,0,0,0,41.38,69.71A611.58,611.58,0,0,0,432.24,611a5.14,5.14,0,0,0,4.09,6,5.28,5.28,0,0,0,1,.09,5.14,5.14,0,0,0,5-4.18A601.34,601.34,0,0,1,558,356.42a179.21,179.21,0,0,0,45.84,5.91,176.67,176.67,0,0,0,70.55-14.47A12.22,12.22,0,0,0,683.67,352.18Z"/><path d="M784.93,410l.52,0a11.78,11.78,0,1,0-9.8-5.24c-8.11,7.74-21,16.46-32.37,23.23,11.5-22.62,17.59-45.92,17.67-67.76a15.9,15.9,0,1,0-10.26,0c-.08,21.43-6.47,44.52-18.51,66.88a312.53,312.53,0,0,0-11.63-41,11.78,11.78,0,1,0-9.78,3.11,302.44,302.44,0,0,1,12.65,46.39c-19-7-39.81-24-49.94-40.51a11.78,11.78,0,1,0-9.34,4.52c10,17.06,28.48,32.49,46.14,41.39a121.37,121.37,0,0,1-66.69-11.41,15.91,15.91,0,1,0-1.16,10.79,132.08,132.08,0,0,0,54.3,11.68,128.18,128.18,0,0,0,27-2.87A404.51,404.51,0,0,1,784,622.41a5.12,5.12,0,0,0,5.1,4.59l.54,0a5.15,5.15,0,0,0,4.57-5.65,414.8,414.8,0,0,0-60.86-176,2.39,2.39,0,0,0,.13-.21C747.32,438.24,772.12,423.26,784.93,410Z"/><path d="M650.82,502.93l-10.41-2.45,4.6,9.65c21.37,44.88,67.13,77.11,116.59,82.11l12.22,1.23-7.71-9.56C740.22,551.79,696.33,513.65,650.82,502.93Zm9.08,13.29C694,527.88,726.54,554.6,749.26,580A138.67,138.67,0,0,1,659.9,516.22Z"/><path d="M873.23,428.64l-8.2,6.77c-33.89,28-51.55,73.75-45,116.6l1.84,12,7.32-9.67c21.89-28.91,45-74.32,44.23-115.07ZM829,536.88a119.4,119.4,0,0,1,33.68-85.35C859.67,481.47,844.46,513.5,829,536.88Z"/></g></g></svg>