<svg xmlns="http://www.w3.org/2000/svg" viewBox="0 0 657.05 493.07"><title>Asset 5</title><g id="Layer_2" data-name="Layer 2"><g id="Layer_1-2" data-name="Layer 1"><path d="M50.06,328.88c28.61,44.2,70.32,78.95,118.17,100a183.91,183.91,0,0,0-4.93,42.85v4.59l4.41,1.3a383.57,383.57,0,0,0,107.51,15.48c41.65,0,81.82-7,116.25-21l4-1.65-.21-4.37c-.39-7.74-2.6-15.54-4.73-23.09a129.45,129.45,0,0,1-3.84-16.11,266.53,266.53,0,0,0,74.5-50.36,262.54,262.54,0,0,0,21.21-23.08,32.59,32.59,0,0,0,.61,8.76,28.78,28.78,0,0,0,19.27,21,25.56,25.56,0,0,0,7.83,1.25,22.54,22.54,0,0,0,15.37-5.89,13.34,13.34,0,0,0,.82-18.85c-2.22-2.42-6.63-3.11-10.42-3.21a5.35,5.35,0,0,1-4.65-7.83,45.43,45.43,0,0,1,4-6c14.69-19.23,35.37-33,57.26-47.66l6.05-4c23.86-16,50.63-35.47,66.31-63.62C660,200.22,664.38,158.5,638.22,131a65.74,65.74,0,0,0-53.23-20,65.07,65.07,0,0,0-23.82,7c.61-11.31.85-21.86.87-31.44.05-1,.06-2.1,0-3.15v-.4h0c-.81-13.82-10.19-28.12-26.73-39.92-15.9-11.35-62.85-27.86-142.88-37.08-61.08-7-159.56-11.53-281.84,7C74.48,18.54,6.94,44.59.81,77.08a24.92,24.92,0,0,0-.34,6.61C-2.57,158.16,8.55,264.73,50.06,328.88Zm125.6,138.18a171.12,171.12,0,0,1,4.11-33.44c1.86.72,3.73,1.4,5.61,2.08a242.33,242.33,0,0,0-1.54,33.53C181.1,468.54,178.38,467.82,175.66,467.06Zm18.51,4.66a231.21,231.21,0,0,1,1.17-32.65q4.95,1.56,10,2.93a214.58,214.58,0,0,0,1.17,32.26Q200.31,473.09,194.17,471.72ZM217,476.11a203.53,203.53,0,0,1-1.55-31.51c4.28,1,8.6,1.87,12.93,2.65.09,10.21.54,20.48,1.36,30.68Q223.39,477.14,217,476.11Zm23.14,3c-.86-10-1.35-20.13-1.48-30.19,1.91.26,3.83.53,5.75.75q3.91.45,7.84.78l3.06,29.81Q247.76,479.81,240.16,479.07Zm25.53,1.57-3-29.57c3.94.17,7.88.29,11.82.29q3.07,0,6.15-.08l2.67,29.41C277.46,480.83,271.58,480.8,265.69,480.64Zm27.87-.34-2.68-29.47q7.29-.45,14.53-1.29l4.24,29.55C304.33,479.62,299,480,293.56,480.3Zm26.28-2.41-4.26-29.74q7.76-1.2,15.44-2.85l5.34,29.95Q328.22,476.78,319.84,477.89Zm26.58-4.71L341,442.94q8-2,15.78-4.5L362,469.19Q354.37,471.4,346.42,473.18Zm25.51-7-5.3-31.08c2.84-1,5.67-2.09,8.47-3.21.93,4.88,2.3,9.74,3.64,14.49a131.44,131.44,0,0,1,3.84,16C379.09,463.71,375.53,465,371.93,466.15ZM247.71,437.58q1.18-2.88,2.46-5.7a72.86,72.86,0,0,0,20.53,4.28c2.7.16,5.5.13,7.86-1.08a6.69,6.69,0,0,0,3.67-6.81c-.56-3.29-3.69-5.48-6.64-6.7a26.62,26.62,0,0,0-20.28,0q1.56-2.81,3.28-5.51a123.41,123.41,0,0,1,12.72-16.41,89,89,0,0,0,20.36,12.82c2.95,1.34,6.08,2.53,9.31,2.34s6.55-2.15,7.39-5.26c1-3.57-1.47-7.15-4.18-9.65A34.22,34.22,0,0,0,280.13,391a110.43,110.43,0,0,1,16.1-11.54,103.09,103.09,0,0,1,9.81-5.18c4.67,3.27,6.38,9.31,9.23,15,3.43,6.85,9.06,14.23,16.7,13.73,7.25-.47,12.19-8.67,11.15-15.86s-6.52-13-12.68-16.86c-1.52-.94-3.1-1.8-4.7-2.6a76.68,76.68,0,0,1,20.42-1.32,86.06,86.06,0,0,1,17.92,3.07c-2.89,5.13-5.36,10.59-5.26,16.42.12,6.93,5.33,14.25,12.25,14.13,5.93-.1,10.66-5.59,11.95-11.38a30.07,30.07,0,0,0-.14-11.65,92.39,92.39,0,0,1,22.06,16.39,29.31,29.31,0,0,0-7.81,11.48,12.33,12.33,0,0,0-.82,3.59C351.13,432.53,299,443.12,247.71,437.58ZM587.45,137.64a39.41,39.41,0,0,1,31.45,11.79c16.1,16.9,13.55,45.47,2.69,64.95-12.8,23-35.61,39.51-57.87,54.46l-6,4C543,282.66,528,292.7,514.54,304.71c18.49-35.12,30-72.8,37.1-108.6a25.43,25.43,0,0,0,15.14-.91c7-2.7,11.13-10.7,8.33-17.69-2.57-6.41-15-3.34-18.92-8.23.62-4.36,1.2-8.68,1.71-12.93.26-.44.52-.89.81-1.34A39.32,39.32,0,0,1,587.45,137.64Zm-51.12,2.85c-7.71,11.87-10,24.52-6.34,35.62a30.56,30.56,0,0,0,10.21,14.36c-6.8,35.77-18.12,73.55-36.59,108.59-.5.21-1,.45-1.52.66a70.77,70.77,0,0,1-8.28,2.54c-.92.23-1.86.42-2.8.62a71.51,71.51,0,0,0,7.91-35.5c-.28-7-2.74-15.28-9.49-17.13s-13,3.92-16.49,9.88a50.94,50.94,0,0,0-2.63,45c-3.84.16-7.68.25-11.54.2-5.92-.06-11.94-.27-17.82-.7-.72,0-1.43-.14-2.15-.19a114.06,114.06,0,0,0,5.77-37.82c-.08-4.81-1-10.44-5.23-12.69-4.54-2.41-10.12.6-13.7,4.29a35.9,35.9,0,0,0-4.94,43.83,173.8,173.8,0,0,1-21.83-5.48,92.39,92.39,0,0,0,.3-28.7c-.75-5.08-2.56-10.87-7.38-12.66-3.29-1.21-7.13,0-9.73,2.33a18.35,18.35,0,0,0-5,9.1,33.23,33.23,0,0,0,2,22.09c-1.92-.91-3.85-1.8-5.73-2.78a152.88,152.88,0,0,1-15-9.11c-.67-.43-1.31-.91-2-1.38a76.81,76.81,0,0,0,4.42-18.17c.4-3.55.21-7.84-2.82-9.72-3.54-2.19-8.17.68-10.46,4.16a20.73,20.73,0,0,0-3,14.41l0,0a70,70,0,0,1-11.49-12.57,36.89,36.89,0,0,1-6.27-14.87,24.21,24.21,0,0,1,2.07-15.2,18.74,18.74,0,0,1,11.47-9.21,14.93,14.93,0,0,1,7.21-.12,13.6,13.6,0,0,1,6.23,3.56c3.62,3.55,6.16,9,4.49,15a12,12,0,0,0,3.17-9,17.42,17.42,0,0,0-3.42-9.59,17.22,17.22,0,0,0-8.64-6.32,18.82,18.82,0,0,0-2.42-.56,24.13,24.13,0,0,0,0-13.45c-.82-2.84-3.61-6.19-7-5.26a5.52,5.52,0,0,0-3.45,3.54c-1.67,4-1.54,11,0,16.09a25,25,0,0,0-7.29,3.86c-.42.31-.8.66-1.2,1-3.18-2.85-6.79-5.26-10.94-6-5-.89-10.95,1.43-12.66,6.25-1.4,4,.37,8.5,3.37,11.43,2.26,2.21,7.19,3.67,11.19,4.83a35.37,35.37,0,0,0-.11,10.32,36.89,36.89,0,0,0,.95,4.79,43,43,0,0,0-21.34,9.58,17.52,17.52,0,0,0-5.47,7c-1,2.83-.71,6.3,1.44,8.41,2.74,2.71,7.22,2.3,11,1.36a65.35,65.35,0,0,0,22.42-10.41,84.81,84.81,0,0,0,11,11.9l.24.21c-5.15,2.72-10.3,5.87-13,11-3,5.62-1.2,14.2,4.94,15.89,5.16,1.42,10.3-2.56,13.22-7,2.23-3.44,3.81-7.34,6.14-10.67a154.85,154.85,0,0,0,19.07,11.83c1.59.83,3.21,1.62,4.83,2.4a32.13,32.13,0,0,0-18.6,23.44,17.24,17.24,0,0,0,.92,10.18c1.47,3.14,4.63,5.64,8.1,5.57,4.29-.1,7.54-3.79,10.07-7.27a178.86,178.86,0,0,0,15.32-25.35,177.86,177.86,0,0,0,29.55,7.79,24.9,24.9,0,0,0-14.11,11.75c-1.64,3-2.62,6.61-1.88,10s3.52,6.45,7,6.74c4,.34,7.37-2.86,9.94-6a105.08,105.08,0,0,0,13.43-20.62c2.2.21,4.4.39,6.6.52a230.79,230.79,0,0,0,27.71,0,47.94,47.94,0,0,0-12.34,17.1,18.26,18.26,0,0,0-1.81,8.31,8.34,8.34,0,0,0,4.22,7c2.74,1.34,6.15.54,8.62-1.26s4.16-4.43,5.72-7.05a139.79,139.79,0,0,0,12-26.16,93.49,93.49,0,0,0,10.95-2.69c1.29-.43,2.58-.91,3.86-1.42a263.83,263.83,0,0,1-46.66,60.86,249,249,0,0,1-21.2,18.19,5.77,5.77,0,0,0-3.38-4.31,11.55,11.55,0,0,0-6.12-.69c-3.75.4-10.41,2-12.87,5.13a8.09,8.09,0,0,0-1.08,1.75,94.81,94.81,0,0,0-19-15.3,69.37,69.37,0,0,0,15.17-4.25c4.87-2,10.27-6,9.35-11.13-.83-4.73-6.44-6.87-11.23-7.22a39.74,39.74,0,0,0-32.44,13.66,90.26,90.26,0,0,0-23.18-4.88,83.56,83.56,0,0,0-13,0,47.88,47.88,0,0,0,8.16-25c.23-6.7-1.82-14.53-8-17.06-6-2.43-12.62,1.28-17.35,5.63a58.58,58.58,0,0,0-18.39,46.85c-2.08,1.06-4.12,2.19-6.13,3.37a118.41,118.41,0,0,0-15.48,11.21c-.74-7.64,3-16.28-1.67-22.27-4.26-5.42-13.67-4.3-18,1.11s-4.1,13.32-1.33,19.65c2.14,4.9,5.58,9.06,9.26,13a125.12,125.12,0,0,0-11.93,16.57,9.7,9.7,0,0,0-1.79-6.4c-3.2-4.07-10.25-3.23-13.47.83s-3.07,10-1,14.72a35.79,35.79,0,0,0,7.19,10c-.08.24-.15.48-.24.71l-1.79,5.34C181,428.81,124.31,398.26,83.69,352.69a7.42,7.42,0,0,0,3.48-2.34,47.75,47.75,0,0,0,7.28-10c-2,.6-7.35,1.35-11.68,3.79a6.2,6.2,0,0,0-3,4c-2.5-2.95-5-5.95-7.33-9a8,8,0,0,0,3.17-2.26,47.49,47.49,0,0,0,7.28-10c-2,.61-7.35,1.35-11.68,3.8a6.56,6.56,0,0,0-2.81,3.06q-4.12-5.65-7.95-11.55c-18.44-28.49-31-67.72-38.68-109.5.41.24.8.49,1.22.71A50,50,0,0,0,34.57,218c1.6.41,3.21.77,4.82,1.08,0,10.37,1.67,20.83,6.21,30.12,4.91,10,13.4,18.62,24,22.15,3.5,1.16,7.37,1.76,10.85.51,4.09-1.47,7-5.35,8.13-9.55,2.67-9.79-3.26-20-10.7-26.88-5.72-5.3-12.42-9.5-18.29-14.6,1.81,0,3.6-.06,5.39-.11,2,0,4-.15,6-.3a118.16,118.16,0,0,0,12.15-1.28,83.35,83.35,0,0,0,18.56-4.68c.6-.21,1.63.17,3.62.45,7,10,15.83,20.15,27.85,22.4,5.77,1.09,12.45-.16,16-4.84,3.94-5.24,2.54-13.05-1.45-18.25s-10-8.38-15.82-11.42c-.46.05,11.94-6.23,18.55-9.42,2.59-1.25,5.18-2.49,7.78-3.7,3.3,4.24,6.75,8.42,11.11,11.53,4.92,3.52,11.27,5.56,17.11,4s10.67-7.46,9.7-13.43c-.68-4.19-3.92-7.6-7.67-9.57a28.79,28.79,0,0,0-6.78-2.4c3.95-1.4,7.94-2.68,12-3.75a100.11,100.11,0,0,1,22.45-3.51,63.69,63.69,0,0,1,22,2.78,47.43,47.43,0,0,1,18.64,11,37.4,37.4,0,0,1,6.49,8.48,36.87,36.87,0,0,1,3.66,10,32.84,32.84,0,0,1,.43,10.55,26.88,26.88,0,0,1-3.25,9.85,26.37,26.37,0,0,1-16.27,12.26,23.48,23.48,0,0,1-5.12.66,22.3,22.3,0,0,1-5.05-.62,20.11,20.11,0,0,1-8.81-5.06,29.33,29.33,0,0,1-6-8.56A28,28,0,0,1,220.14,213,15.89,15.89,0,0,0,218,224.31a17.53,17.53,0,0,0-10.13,4.55c-2.3,2.16-3.93,6-1.74,8.3s5.9.9,8.12-1.18c1.93-1.81,3.49-4.18,5.75-5.48a24.33,24.33,0,0,0,4.56,6.29c.64.64,1.33,1.24,2,1.82a18.34,18.34,0,0,0-4.37,6.91c-1.41,4.46.44,10.31,5,11.52,3.72,1,7.67-1.56,9.52-5a20,20,0,0,0,2.09-7.85,35.38,35.38,0,0,0,3.84.37,30.13,30.13,0,0,0,6.64-.69c.53-.12,1-.29,1.56-.44.59,3.84,1.46,7.67,3.75,10.75,2.76,3.7,8.26,5.79,12.12,3.25,3.44-2.25,4.14-7.24,2.69-11.09-1.32-3.54-4-6.34-6.76-9a33.6,33.6,0,0,0,6.76-7.36c2.88,2.52,6,4.83,9.62,5.89,4.61,1.33,10.38,0,12.57-4.29,2.31-4.49-.35-10.25-4.53-13.09-3.57-2.43-7.92-3.25-12.24-3.8a40.13,40.13,0,0,0-.41-11.38c-.07-.4-.18-.78-.26-1.18,5.48.57,11.64.34,14.6-4.12,2.42-3.66,1.25-8.94-1.93-12s-7.88-4-12.25-3.63a33.59,33.59,0,0,0-8.72,2.23,44.08,44.08,0,0,0-3.5-4c-1-1-2-1.88-3-2.76,3.12-.75,6.29-1.57,8.9-3.42s4.7-5.23,4.07-8.49c0-.06,0-.11,0-.17q9,.23,17.85.24a675.13,675.13,0,0,0,160.28-18.91c-.06.07-.14.12-.19.19a9,9,0,0,0-1,8.72c2.8,7.64,8.77,14.19,10.54,16.93a86.25,86.25,0,0,0-9.71,2.17,104.17,104.17,0,0,0-29.47,13.86A109.79,109.79,0,0,0,396.71,211l-3.43,4.23,4.56,2.77A95.89,95.89,0,0,0,429,229.75a98.56,98.56,0,0,0,33.14.7,67.38,67.38,0,0,0,8.25-1.75,41.09,41.09,0,0,0,4.11-1.34l2-.74,2-.88a68.68,68.68,0,0,0,14.41-8.94,96.31,96.31,0,0,0,12-11.61c1.83-2.07,3.57-4.22,5.24-6.42.85-1.08,1.64-2.21,2.45-3.32a17.34,17.34,0,0,0,1.8-3,18,18,0,0,0,1.28-3.93A15.56,15.56,0,0,0,513,185a14.45,14.45,0,0,0-1.73-1.45l-.93-.63c-1.17-.8-2.37-1.57-3.61-2.26a62.24,62.24,0,0,0-7.62-3.7,70.14,70.14,0,0,0-16.21-4.28,76.25,76.25,0,0,0-23.17.4,70.66,70.66,0,0,0,2-19.12c-.08-2.88-.58-6.19-3.12-7.94a5.34,5.34,0,0,0-1.11-.58,671.43,671.43,0,0,0,65.93-20.47c8.62-3.17,18.2-7.39,25.68-13.73-.21,5-.5,10.23-.87,15.57A64.68,64.68,0,0,0,536.33,140.49ZM171.84,174.66a32.45,32.45,0,0,0,2.54-17.31h0q16.51,2.43,32.77,4.19a11.4,11.4,0,0,0,.16,3.35A120.43,120.43,0,0,0,191.54,168,181.71,181.71,0,0,0,171.84,174.66Zm57.83-11q8.79.71,17.51,1.22a27,27,0,0,0-3.93,3.62c-.85-.33-1.71-.65-2.58-.94a65.07,65.07,0,0,0-11.18-2.64A10.92,10.92,0,0,0,229.67,163.66ZM111,133.11c-17.84-4-44.38-13.86-66.11-24.3C73,75.22,118.75,69.89,163.1,64.75,220.5,58.1,280.73,57,358.38,61c79.1,4.15,133.63,20.59,166.42,50.2-1.85.76-3.71,1.48-5.56,2.16-73.26,27-149.13,40.43-229.18,40.42C232.71,153.8,173.2,146.89,111,133.11Zm336.8,72c2.44,9.81,10.86,15.38,18.56,12.75,7.39-2.53,11.6-11.81,9.63-21-1.37-6.45-5.48-11.43-10.47-13.3a73.16,73.16,0,0,1,16-.05,62.37,62.37,0,0,1,13.82,3.19,52.14,52.14,0,0,1,6.42,2.88c.72.36,1.39.79,2.08,1.2-.51.75-1,1.51-1.54,2.24-1.47,2.08-3,4.11-4.62,6.07a86.78,86.78,0,0,1-10.48,10.85,58.52,58.52,0,0,1-12.31,8.17,48.31,48.31,0,0,1-14.07,4.19,86.22,86.22,0,0,1-53.07-9.37,98.84,98.84,0,0,1,18.51-15.12A96.37,96.37,0,0,1,453,185.9h0C448.25,190,446,197.52,447.83,205.1ZM112.42,25.25c221.27-33.47,384.8,5.9,415.71,28,10.76,7.68,21,19.25,21.6,30.92v2.14a19.54,19.54,0,0,1-.77,4.51c-1.86,6.15-6.56,10.81-12.45,14.54C501.88,71.7,443.81,53.17,359,48.72c-78.37-4.11-139.24-2.94-197.35,3.8-47.72,5.53-97,11.27-128,50.6-2-1.08-4-2.17-5.89-3.24-9.16-5.28-14.17-10.85-15-16.6.06-1.43.12-2.87.19-4.28C17.58,57.78,72.13,31.35,112.42,25.25Zm-90.77,85.3c21.28,12.26,59.53,28.55,86.71,34.58q24.39,5.42,48.24,9.42A37.08,37.08,0,0,0,146,186.35c-9.87,4.8-19.61,9.68-29.5,13.92a80.6,80.6,0,0,0-.71-30.76c-1.11-5-3.71-10.81-8.81-11.38-3-.33-5.87,1.39-7.68,3.75a21.1,21.1,0,0,0-3.37,8.2A72,72,0,0,0,97,206.38a6.47,6.47,0,0,0,0,1.1c-.64.24-.34.07-1,.29-7.27,2.61-6.71,2-14.21,3.35-3.76.67-7.51,1-11.41,1.39q-2.91.3-5.8.44c-1.93.1-3.87.25-5.79.25-3.75.06-7.51.05-11.22-.14a144,144,0,0,0,13-50.26c.26-3.61.36-7.34-.93-10.72s-4.26-6.36-7.87-6.58c-5.13-.33-8.92,4.59-11.28,9.15a87.51,87.51,0,0,0-8.23,56l.13.07a57.45,57.45,0,0,1-7-2.42,54.52,54.52,0,0,1-4.91-2.43,604.26,604.26,0,0,1-8.18-101.83A63.2,63.2,0,0,0,21.65,110.55Z"/><path d="M236.73,339l4.44-3.78a30.47,30.47,0,0,0,5.65-6.67,28.56,28.56,0,0,0-4.66-7.26l-3.93-4.14-4.13-3.92-4.34-3.73A117.12,117.12,0,0,0,210.64,297a111,111,0,0,0-89-6.2,116.31,116.31,0,0,0-20.67,9.71,107.64,107.64,0,0,0-18.15,13.75l0,0-2.55,2.23A55.4,55.4,0,0,0,71,305.75c-1.56-1.42-3.52-2.83-5.58-2.37s-3.34,2.93-3,5.05a7,7,0,0,0,4,4.78c5.12,2.41,11.27,2.82,13.64,3.34l-.12.11,2.06,3a116.49,116.49,0,0,0,78.82,48.08,70.69,70.69,0,0,0,24.11-1.3,98.91,98.91,0,0,0,22.39-8.09,142.64,142.64,0,0,0,20.09-12.24l4.69-3.5Zm-9.59-2.84-4.47,3.34A135.22,135.22,0,0,1,203.74,351c-13.12,6.53-27.67,10.42-41.87,8.6a104,104,0,0,1-41.09-14.76,105.87,105.87,0,0,1-29.68-26.7,112.82,112.82,0,0,1,33.74-17.76,111.78,111.78,0,0,1,25-5.06c-5.5,5.76-9.06,14.74-9.06,24.87,0,17.39,10.44,31.49,23.33,31.49s23.32-14.1,23.32-31.49c0-9.13-2.89-17.33-7.49-23.08A112.2,112.2,0,0,1,206.09,306,109.22,109.22,0,0,1,224,316.9l4.15,3.22,4,3.41,3.82,3.62c.51.58.54,1.12-.17,1.85l-4.27,3.62Z"/><path d="M166.83,281.62a110.37,110.37,0,0,0,8.65-27.1c.76-4.15,1.07-9-1.88-12s-8.52-2.59-11.7.32-4.39,7.58-3.89,11.86C159.35,266.1,165.3,277.14,166.83,281.62Z"/><path d="M147.21,280.69a84.12,84.12,0,0,0-.21-21.62c-.45-3.17-1.37-6.74-4.22-8.2s-6.76.16-8.37,3a10.58,10.58,0,0,0,0,9.48C138.11,271.27,145,277.83,147.21,280.69Z"/><path d="M124,286a65.39,65.39,0,0,0-.17-16.83c-.34-2.46-1.06-5.24-3.28-6.38s-5.26.13-6.51,2.35a8.23,8.23,0,0,0,0,7.38C117,278.7,122.34,283.8,124,286Z"/><path d="M108.25,294.28A65.47,65.47,0,0,0,103.87,278c-1-2.3-2.34-4.8-4.77-5.35s-5.07,1.44-5.72,3.9a8.27,8.27,0,0,0,1.87,7.15C99.56,289,106.05,292.55,108.25,294.28Z"/><path d="M88.15,303.31a55,55,0,0,0-3.7-13.72c-.8-1.94-2-4.06-4-4.52s-4.28,1.21-4.83,3.29a7,7,0,0,0,1.58,6C80.81,298.82,86.29,301.85,88.15,303.31Z"/><path d="M197.77,267a10.6,10.6,0,0,0,0-9.49c-1.6-2.86-5.45-4.51-8.36-3s-3.77,5-4.22,8.2A83.75,83.75,0,0,0,185,284.3C187.17,281.43,194.1,274.88,197.77,267Z"/><path d="M218.12,276.16a8.23,8.23,0,0,0,0-7.38c-1.25-2.23-4.24-3.52-6.51-2.35s-2.94,3.91-3.28,6.38a65.31,65.31,0,0,0-.17,16.82C209.87,287.41,215.26,282.31,218.12,276.16Z"/><path d="M237,287.33a8.25,8.25,0,0,0,1.87-7.14c-.65-2.47-3.23-4.47-5.72-3.91s-3.82,3.06-4.77,5.36A65.24,65.24,0,0,0,224,297.89C226.16,296.15,232.65,292.57,237,287.33Z"/><path d="M255,298a7,7,0,0,0,1.58-6c-.55-2.09-2.73-3.77-4.83-3.3s-3.23,2.58-4,4.52a54.93,54.93,0,0,0-3.7,13.73C245.92,305.45,251.4,302.43,255,298Z"/><path d="M266.78,307c-2.06-.46-4,.95-5.58,2.36A55.2,55.2,0,0,0,252,320.18c2.31-.53,8.56-.93,13.74-3.37a7,7,0,0,0,4-4.78C270.12,309.91,268.88,307.46,266.78,307Z"/><path d="M262.19,339.54a65.16,65.16,0,0,0-16.29-4.23c1.76,2.18,5.4,8.64,10.67,12.91a8.28,8.28,0,0,0,7.16,1.8c2.46-.67,4.44-3.27,3.86-5.75S264.5,340.47,262.19,339.54Z"/><path d="M244,355.35a55,55,0,0,0-13.76-3.58c1.48,1.84,4.56,7.3,9,10.9a7,7,0,0,0,6,1.53c2.07-.57,3.74-2.76,3.25-4.86S245.93,356.13,244,355.35Z"/><path d="M212.49,362.61c.55,2.3,1,8.55,3.49,13.71a7,7,0,0,0,4.82,4c2.12.38,4.56-.89,5-3s-1-4-2.42-5.56A55.07,55.07,0,0,0,212.49,362.61Z"/><path d="M197.07,368c0,2.36-.91,8.56.37,14.14a7,7,0,0,0,3.82,4.93c2,.83,4.65.14,5.56-1.82s-.08-4.13-1.13-6A54.79,54.79,0,0,0,197.07,368Z"/><path d="M181.06,372.19c-.9,2.19-4.18,7.52-5.18,13.17a7,7,0,0,0,1.6,6c1.5,1.54,4.22,1.94,5.82.49s1.54-3.83,1.29-5.92A55.44,55.44,0,0,0,181.06,372.19Z"/><path d="M162.71,371.48c-.9,2.19-4.18,7.52-5.18,13.16a7,7,0,0,0,1.6,6c1.5,1.55,4.22,1.95,5.82.5s1.54-3.83,1.29-5.92A55.44,55.44,0,0,0,162.71,371.48Z"/><path d="M135.5,377.86a7,7,0,0,0-.51,6.21c.9,2,3.33,3.25,5.32,2.42s2.74-3.1,3.19-5.15a54.8,54.8,0,0,0,1.28-14.16C143.2,368.94,138.32,372.87,135.5,377.86Z"/><path d="M115,368.12a6,6,0,0,0-1.1,5.3,3.79,3.79,0,0,0,4.33,2.65c1.76-.49,2.69-2.38,3.3-4.1a48,48,0,0,0,2.6-12.07C122.53,361.25,117.91,364.12,115,368.12Z"/><path d="M99.49,361a6.09,6.09,0,0,0-1.1,5.3,3.8,3.8,0,0,0,4.33,2.65c1.76-.5,2.69-2.39,3.3-4.11a47.83,47.83,0,0,0,2.6-12.06C107.08,354.14,102.45,357,99.49,361Z"/><path d="M443.6,174.78a54.57,54.57,0,0,0-3.8-14.93c-.89-2.17-2.23-4.59-4.75-5.28a5.37,5.37,0,0,0-6.24,3.26,7.17,7.17,0,0,0,1.75,6.84C434.94,169.71,441.47,173.17,443.6,174.78Z"/><path d="M426.72,181.54a41.9,41.9,0,0,0-3.32-12c-.76-1.73-1.91-3.64-4-4.13a4.65,4.65,0,0,0-5.22,2.77,5.51,5.51,0,0,0,1.51,5.44C419.35,177.61,424.9,180.27,426.72,181.54Z"/><path d="M400.06,185.57c5.12,3,11.7,4.24,14,5a45.35,45.35,0,0,0-7.26-11c-1.36-1.53-3.18-3.15-5.55-3.11a4.57,4.57,0,0,0-4.53,4C396.64,182.57,398.1,184.43,400.06,185.57Z"/><path d="M387.07,199.16c4.65,2.46,10.63,3.39,12.72,4a38,38,0,0,0-6.66-9.35c-1.24-1.29-2.9-2.64-5.05-2.54a4.2,4.2,0,0,0-4.07,3.62C384,196.64,385.29,198.22,387.07,199.16Z"/><path d="M380.28,209.29c-1.93-.66-4.31-1.22-6.32-.32a3.29,3.29,0,0,0-1.81,4.66c1,1.5,3.12,2.35,5.35,2.5,5.83.38,12.06-1,14.4-1.27A52.33,52.33,0,0,0,380.28,209.29Z"/><path d="M471.3,150.56c-1.7,1.27-1.82,3.72-1.68,5.85a54.17,54.17,0,0,0,2.8,13.94c1-2.13,4.64-7.2,5.95-12.67a7,7,0,0,0-1.21-6.07C475.75,149.94,473,149.27,471.3,150.56Z"/><path d="M487.46,155c-1.21,1-1.31,2.77-1.22,4.34a41.07,41.07,0,0,0,1.9,10.32c.75-1.58,3.34-5.37,4.32-9.44a5.32,5.32,0,0,0-.84-4.51A3.09,3.09,0,0,0,487.46,155Z"/><path d="M500.45,160.31c-1.3.6-1.81,2.25-2.1,3.73a41.57,41.57,0,0,0-.71,10.13c1-1.31,4.26-4.25,6.06-7.83A5.28,5.28,0,0,0,504,162,2.82,2.82,0,0,0,500.45,160.31Z"/><path d="M509.15,166.64c-1,.51-1.43,1.85-1.66,3.05a35.52,35.52,0,0,0-.61,8.22c.83-1.08,3.36-3.49,4.8-6.42a4.44,4.44,0,0,0,.25-3.56A2.16,2.16,0,0,0,509.15,166.64Z"/><path d="M522.67,176.75c0-1.19-.8-2.35-1.85-2.34s-1.88,1-2.52,2a35.48,35.48,0,0,0-3.6,7.15c1.11-.61,4.15-1.7,6.45-3.72A4.33,4.33,0,0,0,522.67,176.75Z"/><path d="M524.52,193.12a29.43,29.43,0,0,0-8.35.27c1.08.9,3.46,3.76,6.4,5.15a3.61,3.61,0,0,0,3.56-.21,3.27,3.27,0,0,0,1.33-3.58C527,193.58,525.7,193.25,524.52,193.12Z"/><path d="M515.33,205.4a26.77,26.77,0,0,0-7.35.52c.95.72,3.06,3.09,5.65,4.18a3.28,3.28,0,0,0,3.14-.29,2.85,2.85,0,0,0,1.17-3.11C517.52,205.71,516.37,205.48,515.33,205.4Z"/><path d="M509,216.84a24.68,24.68,0,0,0-6.77-2.75c.54,1.15,1.44,4.45,3.3,6.71a2.94,2.94,0,0,0,5.27-1.49A3,3,0,0,0,509,216.84Z"/><path d="M492.05,220.74c.29,1.31.44,4.93,1.79,7.7a3.05,3.05,0,0,0,2.68,1.81,3.12,3.12,0,0,0,2.86-2.21,3.19,3.19,0,0,0-1.24-3A24.3,24.3,0,0,0,492.05,220.74Z"/><path d="M482.05,226.26c0,1.47-.72,5.42-.06,8.76a3.18,3.18,0,0,0,2.17,2.63,3,3,0,0,0,3.27-1.72,4,4,0,0,0-.54-3.53A25.78,25.78,0,0,0,482.05,226.26Z"/><path d="M470.48,232.59c-.29,1.49-1.7,5.4-1.58,8.91a3.27,3.27,0,0,0,1.83,3,3.33,3.33,0,0,0,3.75-1.24,3.9,3.9,0,0,0,0-3.68A25.69,25.69,0,0,0,470.48,232.59Z"/><path d="M456.59,234.44c-.63,1.59-2.95,5.64-3.73,9.64a4,4,0,0,0,1,3.88,3,3,0,0,0,3.93-.54,5.32,5.32,0,0,0,1-4.18A32,32,0,0,0,456.59,234.44Z"/><path d="M435.51,243.41a3.51,3.51,0,0,0,.39,3.63,2.93,2.93,0,0,0,3.78,0,4.7,4.7,0,0,0,1.49-3.64,27.59,27.59,0,0,0-.78-8.21C439.57,236.58,436.81,239.92,435.51,243.41Z"/><path d="M420.81,241.89a3.55,3.55,0,0,0,.09,3.79,3.27,3.27,0,0,0,4.07.41,4.79,4.79,0,0,0,1.92-3.62,27.94,27.94,0,0,0-.1-8.57C425.78,235.21,422.52,238.4,420.81,241.89Z"/><path d="M404.67,236.38c-1,1.4-1.48,3.08-.95,4.34a2.81,2.81,0,0,0,3.87,1.1,6.48,6.48,0,0,0,2.86-3.83,37.5,37.5,0,0,0,2.16-9.65C411.29,229.65,407.28,232.71,404.67,236.38Z"/><path d="M388.11,233a3.09,3.09,0,0,0,3.78,2.11,6.7,6.7,0,0,0,3.94-3.12,38.2,38.2,0,0,0,4.63-9.17c-1.71,1-6.66,3-10.28,6.05C388.8,230,387.88,231.56,388.11,233Z"/></g></g></svg>